<?xml version="1.0" encoding="utf-8"?>
<!-- Generator: Adobe Illustrator 18.0.0, SVG Export Plug-In . SVG Version: 6.00 Build 0)  -->
<!DOCTYPE svg PUBLIC "-//W3C//DTD SVG 1.1//EN" "http://www.w3.org/Graphics/SVG/1.1/DTD/svg11.dtd">
<svg version="1.1" id="Layer_1" xmlns="http://www.w3.org/2000/svg" xmlns:xlink="http://www.w3.org/1999/xlink" x="0px" y="0px"
	 viewBox="0 0 136 113.2" enable-background="new 0 0 136 113.2" xml:space="preserve">
<g>
	<polygon fill-rule="evenodd" clip-rule="evenodd" fill="#FFFFFF" points="54,66.6 60,70.2 55.6,81.5 98.2,59 98,59.9 43.4,95 	"/>
	<path fill-rule="evenodd" clip-rule="evenodd" fill="#FFFFFF" d="M115,48.3l-30.5,1.5l16.7,45L49,61.4v-5.2l51.9,38.3L79.3,49.9
		l-11.8,0.4l-1.2,4h13.6l3,6.3l-25.9,0.1l3.5-10.2l-26.7,1l-6.2-3.9l34,0l10.7-31.3l11.6,31.3L115,48.3z M68.3,47.7h9.9l-6.1-12.5
		L68.3,47.7z"/>
	<polygon fill-rule="evenodd" clip-rule="evenodd" fill="#FFFFFF" points="43.5,50.5 47.9,50.5 47.9,74.6 43.5,89 	"/>
	<path fill="#FFFFFF" d="M114.6,57.4c0,1.8-0.5,3.3-1.5,4.4c-1.4,1.6-4.6,2.4-7.5,2.4h-6.2v20.8l-4.1-12.5V54.3L90,50.6h15.7
		c3.1,0,6.3,0.9,7.7,2.7C114.2,54.4,114.6,55.8,114.6,57.4L114.6,57.4z M109.5,57.4c0-1.2-0.4-2-1.3-2.4c-0.6-0.3-1.3-0.4-2.2-0.4
		h-6.5v5.8h6.5c1.2,0,2.1-0.3,2.7-0.7C109.2,59,109.5,58.3,109.5,57.4L109.5,57.4z"/>
	<path fill="#FFFFFF" d="M41.8,65.7v-7.9c-7.6,7.8-21,3.5-21.3-6c-0.2-9.5,14-13.6,21.3-5.6v-7.9L39,40.1
		c-5.8-3.3-15.6-2.6-20.6,1.9c-6.4,5.8-6.3,13.9,0.1,19.8c5,4.6,14.2,5.7,20.6,2.1L41.8,65.7z"/>
	<path fill="#FFFFFF" d="M101.3,38.4l-2.5-3.9l-1.5-1.1h4.8l-0.9,1.1l1.3,1.9l1-1.7l-1.2-1.3h4.1l-1.4,1.4l-2.2,3.9
		c-0.2,0.3-0.4,0.6-0.6,0.9c-0.2,0.3-0.5,0.5-0.7,0.7c-0.2,0.2-0.5,0.3-0.7,0.3l-0.3,0.1l-0.3,0.1h-0.2c-0.1,0-0.3,0-0.4-0.1
		c-0.1,0-0.4-0.1-0.8-0.4c-0.1,0-0.1-0.1-0.2-0.3c0-0.2-0.1-0.3-0.1-0.5c0-0.3,0-0.6,0.1-0.9c0.1-0.3,0.2-0.6,0.3-0.9
		c0.2-0.3,0.3-0.5,0.6-0.7l0,0.1l0,0.1c0,0.1,0,0.2,0.1,0.4c0,0.1,0,0.2,0,0.3c0,0.1,0,0.1,0,0.2c0.1,0.4,0.3,0.6,0.5,0.8
		c0.1,0.1,0.2,0.2,0.3,0.2c0.1,0.1,0.2,0.1,0.3,0.1l0,0l0,0c0.1,0,0.3,0,0.4-0.1c0,0,0.1-0.1,0.1-0.1c0,0,0.1-0.1,0.1-0.1
		C101.3,38.6,101.3,38.5,101.3,38.4L101.3,38.4z"/>
	<path fill="#FFFFFF" d="M112.7,39.2h0.8v2.5l-1.3-1.3h-6.6l-1.3,1.3v-2.5h1.2l2.1-4.7l-1-1.1h4.5l-0.7,1.1L112.7,39.2z M106.6,39.2
		h3.8l-2-4.1L106.6,39.2z"/>
	<path fill-rule="evenodd" clip-rule="evenodd" fill="#FFFFFF" d="M97.1,38.4c0.1-0.4,0.2-0.8,0.2-1.3V37c0-0.4,0-0.8-0.1-1.2
		c-0.1-0.3-0.2-0.7-0.4-0.9c-0.4-0.5-0.8-0.9-1.3-1.1l0,0h0c-0.3-0.1-0.6-0.3-0.9-0.4c-0.2-0.1-0.4-0.1-0.7-0.1h0L92.3,33h-3.2v-4.1
		h5.2l2.1,1.8v-3.4H84.6l1.9,2.4l0,8.2l-1.9,2.5h9.5l0.5-0.1l0.5-0.1l0.6-0.1c0.2,0,0.4-0.1,0.5-0.3c0.2-0.2,0.4-0.4,0.5-0.6
		c0.1-0.2,0.2-0.3,0.2-0.5C97,38.8,97.1,38.6,97.1,38.4L97.1,38.4z M89.1,39.1v-4.4h3.6c0.4,0,0.7,0.2,1,0.6
		c0.3,0.4,0.4,1.1,0.4,1.7c0,0.7-0.2,1.3-0.6,1.7c-0.4,0.3-0.7,0.5-1.2,0.5H89.1z"/>
</g>
</svg>
