<?xml version="1.0" encoding="utf-8"?>
<!-- Generator: Adobe Illustrator 18.0.0, SVG Export Plug-In . SVG Version: 6.00 Build 0)  -->
<!DOCTYPE svg PUBLIC "-//W3C//DTD SVG 1.1//EN" "http://www.w3.org/Graphics/SVG/1.1/DTD/svg11.dtd">
<svg version="1.1" id="Layer_1" xmlns="http://www.w3.org/2000/svg" xmlns:xlink="http://www.w3.org/1999/xlink" x="0px" y="0px"
	 viewBox="0 0 400 400" enable-background="new 0 0 400 400" xml:space="preserve">
<g>
	<path d="M63.4,164.1c-11.9,1.3-24.1,5.9-28.1,13.4c-6.9,12.2,0.3,29.4-0.9,38.1c-1.6,11.6-12.2,12.8-21.6,7.5L2.5,185.9
		c-1.3-4.1,1.3-8.4,5.6-9.4l49.4-13.1C59.4,162.8,61.6,163.1,63.4,164.1"/>
	<g>
		<g>
			<path id="SVGID_3_" d="M34.1,213.1c0,0.6,0,1.3,0,1.9c-1.9,11.3-12.2,12.8-21.6,7.5l-1.6-5.3C20.3,221.3,29.7,220.6,34.1,213.1"
				/>
		</g>
		<g>
			<defs>
				<path id="SVGID_1_" d="M34.1,213.1c0,0.6,0,1.3,0,1.9c-1.9,11.3-12.2,12.8-21.6,7.5l-1.6-5.3C20.3,221.3,29.7,220.6,34.1,213.1"
					/>
			</defs>
			<clipPath id="SVGID_2_">
				<use xlink:href="#SVGID_1_"  overflow="visible"/>
			</clipPath>
			<rect x="11.3" y="213.1" clip-path="url(#SVGID_2_)" width="23.1" height="14.7"/>
		</g>
	</g>
	<path d="M19.4,240c11.9-1.3,24.1-5.9,28.1-13.4c6.6-11.9-0.3-29.4,0.9-38.1c1.6-11.6,12.2-12.8,21.6-7.5l10,37.2
		c1.3,4.1-1.3,8.4-5.6,9.4l-49.1,13.1C23.1,241.2,21.3,240.9,19.4,240"/>
	<path d="M399.1,231.3h-13.8V205c0-3.1,0-5.3-0.3-6.6s-0.9-2.2-1.9-3.1c-0.9-0.9-2.2-1.3-3.8-1.3c-4.7,0-7.2,3.4-7.2,10.6v26.6
		h-13.8v-46.9h12.8v7.8c2.2-3.8,4.4-6.3,6.3-7.2c2.2-0.9,4.4-1.6,6.9-1.6c4.4,0,8.1,1.3,10.6,3.8c2.8,2.5,4.1,7.2,4.1,14.1V231.3z
		 M332.2,192.5c-2.5,0-4.7,0.9-5.9,3.1c-1.3,1.9-1.9,5.9-1.9,12.2c0,5.6,0.6,9.4,1.9,11.9c1.3,2.5,3.1,3.7,5.9,3.7
		c2.5,0,4.4-0.9,5.6-3.1c1.6-2.2,2.2-5.9,2.2-11.9c0-6.3-0.6-10.3-1.9-12.5C336.9,193.8,334.7,192.5,332.2,192.5z M331.9,183.4
		c7.2,0,12.8,2.2,16.6,6.9c4.1,4.7,5.9,10.6,5.9,17.5s-2.2,12.8-6.3,17.2c-4.1,4.7-9.7,6.9-16.6,6.9c-6.6,0-11.9-2.2-15.9-6.9
		s-5.9-10.3-5.9-17.5c0-5,0.9-9.1,2.8-12.8c1.9-3.4,4.4-6.3,7.5-8.4C323.1,184.7,326.9,183.4,331.9,183.4z M292.2,231.3v-63.1h13.8
		v63.1H292.2z M258.1,202.2h16.6c-0.3-6.6-3.1-9.7-7.8-9.7C261.6,192.5,258.8,195.9,258.1,202.2z M288.1,210.3h-30
		c0,0.9,0,1.6,0,2.2c0,3.4,0.9,5.9,2.8,7.5s3.8,2.5,6.3,2.5c4.7,0,7.5-2.5,8.4-7.5l12.5,0.9c-3.4,10.9-10.6,16.3-21.3,16.3
		c-4.7,0-8.8-0.9-11.9-2.8c-3.1-1.9-5.9-4.7-8.1-8.1c-2.2-3.4-3.1-7.8-3.1-12.8c0-7.5,2.2-13.4,6.3-18.1c4.4-4.7,9.7-6.9,16.3-6.9
		c5.9,0,11.3,2.2,15.6,6.3C286.3,194.1,288.1,200.9,288.1,210.3z M233.8,195.3V215c0,2.5,0.3,4.1,1.3,5c0.6,0.9,2.5,1.3,5.3,1.3
		c1.3,0,2.8,0,4.4-0.3v10.3c-4.1,0.6-6.9,0.9-8.8,0.9c-5.6,0-9.7-0.9-12.2-3.4c-2.5-2.2-3.8-6.3-3.8-11.9V195h-7.5v-10.6h8.1
		l1.3-13.8l11.9-0.9v14.7h10V195h-10V195.3z M211.6,231.3h-13.8V205c0-3.1,0-5.3-0.3-6.6c-0.3-1.3-0.9-2.2-1.9-3.1s-2.2-1.3-3.8-1.3
		c-4.7,0-7.2,3.4-7.2,10.6v26.6h-13.8v-46.9h12.8v7.8c2.2-3.8,4.4-6.3,6.3-7.2c2.2-0.9,4.4-1.6,6.9-1.6c4.4,0,8.1,1.3,10.6,3.8
		c2.8,2.5,4.1,7.2,4.1,14.1V231.3z M164.4,166.9v13.8h-13.8v-13.8H164.4z M164.4,184.7v46.9h-13.8v-46.9H164.4z M145.6,195.9
		l-10,2.8c-1.3-4.4-4.1-6.3-9.1-6.3c-4.7,0-6.9,1.6-6.9,4.4c0,1.3,0.3,1.9,1.3,2.8c0.9,0.6,3.1,1.3,6.6,1.6
		c5.3,0.6,9.4,1.6,11.9,2.5c2.5,0.9,4.7,2.5,5.9,4.7c1.6,2.2,2.2,5,2.2,8.1c0,4.7-1.9,8.8-5.6,11.9c-3.8,3.1-8.8,4.7-15.3,4.7
		c-11.9,0-19.1-4.7-21.2-13.8l11.6-1.9c0.9,4.1,4.4,6.3,10.3,6.3c2.2,0,4.1-0.3,5.9-1.3c1.6-0.9,2.5-1.9,2.5-3.4
		c0-2.2-1.9-3.4-5.3-3.8c-9.4-1.3-15.6-3.1-18.7-5.3c-3.1-2.5-4.4-5.9-4.4-10.3s1.9-8.1,5.3-10.9c3.4-2.8,8.4-4.4,14.7-4.4
		c5,0,8.7,0.9,11.9,2.8C141.9,188.4,144.1,191.6,145.6,195.9z"/>
	<text transform="matrix(1 0 0 1 312.1696 181.1549)" font-family="'Tahoma'" font-size="27.2834">carpets</text>
</g>
</svg>
