<?xml version="1.0" encoding="utf-8"?>
<!-- Generator: Adobe Illustrator 18.0.0, SVG Export Plug-In . SVG Version: 6.00 Build 0)  -->
<!DOCTYPE svg PUBLIC "-//W3C//DTD SVG 1.1//EN" "http://www.w3.org/Graphics/SVG/1.1/DTD/svg11.dtd">
<svg version="1.1" id="Layer_1" xmlns="http://www.w3.org/2000/svg" xmlns:xlink="http://www.w3.org/1999/xlink" x="0px" y="0px"
	 viewBox="0 0 128 128" enable-background="new 0 0 128 128" xml:space="preserve">
<g>
	<g>
		<path fill-rule="evenodd" clip-rule="evenodd" d="M25.9,47.6c0.1-0.2,0.1-0.5,0.2-0.4c0.1,0,0,0.3,0,0.4c0,0.7,0.1,1.6,1,1.6
			c1.1,0,3.2-1.6,6.1-6.2c0.4-0.5,0.6-0.8,0.7-0.7c0.1,0.1,0.1,0.3,0,0.7c-1.7,4.4-4.8,7.8-6.6,7.8c-1.2,0-1.4-1.2-1.5-1.8
			c-0.6,2.6,0.2,4.3,1.2,4.3c1.6,0.1,5-2.2,10.2-10.5c0.4-0.7,1.1-1.6,1.2-1.6c0.1,0.1,0.1,0.6-0.3,1.8C34.1,53.4,29,55.8,27.5,55.8
			c-1.5,0-2.3-1.7-2.4-2.9c-0.4,3.5,0.5,5.5,2.2,5.6c2.3,0.2,8.1-2.9,17.4-18.1c0.9-1.6,1.2-2,1.4-1.9c0.2,0.1,0.2,0.5-0.4,2.2
			c-5.1,14.8-13.6,22.1-17.9,22c-3.6,0-3.8-5.1-3.5-7.6C24.6,52.8,25.4,48.9,25.9,47.6z"/>
	</g>
	<g>
		<path d="M21.6,83.7c0-4.1-2.4-7-6.9-8.2l-3.3-0.9c-2.3-0.6-3-1.3-3-2.8c0-1.9,1.6-3.2,3.8-3.2c2,0,3.9,0.6,6.4,2.1l2.6-4
			C18.8,65.1,15.4,64,12,64c-5.8,0-9.8,3.5-9.8,8.5c0,1.5,0.4,3,1.1,4.2c1,1.7,2.7,2.7,5.4,3.5l3,0.8c2.4,0.7,3.6,1.8,3.6,3.6
			c0,2.5-1.7,3.8-4.8,3.8c-2.8,0-5-0.9-7.5-2.2l-2,4.3c2.8,1.6,6.2,2.5,9.3,2.5C17.1,93,21.6,89.3,21.6,83.7z"/>
	</g>
	<g>
		<rect x="25.6" y="64.9" width="5.7" height="27.5"/>
	</g>
	<g>
		<path d="M55.8,92.4V64.9h-5.2l0.1,11.3c0,1.9,0.2,5.4,0.4,7.6c-0.6-2-1.6-4.9-3-7.8l-5.2-11h-6.1v27.5h5.3L42,80.6
			c0-2.3-0.1-5.5-0.3-7.8c0.5,1.7,2.2,5.6,3.7,9l4.7,10.5H55.8z"/>
	</g>
	<g>
		<polygon points="78.7,64.9 59,64.9 59,69.5 65.7,69.5 65.7,92.4 71.3,92.4 71.3,69.5 77.8,69.5 		"/>
	</g>
	<g>
		<path d="M93.1,73.1c0,1.1-0.4,2.1-1.1,2.8c-0.7,0.7-1.8,0.9-4.1,0.9h-1.9v-7.4h2c1.3,0,2.5,0.2,3.1,0.4
			C92.5,70.2,93.1,71.4,93.1,73.1z M100.5,92.4c0,0-5-8.7-6.6-10.7c-0.4-0.5-0.6-0.7-1.1-1.1c3.4-0.1,6.1-3.5,6.1-7.6
			c0-4.8-3.2-8.1-8-8.1H80.7v27.5h5.4V80.9c0.4,0,0.6,0.1,0.9,0.2c1,0.4,1.8,1.8,4.5,6.7c1.1,1.9,1.5,2.7,2.6,4.5H100.5z"/>
	</g>
	<g>
		<path d="M115,81.3h-5.4c0.6-1.8,0.9-3.1,1.5-5.1c0.5-2.1,1.3-5.3,1.3-5.3s0.8,3.6,1.1,4.9C114.1,78.4,115,81.3,115,81.3z
			 M124.2,92.4l-8.6-27.6h-5.9l-9,27.6h5.7l1.9-6.5h8l1.9,6.5H124.2z"/>
	</g>
	<g>
		<path d="M124.5,65.7c0,0.2-0.1,0.3-0.2,0.4c-0.1,0.1-0.3,0.2-0.6,0.2h-0.3v-1.2h0.3C124.3,65.1,124.5,65.3,124.5,65.7z
			 M125.3,68.3l-0.5-0.9c-0.2-0.3-0.4-0.7-0.6-0.7c0.5,0,0.9-0.4,0.9-1c0-0.6-0.4-1.1-1.2-1.1h-1.1v3.7h0.6v-1.6
			c0.1,0,0.2,0,0.2,0.1c0.2,0.2,0.4,0.5,0.6,0.9l0.3,0.6H125.3z M126.5,66.5c0,1.5-1.2,2.8-2.6,2.8c-1.5,0-2.6-1.2-2.6-2.8
			c0-1.5,1.2-2.8,2.6-2.8C125.3,63.7,126.5,64.9,126.5,66.5z M127.1,66.5c0-1.9-1.5-3.3-3.3-3.3c-1.8,0-3.3,1.4-3.3,3.3
			c0,1.8,1.5,3.3,3.3,3.3C125.6,69.8,127.1,68.3,127.1,66.5z"/>
	</g>
</g>
</svg>
