<?xml version="1.0" encoding="utf-8"?>
<!-- Generator: Adobe Illustrator 18.0.0, SVG Export Plug-In . SVG Version: 6.00 Build 0)  -->
<!DOCTYPE svg PUBLIC "-//W3C//DTD SVG 1.1//EN" "http://www.w3.org/Graphics/SVG/1.1/DTD/svg11.dtd">
<svg version="1.1" id="Layer_1" xmlns="http://www.w3.org/2000/svg" xmlns:xlink="http://www.w3.org/1999/xlink" x="0px" y="0px"
	 viewBox="0 0 400 400" enable-background="new 0 0 400 400" xml:space="preserve">
<g>
	<path fill-rule="evenodd" clip-rule="evenodd" d="M17.2,212.6c0,5.7,0,11.3,0,17c0,2.8,0.1,4.6,0.3,5.3c0.2,0.7,0.5,1.3,1,1.8
		c0.5,0.5,1.3,0.8,2.1,0.8c0.4,0,0.7,0,1.1,0c0,0.5,0,1,0,1.5c-5.6,0.1-11.2,0.1-16.7,0.2c0-0.4,0-0.8,0-1.2c0.3,0,0.6,0,1,0
		c0.9,0,1.7-0.3,2.2-0.8c0.4-0.4,0.8-1,1-1.8c0.2-0.6,0.3-2.2,0.3-4.7c0-5.5,0-11.1,0-16.6c0-5.5,0-11.1,0-16.7
		c0-2.6-0.1-4.2-0.3-4.7c-0.2-0.6-0.5-1-1-1.1c-0.5-0.2-1.3,0-2.2,0.5c-0.4,0.2-0.7,0.4-1,0.5c0-0.4,0-0.8,0-1.2
		c5.5-3.2,11.1-6.3,16.7-9.1c0,0.5,0,1,0,1.5c-0.4,0.2-0.8,0.4-1.1,0.5c-0.9,0.4-1.6,1.1-2.2,2c-0.4,0.6-0.8,1.4-1,2.4
		c-0.2,0.7-0.2,2.5-0.2,5.2c0,5.2,0,10.3,0,15.5c3.8-1.1,7.6-2.1,11.4-3.1c0-5.7,0-11.4,0-17c0-3.1-0.1-5-0.2-5.7
		c-0.2-0.7-0.6-1.2-1.1-1.6c-0.5-0.3-1.2-0.3-2.1,0.1c-0.4,0.2-0.7,0.4-1,0.5c0-0.5,0-1,0-1.5c5.6-2.6,11.2-5.1,16.7-7.3
		c0,0.6,0,1.1,0,1.7c-0.4,0.1-0.7,0.3-1,0.4c-0.9,0.4-1.7,1-2.2,1.9c-0.4,0.6-0.8,1.5-1,2.6c-0.2,0.8-0.2,2.8-0.2,6c0,7,0,14,0,20.9
		c0,7,0,14,0,20.9c0,3.3,0.1,5.3,0.2,6.1c0.2,0.8,0.5,1.5,1,2.1c0.5,0.6,1.3,0.9,2.2,0.9c0.3,0,0.7,0,1,0c0,0.6,0,1.1,0,1.7
		c-5.6,0.1-11.2,0.1-16.7,0.2c0-0.5,0-1,0-1.5c0.3,0,0.7,0,1,0c0.9,0,1.7-0.4,2.2-1c0.4-0.4,0.8-1.1,1-2.2c0.2-0.7,0.2-2.6,0.2-5.6
		c0-6.2,0-12.5,0-18.7C24.8,210.7,21,211.7,17.2,212.6L17.2,212.6z M63.5,164.7c5.2-1.7,9.2,0.1,12.4,6.8c1.6,3.4,2.8,7.4,3.5,12.1
		c0.8,4.6,1.2,9.9,1.2,15.6c0,4.9-0.3,9.6-0.9,14c-0.6,4.4-1.5,8.5-2.7,12.2c-3.2,9.9-7.6,14.7-13.4,14.7c-5.8,0-10.2-4.2-13.4-12.5
		c-1.2-3.2-2.2-6.7-2.8-10.4c-0.6-3.7-0.9-7.8-0.9-12.3c0-5,0.4-9.6,1.2-14c0.8-4.4,2.1-8.6,3.7-12.5
		C54.7,170.6,58.8,166.2,63.5,164.7L63.5,164.7z M63.7,168c-2.9,0.9-5.2,5-6.7,12.1c-1.3,5.8-1.9,13.6-2,23.7c0,6,0.3,11.1,0.7,15.5
		c0.5,4.4,1.2,8,2.2,10.8c1.4,4,3.2,6,5.6,6c1.6,0,3-1,4.1-2.8c1.4-2.4,2.5-6.2,3.3-11.4c0.8-5.3,1.2-12.1,1.2-20.5
		c0-10-0.3-17.4-1.1-22.1c-0.8-4.7-1.8-7.9-3-9.6C66.8,168.1,65.3,167.5,63.7,168L63.7,168z M105.9,193.7c3,1.5,5.2,3.6,6.4,6.1
		c1.8,3.7,2.7,8.6,2.6,14.7c0,6.4-0.9,11.8-2.9,16.1c-2.4,5.1-5.9,7.6-10.4,7.7c-5.4,0-10.9,0.1-16.3,0.1c0-0.7,0-1.4,0-2
		c1.5,0,2.5-0.4,3-1.1c0.5-0.7,1-1.6,1.2-2.7c0.2-1.1,0.3-3.9,0.3-8.2c0-8.7,0-17.4,0-26.1c0-8.7,0-17.4,0-26.1
		c0-4.4-0.1-7.1-0.3-8.2c-0.2-1.1-0.6-1.9-1.1-2.5c-0.5-0.5-1.5-0.6-3-0.3c0-0.7,0-1.3,0-2c5.1-1.3,10.2-2.6,15.4-3.7
		c3.7-0.8,6.2-0.5,7.8,0.9c1.5,1.4,2.8,3.7,3.7,7c0.9,3.3,1.3,6.9,1.3,10.8c0,4.1-0.6,7.9-1.7,11.2
		C110.7,188.7,108.8,191.5,105.9,193.7L105.9,193.7z M97.3,193.1c2.2-0.3,3.9-1.1,5-2.6c1.1-1.4,1.9-3.4,2.5-5.9
		c0.6-2.5,0.9-5.6,0.9-9.3c0-3.7-0.3-6.7-0.8-8.9c-0.6-2.3-1.3-3.9-2.4-4.9c-1.1-1-2.8-1.2-5.1-0.7c0,5.4,0,10.8,0,16.2
		C97.3,182.3,97.3,187.7,97.3,193.1L97.3,193.1z M97.3,197.8c0,8.8,0,17.5,0,26.3c0,1,0,2,0,3c0,2.2,0.3,3.8,0.7,4.9
		c0.4,1.1,1,1.7,1.9,1.7c1.2,0,2.4-0.8,3.4-2.2c1.1-1.5,1.9-3.6,2.4-6.4c0.5-2.8,0.8-5.9,0.8-9.3c0-3.9-0.3-7.4-0.9-10.4
		c-0.6-3-1.6-5.1-2.8-6.3C101.6,197.9,99.7,197.5,97.3,197.8L97.3,197.8z M135.4,189.7c1.4-0.1,2.8-0.2,4.2-0.4
		c4.6-0.4,7.9,1.7,10,6.1c2.1,4.4,3.1,10.5,3.1,18.1c0,5.2-0.5,9.7-1.6,13.5c-1,3.7-2.4,6.6-4,8.4c-1.6,1.8-3.9,2.7-6.9,2.7
		c-5.8,0-11.5,0-17.2,0.1c0-0.7,0-1.5,0-2.2c2-0.1,3.2-0.8,3.8-2.2c0.6-1.4,0.9-4.4,0.9-9c0-9.7,0-19.3,0-29c0-9.7,0-19.4,0-29
		c0-6.3-0.2-10.1-0.7-11.4c-0.5-1.3-1.7-1.8-3.7-1.5c0-0.7,0-1.5,0-2.2c5.5-1,11-1.9,16.5-2.7c0,0.8,0,1.5,0,2.3
		c-1.5,0.3-2.5,0.8-3,1.7c-0.5,0.8-0.9,1.8-1.1,2.9c-0.2,1.1-0.3,3.9-0.3,8.3C135.4,172.5,135.4,181.1,135.4,189.7L135.4,189.7z
		 M135.4,195.5c0,8.9,0,17.8,0,26.7c0,4.2,0.2,7.2,0.6,8.9c0.4,1.7,1.2,2.6,2.3,2.6c1.8,0,3.3-1.8,4.2-5.3c0.9-3.5,1.4-7.9,1.4-13.1
		c0-5-0.5-9.3-1.3-12.6c-0.8-3.4-1.8-5.4-2.8-6.2C138.8,195.7,137.3,195.3,135.4,195.5L135.4,195.5z M168.8,235.7c-0.4,0-0.7,0-1,0
		c-1,0-1.7-0.5-2.3-1.5c-0.6-1-0.8-2.2-1-3.4c-0.1-1.3-0.2-4.1-0.2-8.4c0-10.1,0-20.2,0-30.4c0-10.1,0-20.3,0-30.4
		c0-4.3,0.1-7.1,0.2-8.5c0.1-1.4,0.5-2.6,1-3.5c0.5-1,1.3-1.6,2.3-1.7c0.3,0,0.7-0.1,1-0.1c0-0.8,0-1.6,0-2.4
		c-5.6,0.5-11.2,1.1-16.7,1.8c0,0.8,0,1.6,0,2.3c0.4-0.1,0.7-0.1,1.1-0.1c1-0.1,1.7,0.3,2.3,1.2c0.6,1,0.9,2.1,1,3.3
		c0.1,1.2,0.2,4,0.2,8.3c0,10,0,20.1,0,30.2c0,10,0,20.1,0,30.1c0,4.3-0.1,7.1-0.2,8.4c-0.1,1.3-0.5,2.5-1,3.4
		c-0.5,0.9-1.3,1.4-2.2,1.4c-0.4,0-0.7,0-1.1,0c0,0.8,0,1.6,0,2.3c5.6,0,11.2,0,16.7,0C168.8,237.3,168.8,236.5,168.8,235.7
		L168.8,235.7z M198.4,159.3c0-5.1-0.2-8.5-0.6-10.3c-0.4-1.8-1.4-2.6-3-2.6c-0.4,0-0.7,0-1.1,0c0-0.8,0-1.6,0-2.4
		c5.7-0.2,11.4-0.3,17.1-0.3c0,0.8,0,1.6,0,2.4c-0.4,0-0.8,0-1.1,0c-1.5,0-2.4,0.9-2.9,2.5c-0.5,1.7-0.8,5.4-0.7,11.1
		c0,10.3,0.1,20.7,0.1,31.1c0,10.3,0,20.7,0,31c0,5.8,0.2,9.5,0.7,11.2c0.5,1.6,1.5,2.5,3,2.5c0.4,0,0.7,0,1.1,0c0,0.8,0,1.6,0,2.4
		c-5.8,0-11.5,0-17.2,0c0-0.8,0-1.6,0-2.4c0.4,0,0.7,0,1.1,0c1.5,0,2.5-0.9,3-2.6c0.5-1.8,0.7-5.4,0.7-11.1c0-8.5,0-17.1,0-25.6
		c0-8.5,0-17.1,0-25.7c-1.9,8.7-3.7,17.5-5.6,26.2c-1.9,8.7-3.8,17.4-5.7,26.1c0,4.5,0.2,7.7,0.6,9.7c0.4,2,1.3,3,3,3
		c0.4,0,0.7,0,1.1,0c0,0.8,0,1.6,0,2.4c-5.8,0-11.5,0-17.2,0c0-0.8,0-1.6,0-2.4c0.4,0,0.7,0,1.1,0c1.5,0,2.5-0.9,3-2.6
		c0.5-1.8,0.8-5.4,0.8-10.9c0-10.2,0-20.5,0-30.7c0-10.2,0-20.5,0-30.7c0-5.7-0.2-9.3-0.6-10.9c-0.4-1.6-1.4-2.4-3.1-2.3
		c-0.4,0-0.7,0-1.1,0.1c0-0.8,0-1.6,0-2.4c5.7-0.4,11.4-0.8,17.1-1c0,0.8,0,1.6,0,2.4c-0.4,0-0.8,0-1.1,0.1c-1.5,0.1-2.4,1-2.9,2.9
		c-0.5,1.9-0.7,5.5-0.7,10.8c0,8.6,0,17.1,0,25.7c0,8.6,0,17.1,0,25.7c1.9-8.7,3.7-17.4,5.6-26.1
		C194.7,176.8,196.5,168.1,198.4,159.3L198.4,159.3z M252.9,144c0,5.3,0,10.7,0,16c0,5.3,0,10.6,0,15.9c-0.3,0-0.6,0-0.9-0.1
		c-0.7-8.4-2-15-3.9-19.6c-1.9-4.6-4-7.1-6.4-7.2c-2-0.1-3.8,1.4-5.5,4.7c-1.6,3.2-2.9,7.6-3.6,13c-1,6.9-1.4,14.6-1.4,23.1
		c0,8.4,0.4,16,1.1,22.9c0.7,6.9,1.9,12.1,3.4,15.6c1.5,3.5,3.5,5.3,6,5.3c2,0,3.9-1.3,5.5-3.8c1.7-2.5,3.4-6.9,5.3-13
		c0,2.6,0,5.3,0,7.9c-1.7,5.4-3.6,9.3-5.6,11.7c-1.9,2.4-4.2,3.6-6.8,3.6c-3.4,0-6.5-2-9.1-6c-2.7-4-4.7-9.8-6.2-17.3
		c-1.5-7.5-2.2-15.6-2.2-24.1c0-8.9,0.8-17.4,2.4-25.4c1.6-8,3.7-14.1,6.4-18.4c2.7-4.2,5.6-6.3,8.6-6.1c2.2,0.2,4.7,1.8,7.1,4.9
		c1.5,1.8,2.4,2.7,2.8,2.7c0.5,0,0.9-0.5,1.3-1.5c0.4-1,0.6-2.7,0.7-5C252.3,144,252.6,144,252.9,144L252.9,144z M286.5,151.2
		c0,7.8,0.1,15.7,0.1,23.5c-0.3,0-0.6-0.1-0.8-0.1c-0.5-5.5-1.1-9.5-1.7-12c-0.6-2.5-1.4-4.5-2.5-6.1c-0.6-0.9-1.7-1.4-3.2-1.7
		c-0.8-0.1-1.7-0.3-2.4-0.4c0,11.4,0.1,22.9,0.1,34.3c0,11.4,0.1,22.9,0.1,34.3c0,4.6,0.1,7.4,0.3,8.6c0.2,1.2,0.6,2.1,1.1,3
		c0.5,0.9,1.2,1.3,2.1,1.3c0.4,0,0.7,0,1.1,0c0,0.8,0,1.5,0,2.3c-5.6,0-11.2,0-16.7-0.1c0-0.8,0-1.5,0-2.3c0.4,0,0.7,0,1.1,0
		c0.9,0,1.7-0.5,2.2-1.4c0.4-0.6,0.7-1.7,0.9-3.2c0.2-1.1,0.2-3.9,0.2-8.4c0-11.6-0.1-23.1-0.1-34.7c0-11.6-0.1-23.2-0.1-34.7
		c-0.8-0.1-1.6-0.2-2.3-0.3c-2.2-0.3-3.7,0.8-4.7,3.3c-1.3,3.5-2.2,8.5-2.5,15.2c-0.3,0-0.6,0-0.9-0.1c0-8.2,0-16.4-0.1-24.6
		C267.3,148.1,276.9,149.5,286.5,151.2L286.5,151.2z M314.9,170.8c0-4.4-0.3-7.4-0.7-9c-0.4-1.6-1.4-2.7-3-3.1
		c-0.4-0.1-0.7-0.2-1.1-0.3c0-0.7,0-1.4,0-2.1c5.7,1.5,11.5,3.1,17.2,4.7c0,0.7,0,1.3,0,2c-0.4-0.1-0.7-0.2-1.1-0.3
		c-1.5-0.4-2.5,0-2.9,1.3c-0.5,1.3-0.7,4.3-0.7,9.1c0,8.6,0,17.3,0.1,25.9c0,8.6,0.1,17.3,0.1,25.9c0,4.8,0.3,8,0.7,9.3
		c0.5,1.4,1.5,2.1,3,2.1c0.4,0,0.7,0,1.1,0c0,0.7,0,1.3,0,2c-5.8,0-11.5-0.1-17.2-0.1c0-0.7,0-1.4,0-2.1c0.4,0,0.7,0,1.1,0
		c1.5,0,2.4-0.7,2.9-2.2c0.5-1.5,0.7-4.6,0.7-9.4c0-7.3-0.1-14.7-0.1-22c0-7.3-0.1-14.7-0.1-22c-1.9,7.1-3.7,14.4-5.6,21.8
		c-1.9,7.4-3.7,15-5.6,22.6c0,4,0.2,6.9,0.6,8.6c0.4,1.7,1.4,2.6,3.1,2.7c0.4,0,0.7,0,1.1,0c0,0.7,0,1.4,0,2.1
		c-5.8,0-11.5-0.1-17.2-0.1c0-0.7,0-1.5,0-2.2c0.4,0,0.7,0,1.1,0c1.5,0,2.5-0.8,3-2.3c0.5-1.6,0.7-4.9,0.7-10c0-9.3-0.1-18.7-0.1-28
		c0-9.3-0.1-18.7-0.1-28.1c0-5.2-0.2-8.6-0.6-10.2c-0.4-1.6-1.4-2.6-3.1-2.9c-0.4-0.1-0.7-0.1-1.1-0.2c0-0.7,0-1.5,0-2.2
		c5.7,1.2,11.5,2.4,17.2,3.8c0,0.7,0,1.4,0,2.1c-0.4-0.1-0.7-0.2-1.1-0.3c-1.5-0.3-2.4,0.3-2.9,1.8c-0.5,1.5-0.7,4.7-0.7,9.5
		c0,7.6,0.1,15.3,0.1,22.9c0,7.6,0,15.3,0.1,22.9c1.9-7.5,3.7-15,5.6-22.4C311.1,185.1,313,177.9,314.9,170.8L314.9,170.8z
		 M364.9,175.9c-1.7-0.7-2.9-0.6-3.4,0.4c-0.5,1-0.7,3-0.7,6.2c0,7.7,0,15.3,0,23c0,7.7,0.1,15.3,0.1,23c0,3.5,0.3,5.9,0.8,6.9
		c0.5,1.1,1.7,1.6,3.5,1.7c0,0.6,0,1.1,0,1.7c-5.4,0-10.8-0.1-16.2-0.1c0-0.6,0-1.2,0-1.8c1.3,0,2.2-0.2,2.7-0.7
		c0.5-0.5,0.9-1.2,1.1-2.3c0.2-1.1,0.3-2.9,0.3-5.6c-0.1-9,0-18-0.1-27c0-9-0.1-18-0.1-27.1c-2.6-0.9-5.1-1.8-7.7-2.6
		c0,7.1,0,14.3,0.1,21.4c0,8.9-0.1,15.8-0.2,20.4c-0.2,4.7-0.7,9.1-1.6,13.3c-0.9,4.2-2,7.4-3.4,9.5c-1.4,2.2-3,3.3-4.7,3.3
		c-1.5,0-2.7-1-3.6-2.9c-0.9-2-1.3-4.4-1.3-7.2c0-2.4,0.3-4.3,0.8-5.8c0.5-1.5,1.3-2.2,2.3-2.1c1.8,0.1,2.8,2.8,3,8.1
		c0.1,2.4,0.5,3.5,1.3,3.5c1,0,2-1.5,3.1-4.5c1.1-3,1.9-7.1,2.2-12.3c0.4-5.2,0.5-12.8,0.4-22.8c0-4.5,0-9.1,0-13.6
		c0-3.9-0.1-6.5-0.4-7.9c-0.2-1.4-0.7-2.5-1.3-3.3c-0.6-0.8-1.7-1.5-3.3-2.1c0-0.6,0-1.3,0-1.9c8.7,3,17.5,6.2,26.2,9.6
		C364.9,174.8,364.9,175.3,364.9,175.9L364.9,175.9z M381.6,207.5c1.4,0.4,2.8,0.7,4.3,1.1c4.6,1.2,7.9,3.5,10,6.5
		c2,3,3.1,6.5,3.1,10.6c0,2.8-0.6,5.2-1.6,7.2c-1,2-2.4,3.5-3.9,4.5c-1.6,1-3.9,1.5-6.9,1.5c-5.8-0.1-11.5-0.1-17.2-0.2
		c0-0.5,0-1.1,0-1.6c2,0,3.3-0.5,3.8-1.5c0.6-1,0.8-3,0.8-6.2c0-6.7-0.1-13.5-0.1-20.2c0-6.7,0-13.5,0-20.2c0-4.4-0.3-7.1-0.7-8.3
		c-0.4-1.1-1.7-2.2-3.7-3c0-0.5,0-1.1,0-1.6c5.5,2.3,11.1,4.8,16.6,7.3c0,0.5,0,1,0,1.4c-1.5-0.7-2.5-0.9-3-0.6
		c-0.5,0.3-0.8,0.7-1.1,1.3c-0.2,0.6-0.3,2.4-0.3,5.2C381.6,196.3,381.6,201.9,381.6,207.5L381.6,207.5z M381.6,211.2
		c0,5.8,0,11.6,0,17.3c0,2.7,0.2,4.7,0.6,5.8c0.4,1.1,1.2,1.7,2.4,1.7c1.9,0.1,3.2-1,4.2-3c0.9-2,1.4-4.6,1.4-7.7
		c0-3-0.5-5.6-1.3-7.8c-0.8-2.2-1.8-3.7-2.9-4.5C385,212.3,383.6,211.6,381.6,211.2z"/>
	<path fill-rule="evenodd" clip-rule="evenodd" d="M205.4,107.2c0,0-1.2,8.2-4.4,13.5c-3.2,5.4-7.6,7.9-7.6,11.3
		c0,3.4,3.4,3.9,4.5,3.9s4.2,0.3,7.1-5.3C207.9,125.2,206.8,112.1,205.4,107.2z"/>
</g>
</svg>
