<?xml version="1.0" encoding="utf-8"?>
<!-- Generator: Adobe Illustrator 18.0.0, SVG Export Plug-In . SVG Version: 6.00 Build 0)  -->
<!DOCTYPE svg PUBLIC "-//W3C//DTD SVG 1.1//EN" "http://www.w3.org/Graphics/SVG/1.1/DTD/svg11.dtd">
<svg version="1.1" id="Layer_1" xmlns="http://www.w3.org/2000/svg" xmlns:xlink="http://www.w3.org/1999/xlink" x="0px" y="0px"
	 viewBox="0 0 128 128" enable-background="new 0 0 128 128" xml:space="preserve">
<g>
	<text transform="matrix(1 0 0 1 104.7943 78.5339)" font-family="'ArialMT'" font-size="5.3206">R</text>
	<path d="M95.8,80.3l-0.1-1.9h-0.6c-0.1,0.6-0.3,1-0.6,1.3c-0.1,0.1-0.1,0.1-0.2,0.2c-0.7-0.2-1.4-0.3-2.1-0.5c-1.4-0.6-2.8-1-4.2-1
		c-0.1,0-0.3,0-0.4,0c-2.7-0.5-5.5-0.9-8.2-1.2c-0.1-2.1-1.9-3.8-4-3.8c-1.9,0-3.5,1.4-3.9,3.2c-1.5-0.1-3-0.1-4.5-0.1
		c-1.9,0-3.7,0-5.6,0.1l12.9-9.6L56.3,39.4l-13,9.6l18.1,27.5c-7.2,0.2-14.6,0.8-21.5,2.7c-1.2-0.6-2.5-0.8-3.9-0.8
		c-2.9,0-5.4,1-7.5,3.1c-1.1,1.1-2,2.4-2.6,3.8l-7.6,4.1l0.1,0.1l7.5-4.1c-0.6,1.6-1,3.3-1,5.2c0,3.7,1,6.6,3.1,8.9
		c2.1,2.3,4.6,3.5,7.7,3.5c3,0,5.6-1.2,7.7-3.5c1.5-1.6,2.5-3.6,2.9-5.8v-6.1c-0.4-2.2-1.4-4.1-2.9-5.7c-1-1.1-2.2-2-3.4-2.6
		c8.7-2.3,18.1-2.7,27-2.7c1.5,0,3,0,4.5,0.1c0,0.2-0.1,0.5-0.1,0.7c0,2.2,1.8,4,4,4c2.2,0,4-1.8,4-4c0,0,0-0.1,0-0.1
		c2.6,0.3,5.1,0.7,7.7,1.1c-1.7,0.1-3.3,0.7-4.8,1.6c-1.7,1.1-3.1,2.6-4.1,4.6c-1,2-1.5,4.1-1.5,6.5c0,2.9,0.8,5.5,2.3,7.6
		c2,2.9,4.9,4.3,8.5,4.3c2,0,3.8-0.5,5.3-1.5c1.5-1,2.8-2.5,3.9-4.6l-0.5-0.3c-1.3,1.9-2.5,3.2-3.6,3.9c-1.1,0.7-2.4,1-3.8,1
		c-1.7,0-3.1-0.4-4.4-1.3c-1.3-0.8-2.3-2-2.9-3.6c-0.6-1.6-1-3.4-1-5.5c0-2.6,0.3-4.7,1-6.5c0.7-1.7,1.6-3,2.8-3.8
		c1.2-0.8,2.5-1.2,4-1.2c1.8,0,3.3,0.5,4.5,1.6c1.2,1.1,2.2,2.8,2.9,5.2h0.5l-0.4-6c4.7,1.3,9.1,3,13.2,5l0.1,0l0.1-0.1l-0.1,0
		C105,83.2,100.5,81.6,95.8,80.3z M42.9,91c0,3.7-0.7,6.4-2,8.2c-1.4,1.7-3.1,2.6-5.2,2.6c-2,0-3.5-0.8-4.7-2.4
		c-1.5-2.1-2.3-5-2.3-8.9c0-3.8,0.7-6.6,2.2-8.5c1.2-1.6,2.8-2.3,4.8-2.3c2.1,0,3.8,0.8,5,2.4C42.2,84,42.9,87,42.9,91z M93.8,80
		c-0.2,0-0.5-0.1-1-0.4c0,0-0.1,0-0.1-0.1c0.5,0.1,1,0.2,1.5,0.4C94,80,93.9,80,93.8,80z"/>
	<polygon points="48.8,65.3 39.7,51.5 26.8,61.2 35.9,74.9 	"/>
	<polyline points="73,27 60.1,36.6 87.3,77.9 87.3,77.9 87.3,77.9 98.7,69.5 98.7,69.5 100.3,68.3 73.1,27 	"/>
	<path d="M46.4,93.6v4.8c0,1.3-0.1,2.2-0.4,2.5c-0.4,0.6-1.1,0.9-2,0.9h-0.8v0.6H51v-0.6h-0.8c-0.9,0-1.5-0.2-1.9-0.7
		c-0.3-0.4-0.4-1.3-0.4-2.7V82.6l8.6,19.8h0.5l8.5-19.8v15.7c0,1.3-0.1,2.2-0.4,2.5c-0.4,0.6-1,0.9-2,0.9h-0.8v0.6h9.1v-0.6
		c0.1,0,0.2,0,0.3,0v0H71c-0.9,0-1.5-0.2-1.9-0.7c-0.3-0.4-0.5-1.3-0.5-2.7V83c0-1.3,0.1-2.2,0.4-2.5c0.4-0.6,1.1-0.9,2-0.9h0.8
		v-0.6h-6.3l-6,13.9l-2,4.6L55.2,92l-5.7-13.1h-6.3v0.6c0.9,0,1.6,0.1,2,0.3c0.4,0.2,0.7,0.5,0.8,0.8c0.2,0.5,0.3,1.2,0.3,2.3v4.6
		c0.2,0.9,0.3,1.9,0.3,3C46.7,91.6,46.6,92.6,46.4,93.6z"/>
	<path d="M78.7,102.5v-0.6c-0.7,0-1.2-0.1-1.5-0.2c-0.3-0.2-0.5-0.4-0.6-0.7c-0.1-0.3-0.2-1-0.2-2V86.1h-0.7L71.2,88l0.2,0.6
		c0.4-0.2,0.8-0.3,1.1-0.3c0.3,0,0.5,0.1,0.7,0.2c0.2,0.1,0.3,0.4,0.4,0.8c0.1,0.5,0.1,1.6,0.1,3.4v6.1c0,1-0.1,1.6-0.2,2
		c-0.1,0.4-0.3,0.6-0.6,0.7c-0.2,0.1-0.6,0.2-1.1,0.2v0.6H78.7z"/>
	<ellipse cx="106.7" cy="76.5" rx="2.9" ry="3"/>
</g>
</svg>
