<?xml version="1.0" encoding="utf-8"?>
<!-- Generator: Adobe Illustrator 18.0.0, SVG Export Plug-In . SVG Version: 6.00 Build 0)  -->
<!DOCTYPE svg PUBLIC "-//W3C//DTD SVG 1.1//EN" "http://www.w3.org/Graphics/SVG/1.1/DTD/svg11.dtd">
<svg version="1.1" id="Layer_1" xmlns="http://www.w3.org/2000/svg" xmlns:xlink="http://www.w3.org/1999/xlink" x="0px" y="0px"
	 viewBox="0 0 128 128" enable-background="new 0 0 128 128" xml:space="preserve">
<g>
	<path fill="#E91E63" d="M40.9,46.7c14,0.2,28-0.2,42.1,0.2c0,0.7,0.1,1.2,0.1,1.8c0.2,10.9,0.4,21.7,0.7,32.6
		c0.1,3.4,0.2,6.8,0.2,10.1c0,0.3-0.1,0.7-0.3,1c-1.2,1.7-2.4,3.4-3.7,5.2c0.3,0.2,0.6,0.4,1,0.7c1.4-1.9,2.7-3.8,4.1-5.7
		c1.8,1.3,3.5,2.6,5.3,3.9c0.2-0.3,0.5-0.6,0.7-1c-1.6-1.2-3.1-2.3-4.7-3.4c-0.4-0.3-0.6-0.6-0.6-1.2c-0.1-5.8-0.2-11.7-0.4-17.5
		c-0.2-8.4-0.4-16.8-0.6-25.2c0-0.4,0-0.8,0-1.2c1.4-0.4,2.7-0.8,4.1-1.3c0.2,2.6,0.4,5.2,0.6,7.9c0.4,5.8,0.9,11.5,1.3,17.3
		c0.4,5.1,0.7,10.2,1.1,15.2c0.2,3.4,0.5,6.8,0.8,10.2c0,0.5-0.1,0.8-0.6,0.9c-4,1.2-8,2.4-12,3.5c-0.3,0.1-0.7,0.2-1.1,0.1
		c-8.2-0.3-16.3-0.6-24.5-0.8c-5.1-0.2-10.1-0.3-15.2-0.5c-1.4,0-2.7-0.1-4.2-0.2C37,81.9,38.9,64.4,40.9,46.7z M77,98.7
		c0-16.6,0-33.1,0-49.6c-0.3,0-0.5,0-0.8,0c-10.9,0-21.8,0-32.6,0c-0.7,0-0.8,0.2-0.9,0.8c-0.4,4.2-0.9,8.4-1.4,12.6
		c-0.6,5.1-1.2,10.3-1.7,15.4c-0.6,5.3-1.2,10.6-1.8,15.8c-0.1,1.2-0.3,2.4-0.4,3.7C50.8,97.8,63.9,98.2,77,98.7z"/>
	<path fill="#1976D2" d="M56.7,43.3c-1.8,0.3-2.4,0-2.7-1.3c-0.2-0.7,0.2-1.6,1.1-2.1c1.7-1,3.5-2,5.2-3c2.6-1.5,5.2-3,7.7-4.5
		c0.2-0.1,0.3-0.2,0.5-0.3c1.5-0.8,2.3-0.6,3.1,0.9c0.7,1.2,1.4,2.4,2.1,3.7c1.2,2,2.3,4,3.5,6c0.1,0.2,0.2,0.4,0.3,0.7
		c-1.4,0.4-1.8,0.2-2.5-0.9c-1.6-2.7-3.2-5.5-4.8-8.2c-0.4-0.6-0.6-0.7-1.3-0.4c-4.2,2.5-8.4,4.9-12.6,7.3c-0.6,0.3-0.8,0.6-0.3,1.2
		C56.3,42.6,56.5,42.9,56.7,43.3z"/>
	<path fill="#1976D2" d="M59.1,34.9C59,34.8,59,34.7,59,34.7c-0.1-1.2-0.1-1.2-1.4-1.2c-3.4,0-6.7,0-10.1,0c-0.7,0-0.9,0.2-0.9,0.9
		c0,2.8,0,5.5,0,8.3c0,0.6-0.1,0.9-0.8,0.9c-0.6,0-1,0-0.9-0.8c0-3,0-6,0-9c0-1.2,0.7-2,1.9-2c3.9,0,7.8,0,11.8,0c1,0,1.7,0.5,2,1.3
		c0.2,0.6,0.1,1.1-0.5,1.4C59.8,34.5,59.4,34.7,59.1,34.9z"/>
	<path fill="#1976D2" d="M82.3,31.7c0.4-1.8,0.7-3.6,1.1-5.4c0-0.2,0.4-0.4,0.6-0.3c0.9,0.2,1.9,0.4,2.8,0.6
		c0.4,0.1,0.6,0.3,0.5,0.7c-0.1,0.5-0.2,1-0.5,1.4c-1.1,1.5-2.8,2.1-4.3,3.1C82.4,31.8,82.4,31.7,82.3,31.7z"/>
	<path fill="#1976D2" d="M85.4,38.1c0,1.3-0.4,2.3-1.4,2.9c-1.1,0.8-2.3,1.5-3.4,2.2C80,41.3,82.2,38.9,85.4,38.1z"/>
	<path fill="#1976D2" d="M81.5,37.5c-0.1-1.8,0.7-2.7,1.9-3.4c0.9-0.5,1.8-1,2.8-1.6c0.3,1.1,0,1.9-0.8,2.5
		C84.1,35.8,82.8,36.6,81.5,37.5z"/>
	<path fill="#1976D2" d="M60.1,58.7c0.1-1.2,0-2.3,0.2-3.5c0.2-0.8,0.7-1.6,1.1-2.3c0.3-0.4,0.8-0.5,1.3-0.3c0.6,0.3,1,1,0.9,1.6
		c-0.1,0.9-0.6,1.4-1.5,1.5c-0.6,0-0.6,0.3-0.6,0.7c0,2.2,0,4.4-0.2,6.6c-0.1,1.7-0.6,3.4-2.1,4.5c-2.2,1.6-5.2,1-6.9-1.4
		c-1.1-1.6-1.6-3.4-1.9-5.2c-0.2-1.5-0.2-3.1,0.1-4.6c0.3-1.4,1.3-2.3,2.1-3.3c0.5-0.7,1.7-0.3,2,0.5c0.4,1.1-0.1,2-1.2,2.2
		c-1.1,0.2-1.7,0.7-1.7,1.9c-0.1,2.5,0.3,4.8,1.4,7.1c0.8,1.6,2.3,2.5,3.9,2.2c1.2-0.2,2-1,2.3-2.1c0.3-1.2,0.5-2.5,0.6-3.8
		C60.2,60.3,60.2,59.5,60.1,58.7C60.1,58.7,60.1,58.7,60.1,58.7z"/>
</g>
</svg>
