<?xml version="1.0" encoding="utf-8"?>
<!-- Generator: Adobe Illustrator 18.0.0, SVG Export Plug-In . SVG Version: 6.00 Build 0)  -->
<!DOCTYPE svg PUBLIC "-//W3C//DTD SVG 1.1//EN" "http://www.w3.org/Graphics/SVG/1.1/DTD/svg11.dtd">
<svg version="1.1" id="Layer_1" xmlns="http://www.w3.org/2000/svg" xmlns:xlink="http://www.w3.org/1999/xlink" x="0px" y="0px"
	 viewBox="0 0 400 400" enable-background="new 0 0 400 400" xml:space="preserve">
<g>
	<polygon fill-rule="evenodd" clip-rule="evenodd" points="344.1,180.5 359.3,180.5 370.4,210.4 371,210.4 377.2,180.5 395,180.5 
		383.1,239.2 364.1,239.2 353.1,209.8 352.3,209.8 346.2,239.3 334.1,239.3 	"/>
	<path fill-rule="evenodd" clip-rule="evenodd" d="M46.6,203.8c6.3,0,12.6,0,18.9,0c0-5.6,0.7-9.6-1.8-14.4c-4-5.5-7.5-7.4-14.1-9.8
		c-4.6-1.1-9.8-1-14.5,0c-8.5,2-14,5.1-20.4,11.2C10,195.6,6.5,204,5,210.4c0,26.4,4.6,30.7,30.6,30.7c8.7-1.6,12.3-3.5,18.7-9.9
		c4-4,8.4-8.9,8.4-14.8c-6.5,0-12.9,0-19.4,0c0,2.1-0.8,4.8-2.5,6c-14.4,8-19.4-2.2-14.2-16.2c0.4-0.9,0.7-1.8,1.1-2.8
		c0.3-0.6,0.6-1.2,0.9-1.8c0.3-0.5,0.6-1,0.9-1.6c1.6-2.1,1.8-2.2,4-3.6C40.3,192.2,46.3,195.3,46.6,203.8z"/>
	<polygon fill-rule="evenodd" clip-rule="evenodd" points="76.5,180.7 95.9,180.7 87.2,223.1 103.3,223.1 93.9,239.4 63.3,239.4 	
		"/>
	<path fill-rule="evenodd" clip-rule="evenodd" d="M153.3,180.8h-19.3l-33,58l0,0.4l19.6-0.1l3.3-7.3h17.9l0.4,7.3h19.2L153.3,180.8
		z M131.4,218.5l-0.7,0l-0.1-0.1l-0.1-0.1l8.2-16.8h1.2l0.5,17L131.4,218.5z"/>
	<path fill-rule="evenodd" clip-rule="evenodd" d="M202.9,197.8c6,0,12,0,18,0c-0.1-8.5,1-8.8-5-14.7c-2.6-1.9-3.6-2.4-6.6-3.5
		c-5.3-1.3-9.8-0.9-15.3-0.9c-13.9,2.1-27.9,13.1-23.1,28.6c2,2.9,2.4,3.3,5.2,5.5c2.9,1.8,3.6,2.1,6.9,3c2.1,0.5,4.1,1,6.2,1.5
		c1.3,0.3,2.7,0.7,4,1c0.8,0.3,1.6,0.7,2.4,1c1.8,1.2,3.9,3.9,0.8,5.1c-0.5,0.2-1,0.4-1.5,0.6c-3.6,0.9-4.2,1.5-7.8,0.2
		c-2.6-1.3-3-2.2-3.9-4.9c-6,0-12.1,0-18.1,0c-0.2,0-0.5,0-0.7,0c0,4.1,0.1,5.1,1.1,9c0.9,3.4,0.6,2.9,3.1,5.4
		c9.3,7.8,26,7.3,36.6,2.3c9.4-5.1,17.2-18.2,10.6-28.4c-0.8-0.7-1.6-1.4-2.4-2c-1.4-0.7-2.8-1.3-4.2-2c-1.7-0.7-3.4-1.3-5.2-2
		c-1.4-0.4-2.8-0.7-4.2-1.1c-1.7-0.5-3.5-0.9-5.2-1.4c-2.4-0.8-2.7-0.6-4.4-2.5c-1.7-2.5,3-4.1,4.8-4.4c1.1-0.1,2.1-0.1,3.2-0.2
		C201.6,193.9,202.1,194.2,202.9,197.8z"/>
	<path fill-rule="evenodd" clip-rule="evenodd" d="M342.6,177.5c-0.5-1.4-0.9-2.9-1.4-4.3c1.8-0.7,5.5-7.3,6.5-9.3
		c1.4-3.2,2.6-4.3,2.7-7.8c-1-0.8-1.9-1.5-2.9-2.3c-0.5-1.5-0.3-1.1-2-0.9c0.1-1.4-2.7-3.5-2.7,3.3c-0.5,1.4-1,2.8-1.6,4.2
		c-0.5,1.2-0.9,2.4-1.4,3.6c-0.7,1.2-1.3,2.3-2,3.5c-3.1,0.2-10.7-3.3-14.6-4.5c-2.2-0.7-4.3-1.4-6.5-2.1c-4-1.1-7.1-1.6-11.2-2.2
		c-6.3,0-9.3,0.3-15,2.8c-8,3.6-14.6,9.3-19.7,16.3c-0.7,1.2-1.4,2.4-2,3.6c-2.8,5.3-5.2,11.1-7.7,16.6c0,0.1-0.1,0.2-0.1,0.2
		c-0.3,1.6-0.6,3.1-0.8,4.7v0c-0.8,13.2-0.9,23.7-2.6,35.5c-0.5,3.6-1.1,7.3-2,11.2c-2.3,11.1-14.6,16.9-4.3,16.9
		c8.5-1.9,16.9-3.8,25.4-5.7c4.7-1,9.5-2,14.2-2.9c4.3-1,8.6-2.1,12.9-3.1c8.6-2.3,12.3-3.9,20.3-7.9c4.1-2.8,5.9-4.2,9.4-7.8
		c0.2-0.2,0.4-0.3,0.5-0.5c18.1-17.4,17.5-36.6,9.8-57.8C343.6,179.9,343.1,178.7,342.6,177.5z M331,195.6h-27.8l-1.6,6.7h23.2
		l-2.1,14.2h-24.5l-1.4,7.4h28.9l-3,15.3h-48.6l11.8-58.4l47.9-0.3L331,195.6z"/>
	<path fill-rule="evenodd" clip-rule="evenodd" d="M258.7,198.3c6,0,12,0,18,0c-0.1-8.5,1-8.8-5-14.7c-2.6-1.9-3.6-2.4-6.6-3.5
		c-5.3-1.3-9.8-0.9-15.3-0.9c-13.9,2.1-27.9,13.1-23.1,28.6c2,2.9,2.4,3.3,5.2,5.5c2.9,1.8,3.6,2.1,6.9,3c2.1,0.5,4.1,1,6.2,1.5
		c1.3,0.3,2.7,0.7,4,1c0.8,0.3,1.6,0.7,2.4,1c1.8,1.2,3.9,3.9,0.8,5.1c-0.5,0.2-1,0.4-1.5,0.6c-3.6,0.9-4.2,1.5-7.8,0.2
		c-2.6-1.3-3-2.2-3.9-4.9c-6,0-12.1,0-18.1,0c-0.2,0-0.5,0-0.7,0c0,4.1,0.1,5.1,1.1,9c0.9,3.4,0.6,2.9,3.1,5.4
		c9.3,7.8,26,7.3,36.6,2.3c9.4-5.1,17.2-18.2,10.6-28.4c-0.8-0.7-1.6-1.4-2.4-2c-1.4-0.7-2.8-1.3-4.2-2c-1.7-0.7-3.4-1.3-5.2-2
		c-1.4-0.4-2.8-0.7-4.2-1.1c-1.7-0.5-3.5-0.9-5.2-1.4c-2.4-0.8-2.7-0.6-4.4-2.5c-1.7-2.5,3-4.1,4.8-4.4c1.1-0.1,2.1-0.1,3.2-0.2
		C257.4,194.4,257.9,194.7,258.7,198.3z"/>
</g>
</svg>
