<?xml version="1.0" encoding="utf-8"?>
<!-- Generator: Adobe Illustrator 18.0.0, SVG Export Plug-In . SVG Version: 6.00 Build 0)  -->
<!DOCTYPE svg PUBLIC "-//W3C//DTD SVG 1.1//EN" "http://www.w3.org/Graphics/SVG/1.1/DTD/svg11.dtd">
<svg version="1.1" id="Layer_1" xmlns="http://www.w3.org/2000/svg" xmlns:xlink="http://www.w3.org/1999/xlink" x="0px" y="0px"
	 viewBox="0 0 128 128" enable-background="new 0 0 128 128" xml:space="preserve">
<g>
	<path fill="#1976D2" d="M97,91c0,1.7,0,3.3,0,5.1c1.1,0,2.1,0,3.2,0c1.3,0,1.8,0.5,1.8,1.8c0,0.4,0,0.8,0,1.3
		c0,1.4-0.5,1.9-1.9,1.9c-4.4,0-8.8,0-13.1,0c-19.3,0-38.7,0-58,0c-1.6,0-2-0.4-2-2c0-0.5,0-0.9,0-1.4c0-1,0.5-1.5,1.6-1.6
		c1.1,0,2.2,0,3.4,0c0-1.7,0-3.3,0-5.1c-1.1,0-2.1,0-3.2,0c-1.3,0-1.8-0.5-1.8-1.8c0-0.5,0-0.9,0-1.4c0-1.2,0.5-1.7,1.8-1.7
		c4.6,0,9.2,0,13.8,0c19.1,0,38.3,0,57.4,0c1.6,0,2,0.4,2,2c0,0.4,0,0.8,0,1.3c0,1.1-0.5,1.6-1.6,1.6C99.3,91,98.2,91,97,91z M57,91
		c-4.2,0-8.3,0-12.5,0c0,1.7,0,3.3,0,5c4.2,0,8.3,0,12.5,0C57,94.3,57,92.7,57,91z M72,91c0,1.7,0,3.3,0,5c4.2,0,8.3,0,12.5,0
		c0-1.7,0-3.3,0-5C80.3,91,76.2,91,72,91z"/>
	<path fill="#E91E63" d="M79.5,58.5c0,2.5,0,4.9,0,7.3c0.1,0,0.1,0.1,0.2,0.1c0.7-0.8,1.4-1.7,2.3-2.7c0.9,1.1,1.6,1.9,2.4,2.7
		c0.1,0,0.1-0.1,0.2-0.1c0-2.4,0-4.8,0-7.3c0.3,0,0.6,0,0.8,0c2.5,0,5,0,7.5,0c2.5,0,4.2,1.7,4.2,4.2c0,5.5,0,11,0,16.6
		c0,2.5-1.7,4.2-4.2,4.2c-7.2,0-14.4,0-21.7,0c-2.4,0-4.1-1.7-4.1-4.1c0-5.6,0-11.2,0-16.7c0-2.4,1.7-4.1,4.1-4.1
		C73.9,58.5,76.6,58.5,79.5,58.5z"/>
	<path fill="#E91E63" d="M62,31.1c0,2.4,0,4.8,0,7.2c0.1,0,0.1,0.1,0.2,0.1c0.7-0.8,1.4-1.7,2.3-2.6c0.9,1,1.7,1.8,2.4,2.7
		c0.1,0,0.1-0.1,0.2-0.1c0-2.4,0-4.8,0-7.3c1.5,0,2.9,0,4.2,0c1.4,0,2.8,0,4.2,0c2.2,0,4,1.7,4,3.9c0,5.7,0,11.4,0,17.1
		c0,2.1-1.8,3.9-3.9,3.9c-7.3,0-14.7,0-22,0c-2.3,0-4-1.7-4-4c0-5.6,0-11.3,0-16.9c0-2.2,1.6-4,3.8-4c2.8-0.1,5.5,0,8.3,0
		C61.7,31,61.8,31.1,62,31.1z"/>
	<path fill="#E91E63" d="M44.5,58.5c0,2.5,0,4.9,0,7.5c0.8-1,1.6-1.8,2.4-2.7c0.9,1,1.7,1.8,2.4,2.7c0.1-0.1,0.2-0.1,0.2-0.2
		c0-2.4,0-4.8,0-7.3c0.4,0,0.6,0,0.9,0c2.4,0,4.8,0,7.3,0c2.7,0,4.3,1.6,4.3,4.3c0,5.5,0,11,0,16.5c0,2.5-1.7,4.2-4.2,4.2
		c-7.2,0-14.5,0-21.7,0c-2.3,0-4-1.7-4.1-4.1c0-5.6,0-11.3,0-16.9c0-2.1,1.6-3.9,3.7-4C38.6,58.5,41.5,58.5,44.5,58.5z"/>
</g>
</svg>
