<?xml version="1.0" encoding="utf-8"?>
<!-- Generator: Adobe Illustrator 18.0.0, SVG Export Plug-In . SVG Version: 6.00 Build 0)  -->
<!DOCTYPE svg PUBLIC "-//W3C//DTD SVG 1.1//EN" "http://www.w3.org/Graphics/SVG/1.1/DTD/svg11.dtd">
<svg version="1.1" id="Layer_1" xmlns="http://www.w3.org/2000/svg" xmlns:xlink="http://www.w3.org/1999/xlink" x="0px" y="0px"
	 viewBox="0 0 136 114" enable-background="new 0 0 136 114" xml:space="preserve">
<g>
	<polygon fill="#FFFFFF" points="57.8,67.8 63.7,71.4 59.4,82.5 101.4,60.3 101.2,61.2 47.4,95.8 	"/>
	<path fill="#FFFFFF" d="M118,49.7l-30.1,1.5l16.5,44.4l-51.5-33v-5.1l51.2,37.8l-21.3-44l-11.6,0.4l-1.2,3.9h13.4l3,6.2L60.8,62
		l3.5-10.1l-26.3,1l-6.1-3.8h33.5l10.6-30.9l11.4,30.9L118,49.7z M71.9,49.2h9.8l-6-12.3L71.9,49.2z"/>
	<polygon fill="#FFFFFF" points="47.5,51.9 51.8,51.9 51.8,75.7 47.5,89.9 	"/>
	<path fill="#FFFFFF" d="M117.6,58.7c0,1.8-0.5,3.3-1.5,4.3c-1.4,1.6-4.5,2.4-7.4,2.4h-6.1V86l-4-12.3v-18L93.3,52h15.5
		c3.1,0,6.2,0.9,7.6,2.7C117.2,55.8,117.6,57.1,117.6,58.7L117.6,58.7z M112.6,58.7c0-1.2-0.4-2-1.3-2.4c-0.6-0.3-1.3-0.4-2.2-0.4
		h-6.4v5.7h6.4c1.2,0,2.1-0.3,2.7-0.7C112.3,60.3,112.6,59.6,112.6,58.7L112.6,58.7z"/>
	<path fill="#FFFFFF" d="M45.8,66.9v-7.8c-7.5,7.7-20.7,3.5-21-5.9c-0.2-9.4,13.8-13.4,21-5.5v-7.8L43,41.7
		c-5.7-3.3-15.4-2.6-20.3,1.9c-6.3,5.7-6.2,13.7,0.1,19.5c4.9,4.5,14,5.6,20.3,2.1L45.8,66.9z"/>
	<path fill="#FFFFFF" d="M104.5,40l-2.5-3.8l-1.5-1.1h4.7l-0.9,1.1l1.3,1.9l1-1.7l-1.2-1.3h4l-1.4,1.4l-2.2,3.8
		c-0.2,0.3-0.4,0.6-0.6,0.9c-0.2,0.3-0.5,0.5-0.7,0.7c-0.2,0.2-0.5,0.3-0.7,0.3l-0.3,0.1l-0.3,0.1h-0.2c-0.1,0-0.3,0-0.4-0.1
		c-0.1,0-0.4-0.1-0.8-0.4c-0.1,0-0.1-0.1-0.2-0.3c0-0.2-0.1-0.3-0.1-0.5c0-0.3,0-0.6,0.1-0.9s0.2-0.6,0.3-0.9
		c0.2-0.3,0.3-0.5,0.6-0.7v0.1v0.1c0,0.1,0,0.2,0.1,0.4c0,0.1,0,0.2,0,0.3c0,0.1,0,0.1,0,0.2c0.1,0.4,0.3,0.6,0.5,0.8
		c0.1,0.1,0.2,0.2,0.3,0.2c0.1,0.1,0.2,0.1,0.3,0.1l0,0l0,0c0.1,0,0.3,0,0.4-0.1l0.1-0.1l0.1-0.1C104.5,40.2,104.5,40.1,104.5,40
		L104.5,40z"/>
	<path fill="#FFFFFF" d="M115.7,40.8h0.8v2.5l-1.3-1.3h-6.5l-1.3,1.3v-2.5h1.2l2.1-4.6l-1-1.1h4.4l-0.7,1.1L115.7,40.8z M109.7,40.8
		h3.7l-2-4L109.7,40.8z"/>
	<path fill="#FFFFFF" d="M100.3,40c0.1-0.4,0.2-0.8,0.2-1.3v-0.1c0-0.4,0-0.8-0.1-1.2c-0.1-0.3-0.2-0.7-0.4-0.9
		c-0.4-0.5-0.8-0.9-1.3-1.1l0,0l0,0c-0.3-0.1-0.6-0.3-0.9-0.4c-0.2-0.1-0.4-0.1-0.7-0.1l0,0l-1.6-0.3h-3.2v-4h5.1l2.1,1.8V29H88
		l1.9,2.4v8.1L88,42h9.4l0.5-0.1l0.5-0.1l0.6-0.1c0.2,0,0.4-0.1,0.5-0.3c0.2-0.2,0.4-0.4,0.5-0.6c0.1-0.2,0.2-0.3,0.2-0.5
		C100.2,40.4,100.3,40.2,100.3,40L100.3,40z M92.4,40.7v-4.3H96c0.4,0,0.7,0.2,1,0.6c0.3,0.4,0.4,1.1,0.4,1.7c0,0.7-0.2,1.3-0.6,1.7
		c-0.4,0.3-0.7,0.5-1.2,0.5L92.4,40.7L92.4,40.7z"/>
</g>
</svg>
