<?xml version="1.0" encoding="utf-8"?>
<!-- Generator: Adobe Illustrator 18.0.0, SVG Export Plug-In . SVG Version: 6.00 Build 0)  -->
<!DOCTYPE svg PUBLIC "-//W3C//DTD SVG 1.1//EN" "http://www.w3.org/Graphics/SVG/1.1/DTD/svg11.dtd">
<svg version="1.1" id="Layer_1" xmlns="http://www.w3.org/2000/svg" xmlns:xlink="http://www.w3.org/1999/xlink" x="0px" y="0px"
	 viewBox="0 0 128 128" enable-background="new 0 0 128 128" xml:space="preserve">
<g>
	<path fill-rule="evenodd" clip-rule="evenodd" d="M58.8,106.1c-1.2,0.4-1.8,1.2-3.2,1.3c-0.7-3.6-1.6-6.9-2.8-10.1
		c-0.9-2.3-1.8-4.2-2.7-5.8c-3.1-5.3-6.2-8.1-9-10.7c-1.7-1.6-3.9-2.9-4.7-5.1c-1.7-4.9,4.4-2.8,6.3-1.1c5.1,4.6,10.7,5.8,16.2,5.8
		c5.5,0,10.7-1.4,14.4-3c3.4-1.5,6.3-3.6,8.8-6.3c6.2-6.5,10.6-19.7,5.8-31.8c-3.4-8-9.5-13.1-14-15.4c-10.2-5.3-20.2-2.5-27.1,1.6
		C41.4,28.8,35.6,36,34.7,45.9c-0.6,6.7,0.7,12.5,5.3,18.2c3.7,4.5,8.5,7.2,13.1,8.4c4.3,1.1,8.7,1,13.3-0.6c5.7-2,6-4.5,6-6.3
		c0-1.8-0.8-4.6-6-4.7c-4.8-0.3-9.8,0.9-14.6,0.5c-4.8-0.5-6.5-3.3-6.8-4.9c-0.3-1.7,0.6-4.1,4.4-5.2c3.8-1.1,6.5-1.9,6.5-2.7
		c0.1-1.3-3-1.7-5.6-3.8c-1.6-1.4-1.9-2.8-1.8-4.2c0.3-3.4,2.2-3.2,3.8-6c1.4-2.7,0.5-7.3,3-8.8c2-1.2,4.3,0,7-0.3
		c2.3-0.3,2.2-2.5,4.3-2.7c1.1-0.1,2.3,0.1,3.6,0.7c1.9,0.8,3.7,2.1,5.5,4.4c9.4,13.1,12.2,28.7,1.5,41c-7.3,8.5-30,14.8-43.3-7.3
		C26,46,34.3,29.8,45.3,22.8c12.4-7.9,32.9-7.5,44.4,11.5c6.1,11.9,3.3,26.3-2.8,34.9C77,82.8,55.9,87.6,42.4,76.7
		c-5.2-4.1-4.8-1.6-0.8,1.8C47,83.4,51.4,88,54.3,93C56.8,97.2,58.2,101.6,58.8,106.1L58.8,106.1z M63.6,28.9
		c-3.3-1.6-5.3-1.5-6.2-0.7c-1,1-0.8,2.8,1.4,5.6c1.7,2.2,1.3,4.6-1.9,4.9c-3.5,0.4-5.1,0.5-5.2,2.3c-0.1,1.9,2,2.7,5.7,4.5
		c3.6,1.6,3.3,5.1-0.5,6.3c-5.1,1.5-6.8,2.6-6.6,3.8c0.1,1,2.6,3,6.9,2.9c3.7-0.1,7.1-0.4,10.8-0.3c2.8,0.1,4.3,1,7.1,1
		c0.8,0,1.4-0.3,2,0.1c1.7,1.4,0.1,3.7-2.2,4.8c-1.1,0.7-0.8,2.4-0.6,4.2c9.4-8.4,9.8-25.7-3.1-41c-1.8-2.2-2.8-1.8-3.5,1
		C67.2,30.3,64.7,29.5,63.6,28.9z"/>
	<path fill-rule="evenodd" clip-rule="evenodd" d="M64.1,89.3c3.1-1.2,3.4,0.3,1.4,1.7c-4,2.7-5.6,3.9-5,6c0.5,1.8,3.9,1.8,7.1,0.3
		c-1-2-0.8-4.1-0.4-5.8c0.5-1.8,1.8-3.1,3.8-3.4c3.3-0.3,3.5,3.4,3.1,5.2c-0.3,1.4-1,3.1-2.8,4.2c1.6,2.8,3.5,5.5,4.9,8.4
		c-0.7,1.1-1.8,1.7-3.2,2c-1.4-3-2.9-5.9-4.3-8.9c-4.6,2.7-9.6,1.6-10.7-0.8C56.8,96.1,59,91.4,64.1,89.3L64.1,89.3z M70.2,95.2
		c1.8-1.9,2.6-4.7,1.1-5.2C69.2,89.2,68.3,93.6,70.2,95.2z"/>
	<path fill-rule="evenodd" clip-rule="evenodd" d="M81.9,87.5c0,2.1-1.4,3.7-3.6,4.2c-3,0.7-4.7-1.4-4.5-4.1
		C74.2,82,82,82.3,81.9,87.5L81.9,87.5z M80,87.3c0.1-2.4-3.6-2.6-3.8,0c-0.1,1.2,0.7,2.2,2.1,1.9C79.3,89.1,80,88.3,80,87.3z"/>
	<path fill-rule="evenodd" clip-rule="evenodd" d="M79.8,81.9c0.3-0.5,1-0.8,1.6-0.8c1.2,2.2,2.1,4.3,3.4,6.1
		c-0.5,0.6-0.8,0.8-1.5,1.1C82.2,86.1,80.9,84,79.8,81.9z"/>
	<path fill-rule="evenodd" clip-rule="evenodd" d="M87,78.2c1.7-0.3,2.4,0.9,0.2,1.7c-0.7,0.3-1.5,0.6-1.9,1.1
		c-1.3,2.1,1.7,4.9,3.9,0.3c0.7-1.5,0.6-2.9,0.4-4.8c-0.1-1,1-1.6,1.6-1.2c1,0.6,1.7,1,2.7,1.7c0.5,0.3,0.8,0.3,0.7-0.4
		c-0.1-1.4-0.3-2.2-0.4-3.6c-0.1-0.9,0.8-1.1,1.4-0.5c0.3,0.3,0.6,1,0.8,1.7c1.3,7.7,6.9,14.6,5.9,17.4c-0.8,2.3-4.1,2.3-4.9,0.3
		c-0.7-1.6-0.2-2.6,0.1-3.8c1.3-5.2,2.3-9,2.6-13.6c0.1-1.1,0-0.8-0.3-1.6c-0.1-0.5-0.4-1.4,0.2-1.3c0.8,0.2,1.3,0.3,1.2-0.5
		c-0.1-1.3-1.9-1.4-2.3-0.1c-1.4,3.9,4.1,5.7,4.8,0.4c0.4-4,1.8-2,1.4,0.2c-1.5,8.2-9.2,6-7.7-0.3c0.6-2.2,2-3,3.5-3
		c1.1,0,2.8,0.9,1.8,2.9c-1.8,2.9-0.9,3.4-1.2,5.3c-0.7,4-1.8,7.7-2.4,12.1c-0.1,1.2,0.1,2.2,0.7,2.2c0.6,0,0.8-0.5,0.4-1.7
		c-0.9-3-2.1-5.7-3.3-8.6c-0.1-0.2-0.5-1.8-0.9-2c-0.3-0.1-0.3,0.2-0.4,0.8c0,0.5-0.3,0.5-0.7,0.5c-0.3,0-0.7-0.1-1-0.3
		c-0.7-0.3-1.3-1-2.1-1.2c0.1,3.2-1.2,5.1-2.4,6.1c-1.5,1.3-4.3,1.9-5.7-0.1c-1-1.4-0.3-3.4,0.5-4.3C84.7,79.1,85.7,78.4,87,78.2z"
		/>
	<path fill-rule="evenodd" clip-rule="evenodd" d="M98.9,82c-0.4,0.7-0.5,1.5-0.5,2.3c0.2,1,0.5,1.8,0.9,2.3
		c0.4-0.8,0.7-1.6,0.5-2.8C99.6,83.2,99.4,82.5,98.9,82z"/>
	<path fill-rule="evenodd" clip-rule="evenodd" d="M100,74.5c0.5-0.2,1-0.1,1.4,0.1c0.1,0.8,0,1.5-0.1,2.2c-0.5,0.1-1,0.1-1.5,0
		C99.7,76.1,99.7,75.3,100,74.5z"/>
</g>
</svg>
