<?xml version="1.0" encoding="utf-8"?>
<!-- Generator: Adobe Illustrator 18.0.0, SVG Export Plug-In . SVG Version: 6.00 Build 0)  -->
<!DOCTYPE svg PUBLIC "-//W3C//DTD SVG 1.1//EN" "http://www.w3.org/Graphics/SVG/1.1/DTD/svg11.dtd">
<svg version="1.1" id="Layer_1" xmlns="http://www.w3.org/2000/svg" xmlns:xlink="http://www.w3.org/1999/xlink" x="0px" y="0px"
	 viewBox="0 0 32 32" enable-background="new 0 0 32 32" xml:space="preserve">
<g>
	<path fill="#FFFFFF" d="M16,0C7.2,0,0,7.2,0,16s7.2,16,16,16c8.8,0,16-7.2,16-16S24.8,0,16,0z M23,14.4V20c0,1.4-1.4,3-2.8,3h-8.3
		C10.4,23,9,21.4,9,20v-5.6v-2.8C9,10.2,10.4,9,11.8,9h8.3c1.4,0,2.8,1.2,2.8,2.6V14.4z"/>
	<path fill="#FFFFFF" d="M16,18.2c1.3,0,2.4-1.1,2.4-2.4c0-0.5-0.2-1-0.5-1.4c-0.4-0.6-1.1-1-1.9-1s-1.5,0.4-1.9,1
		c-0.3,0.4-0.5,0.9-0.5,1.4C13.6,17.1,14.7,18.2,16,18.2z"/>
	<polygon fill="#FFFFFF" points="21,12.9 21,10.9 21,10.6 20.8,10.6 18.9,10.6 18.8,12.9 	"/>
	<path fill="#FFFFFF" d="M19.7,15.6c0,2-1.7,3.8-3.7,3.8c-2,0-3.7-1.8-3.7-3.9c0-0.5,0.1-0.5,0.3-1.5H11v6c0,0.7,0.1,1,0.8,1h8.3
		c0.7,0,0.8-0.3,0.8-1v-6h-1.6C19.6,15,19.7,15.1,19.7,15.6z"/>
</g>
</svg>
