<?xml version="1.0" encoding="utf-8"?>
<!-- Generator: Adobe Illustrator 18.0.0, SVG Export Plug-In . SVG Version: 6.00 Build 0)  -->
<!DOCTYPE svg PUBLIC "-//W3C//DTD SVG 1.1//EN" "http://www.w3.org/Graphics/SVG/1.1/DTD/svg11.dtd">
<svg version="1.1" id="Layer_1" xmlns="http://www.w3.org/2000/svg" xmlns:xlink="http://www.w3.org/1999/xlink" x="0px" y="0px"
	 viewBox="0 0 128 128" enable-background="new 0 0 128 128" xml:space="preserve">
<g>
	<path fill="#E91E63" d="M73.9,95.7c-0.6,0-1.1,0-1.6,0.5c-0.2,0.3-0.6,0.2-1,0.2c-4.7,0-9.5,0-14.2,0c-0.3,0-0.6,0.1-0.8-0.1
		c-0.7-0.8-1.6-0.6-2.5-0.6c-12.3,0-24.7,0-37,0c-0.6,0-1.2,0-1.8-0.2v1.7c0.7,1.4,1.9,1.8,3.5,1.8c30.5,0,60.9,0,91.4,0
		c1.5,0,2.8-0.3,3.5-1.8v-1.7c-0.6,0.3-1.2,0.2-1.8,0.2C99,95.7,86.5,95.8,73.9,95.7z"/>
	<path fill="#E91E63" d="M103.6,83.9c-0.5-0.5-1-0.7-1.7-0.7c-25.1,0-50.3,0-75.4,0c-0.7,0-1.2,0.2-1.7,0.7
		c-3.3,3.3-6.5,6.5-9.8,9.7v1c0.3,0.9,1.1,0.9,1.8,0.9c2.7,0,5.4,0,8,0c10,0,19.9,0,29.9,0c0.7,0,1.3,0,2,0c5.6,0,11.2,0,16.8,0
		c7.1,0,14.2,0,21.3,0h0.7c5.4,0,10.8,0,16.2,0c0.1,0,0.2,0,0.3,0c0.1,0,0.3,0,0.4,0c0.4-0.1,0.8-0.4,1-0.8v-1
		C110.1,90.3,106.9,87.1,103.6,83.9z M102.4,89.8c-0.2,0.4-0.6,0.5-1.1,0.5c-0.8,0-1.7,0-2.5,0c-7.8,0-15.7,0-23.5,0
		c-0.4,0-1.1-0.2-0.8,0.7c0.1,0.3-0.2,0.5-0.5,0.6c-0.2,0-0.4,0-0.7,0c-6.1,0-12.2,0-18.2,0c-0.6,0-1.4,0.1-1.1-1
		c0.1-0.3-0.1-0.3-0.3-0.3c-0.3,0-0.5,0-0.8,0c-8.5,0-16.9,0-25.4,0c-0.3,0-0.5,0-0.8,0c-0.8-0.1-1.2-0.8-0.6-1.4
		c0.8-1,1.7-1.9,2.5-2.9c0.3-0.4,0.8-0.3,1.2-0.3c11.5,0,23,0,34.5,0c11.5,0,22.9,0,34.4,0c0.7,0,1.1,0.2,1.6,0.7
		c0.6,0.8,1.3,1.5,1.9,2.3C102.4,89,102.7,89.4,102.4,89.8z"/>
	<path fill="#E91E63" d="M26.6,81.1c12.5,0,25,0,37.6,0s25,0,37.6,0c0.9,0,1.1-0.2,1.1-1.1c0-15.9,0-31.7,0-47.6
		c0-2.4-1.1-3.5-3.4-3.5c-23.5,0-47,0-70.4,0c-2.4,0-3.4,1.1-3.4,3.5c0,15.9,0,31.7,0,47.6C25.5,80.9,25.8,81.1,26.6,81.1z
		 M64.2,30.7c0.5,0,0.8,0.3,0.9,0.8c0,0.5-0.3,0.9-0.8,0.9c-0.6,0-0.9-0.3-0.9-0.9C63.4,31,63.7,30.7,64.2,30.7z M31.6,34
		c10.9,0,21.8,0,32.7,0c10.8,0,21.7,0,32.5,0c0.8,0,1.1,0.1,1.1,1.1c0,13.3,0,26.6,0,40c0,0.8-0.2,1.1-1,1.1c-21.7,0-43.5,0-65.2,0
		c-0.9,0-1-0.3-1-1.1c0-13.3,0-26.6,0-40C30.5,34.2,30.7,34,31.6,34z"/>
	<path fill="#1976D2" d="M69.2,60.5c1.2,0,2.5-0.1,4-0.2C69,56,65.1,51.8,61,47.5c0,6,0,11.7,0,17.6c1.1-1,2-1.8,3-2.7
		c0.4-0.4,0.6-0.3,0.8,0.2c0.6,1.5,1.2,2.9,1.7,4.4c0.3,0.8,0.7,1.1,1.5,0.7c0.5-0.3,1.1-0.4,1.6-0.7c1.1-0.4,1.2-0.6,0.7-1.6
		c-0.6-1.4-1.1-2.8-1.7-4.2C68.4,60.7,68.4,60.5,69.2,60.5z"/>
	<path fill="#1976D2" d="M59.3,53c0.3,0.1,0.7,0.4,0.9-0.2c0.1-0.5-0.1-0.7-0.6-0.8c-0.2,0-0.4-0.2-0.6-0.3c-2-1-3-3.2-2.4-5.4
		c0.6-2.2,2.8-3.4,5.1-3.1c2.1,0.3,3.7,2.2,3.7,4.5c0,0.8-0.2,1.5-0.6,2.2c-0.3,0.4,0,0.7,0.3,0.9c0.4,0.3,0.5-0.2,0.6-0.4
		c0.5-0.8,0.7-1.6,0.7-2.4c0.1-2.6-1.4-4.7-3.6-5.5c-2.2-0.8-4.7-0.1-6.2,1.8C54.1,47.3,55.6,51.9,59.3,53z"/>
	<path fill="#1976D2" d="M61.3,45.7c0.9,0.2,1.5,1,1.5,2c0,0.5,0.1,0.9,0.7,1.2c0.7-1.6,0.2-3.3-1.3-4c-1.5-0.7-3.3-0.1-4,1.4
		c-0.7,1.4-0.2,3.2,1.2,4c0.2,0.1,0.5,0.4,0.7,0.1c0.2-0.2,0.1-0.6,0-0.8c-0.1-0.1-0.2-0.2-0.4-0.3c-0.8-0.7-1-1.6-0.6-2.5
		C59.5,46,60.4,45.5,61.3,45.7z"/>
</g>
</svg>
