<?xml version="1.0" encoding="utf-8"?>
<!-- Generator: Adobe Illustrator 18.0.0, SVG Export Plug-In . SVG Version: 6.00 Build 0)  -->
<!DOCTYPE svg PUBLIC "-//W3C//DTD SVG 1.1//EN" "http://www.w3.org/Graphics/SVG/1.1/DTD/svg11.dtd">
<svg version="1.1" id="Layer_1" xmlns="http://www.w3.org/2000/svg" xmlns:xlink="http://www.w3.org/1999/xlink" x="0px" y="0px"
	 viewBox="0 0 128 128" enable-background="new 0 0 128 128" xml:space="preserve">
<g>
	<g>
		<path d="M49.5,66.2v-4.6h0c1,0,1.8-0.4,2.4-1.1c0.6-0.8,1-2,1-3.7c0-1.6-0.3-2.7-1-3.5c-0.6-0.8-1.4-1.1-2.3-1.1c0,0,0,0-0.1,0
			v-4.7c3.5,0,6.2,1.1,8,3.1c1.4,1.7,2.2,3.8,2.2,6.2c0,2.8-0.9,5-2.7,6.8C55.1,65.4,52.6,66.2,49.5,66.2L49.5,66.2z M76,58.8
			L76,58.8l6.4,0.7c-0.4,1.4-0.9,2.6-1.7,3.6c-0.8,1-1.8,1.8-3.1,2.3c-1.3,0.5-2.9,0.8-4.8,0.8c-1.9,0-3.4-0.2-4.7-0.5
			c-1.3-0.4-2.3-0.9-3.2-1.7c-0.9-0.8-1.6-1.7-2.1-2.8c-0.5-1.1-0.8-2.5-0.8-4.3c0-1.9,0.3-3.4,0.9-4.6c0.5-0.9,1.1-1.7,1.9-2.4
			c0.8-0.7,1.6-1.2,2.4-1.6c1.3-0.5,3-0.8,5.1-0.8c2.9,0,5.1,0.5,6.6,1.6c1.5,1,2.6,2.6,3.2,4.6l-6.4,0.9c-0.2-0.8-0.6-1.3-1.1-1.7
			c-0.5-0.4-1.2-0.6-2.1-0.6c-1.1,0-2,0.4-2.7,1.2c-0.7,0.8-1,2.1-1,3.7c0,1.5,0.3,2.6,1,3.4c0.7,0.8,1.6,1.1,2.6,1.1
			c0.9,0,1.6-0.2,2.2-0.7C75.3,60.5,75.7,59.8,76,58.8L76,58.8z M104.1,65.8L104.1,65.8h-6.3v-2.9c-0.9,1.2-1.9,2.1-2.8,2.6
			s-2.1,0.8-3.5,0.8c-1.9,0-3.3-0.6-4.4-1.7c-1-1.1-1.6-2.9-1.6-5.2V47.9h6.8v9.9c0,1.1,0.2,1.9,0.6,2.4c0.4,0.5,1,0.7,1.7,0.7
			c0.8,0,1.5-0.3,2-0.9c0.5-0.6,0.8-1.8,0.8-3.4v-8.7h6.8V65.8L104.1,65.8z M107,60.9L107,60.9l6.7-0.6c0.3,0.8,0.7,1.4,1.2,1.7
			c0.5,0.4,1.2,0.5,2,0.5c0.9,0,1.6-0.2,2.1-0.6c0.4-0.3,0.6-0.7,0.6-1.1c0-0.5-0.3-0.9-0.8-1.2c-0.4-0.2-1.3-0.4-2.9-0.7
			c-2.4-0.4-4-0.8-4.9-1.2c-0.9-0.4-1.7-1-2.3-1.8c-0.6-0.8-0.9-1.8-0.9-2.9c0-1.2,0.3-2.2,1-3.1c0.7-0.9,1.6-1.5,2.8-1.9
			c1.2-0.4,2.8-0.6,4.8-0.6c2.1,0,3.7,0.2,4.7,0.5c1,0.3,1.8,0.8,2.5,1.5c0.7,0.7,1.2,1.6,1.7,2.8l-6.4,0.6c-0.2-0.6-0.4-1-0.8-1.3
			c-0.5-0.4-1.2-0.5-1.9-0.5c-0.8,0-1.3,0.1-1.7,0.4c-0.4,0.3-0.5,0.6-0.5,1c0,0.4,0.2,0.8,0.7,1c0.4,0.2,1.4,0.4,2.9,0.6
			c2.3,0.3,3.9,0.6,5,1.1c1.1,0.5,1.9,1.1,2.5,2c0.6,0.9,0.9,1.8,0.9,2.8c0,1-0.3,2.1-0.9,3c-0.6,1-1.6,1.8-2.9,2.3
			c-1.3,0.6-3.1,0.9-5.4,0.9c-3.2,0-5.5-0.5-6.9-1.4C108.3,63.9,107.4,62.6,107,60.9L107,60.9z M15,58.8L15,58.8l6.4,0.7
			c-0.4,1.4-0.9,2.6-1.7,3.6c-0.8,1-1.8,1.8-3.1,2.3c-1.3,0.5-2.9,0.8-4.8,0.8c-1.9,0-3.4-0.2-4.7-0.5c-1.2-0.4-2.3-0.9-3.2-1.7
			c-0.9-0.8-1.6-1.7-2.1-2.8C1.3,60.1,1,58.7,1,56.9c0-1.9,0.3-3.4,0.9-4.6c0.5-0.9,1.1-1.7,1.9-2.4c0.8-0.7,1.6-1.2,2.4-1.6
			c1.3-0.5,3-0.8,5.1-0.8c2.9,0,5.1,0.5,6.6,1.6c1.5,1,2.6,2.6,3.2,4.6l-6.4,0.9c-0.2-0.8-0.6-1.3-1.1-1.7c-0.5-0.4-1.2-0.6-2.1-0.6
			c-1.1,0-2,0.4-2.7,1.2c-0.7,0.8-1,2.1-1,3.7c0,1.5,0.3,2.6,1,3.4c0.7,0.8,1.6,1.1,2.6,1.1c0.9,0,1.6-0.2,2.2-0.7
			C14.2,60.5,14.7,59.8,15,58.8L15,58.8z M49.5,47.4L49.5,47.4c-3.1,0-5.6,0.9-7.4,2.7c-1.8,1.8-2.7,4-2.7,6.8c0,3,1.1,5.3,3.2,7.2
			c1.8,1.5,4,2.2,6.9,2.2h0v-4.6c-1,0-1.8-0.4-2.4-1.2c-0.6-0.8-1-1.9-1-3.6c0-1.6,0.3-2.8,1-3.5c0.6-0.8,1.4-1.1,2.4-1.2V47.4
			L49.5,47.4L49.5,47.4z M24.6,47.9L24.6,47.9h6.3v2.9c0.6-1.3,1.2-2.1,1.9-2.6c0.7-0.5,1.5-0.7,2.4-0.7c1,0,2.1,0.3,3.3,0.9
			l-2.1,4.9c-0.8-0.3-1.4-0.5-1.9-0.5c-0.9,0-1.6,0.4-2.1,1.1c-0.7,1.1-1,3-1,5.9v6h-6.8V47.9z"/>
	</g>
	<path d="M83,78v-1.2h0.2c0.5,0,1,0,1.3-0.2c0.3-0.1,0.5-0.3,0.7-0.5c0.2-0.2,0.2-0.5,0.2-0.8c0-0.4-0.2-0.8-0.5-1.1
		c-0.3-0.3-0.8-0.4-1.5-0.4H83v-1h0.4c0.8,0,1.4,0.1,1.8,0.2c0.4,0.2,0.8,0.5,1,0.9c0.2,0.4,0.4,0.9,0.4,1.4c0,0.6-0.2,1.2-0.6,1.6
		c-0.4,0.5-1.1,0.7-1.9,0.8c0.3,0.2,0.5,0.3,0.7,0.5c0.3,0.3,0.7,0.7,1,1.2l1.6,2.5h-1.5L84.7,80c-0.3-0.5-0.6-0.9-0.9-1.2
		c-0.2-0.3-0.4-0.5-0.6-0.6C83.1,78.1,83.1,78,83,78L83,78z M88.7,81.8L88.7,81.8v-9h1.2v9H88.7L88.7,81.8z M92,81.8L92,81.8v-9h1.2
		l4.7,7.1v-7.1h1.1v9h-1.2l-4.7-7.1v7.1H92L92,81.8z M105.3,78.3L105.3,78.3v-1l3.8,0v3.3c-0.6,0.5-1.2,0.8-1.8,1.1
		c-0.6,0.2-1.3,0.4-1.9,0.4c-0.9,0-1.7-0.2-2.4-0.6c-0.7-0.4-1.3-0.9-1.6-1.7c-0.4-0.7-0.6-1.5-0.6-2.4c0-0.9,0.2-1.7,0.5-2.5
		c0.4-0.8,0.9-1.3,1.6-1.7c0.7-0.4,1.5-0.5,2.4-0.5c0.7,0,1.2,0.1,1.8,0.3c0.5,0.2,0.9,0.5,1.2,0.9c0.3,0.4,0.5,0.9,0.7,1.5
		l-1.1,0.3c-0.1-0.5-0.3-0.8-0.5-1.1c-0.2-0.3-0.5-0.5-0.9-0.6c-0.4-0.2-0.8-0.2-1.2-0.2c-0.5,0-1,0.1-1.4,0.2
		c-0.4,0.2-0.7,0.4-1,0.7c-0.2,0.3-0.4,0.6-0.6,0.9c-0.2,0.5-0.3,1.2-0.3,1.8c0,0.8,0.1,1.5,0.4,2c0.3,0.5,0.7,0.9,1.2,1.2
		c0.5,0.3,1.1,0.4,1.7,0.4c0.5,0,1-0.1,1.5-0.3c0.5-0.2,0.9-0.4,1.1-0.6v-1.7H105.3L105.3,78.3z M110.4,78.9L110.4,78.9l1.1-0.1
		c0,0.5,0.2,0.8,0.4,1.1c0.2,0.3,0.5,0.5,0.9,0.7c0.4,0.2,0.9,0.3,1.4,0.3c0.5,0,0.9-0.1,1.2-0.2c0.4-0.1,0.6-0.3,0.8-0.6
		c0.2-0.2,0.3-0.5,0.3-0.8c0-0.3-0.1-0.5-0.2-0.7c-0.2-0.2-0.4-0.4-0.8-0.5c-0.2-0.1-0.8-0.2-1.6-0.5c-0.8-0.2-1.4-0.4-1.7-0.6
		c-0.4-0.2-0.7-0.5-1-0.8c-0.2-0.3-0.3-0.7-0.3-1.1c0-0.5,0.1-0.9,0.4-1.3c0.2-0.4,0.6-0.7,1.1-0.9c0.5-0.2,1.1-0.3,1.7-0.3
		c0.7,0,1.3,0.1,1.8,0.3c0.5,0.2,0.9,0.5,1.2,0.9c0.3,0.4,0.4,0.9,0.4,1.4l-1.1,0.1c-0.1-0.6-0.3-1-0.6-1.3
		c-0.3-0.3-0.9-0.4-1.6-0.4c-0.7,0-1.2,0.1-1.6,0.4c-0.3,0.3-0.5,0.6-0.5,0.9c0,0.3,0.1,0.6,0.3,0.8c0.2,0.2,0.8,0.4,1.8,0.7
		c1,0.2,1.6,0.4,2,0.6c0.5,0.2,0.9,0.5,1.2,0.9c0.2,0.4,0.4,0.8,0.4,1.3c0,0.5-0.1,0.9-0.4,1.4c-0.3,0.4-0.7,0.8-1.2,1
		c-0.5,0.2-1.1,0.4-1.7,0.4c-0.8,0-1.5-0.1-2-0.4c-0.6-0.2-1-0.6-1.3-1.1C110.6,80.1,110.5,79.5,110.4,78.9L110.4,78.9z M83,72.8
		h-3.6v9h1.2v-4H82c0.3,0,0.5,0,0.7,0c0.1,0,0.2,0.1,0.3,0.1v-1.2h-2.4v-3H83V72.8L83,72.8L83,72.8z M56.8,82L56.8,82v-1
		c0.9,0,1.6-0.3,2.2-1c0.6-0.6,0.9-1.5,0.9-2.7c0-0.7-0.1-1.4-0.4-1.9c-0.2-0.5-0.6-1-1.1-1.3c-0.5-0.3-1-0.5-1.6-0.5h0v-1h0
		c0.8,0,1.6,0.2,2.2,0.6c0.7,0.4,1.2,1,1.5,1.7c0.4,0.7,0.5,1.5,0.5,2.4c0,0.9-0.2,1.7-0.6,2.5c-0.4,0.7-0.9,1.3-1.6,1.6
		C58.3,81.8,57.6,82,56.8,82L56.8,82z M65.2,81.8L65.2,81.8l-3.5-9H63l2.3,6.6c0.2,0.5,0.3,1,0.5,1.5c0.1-0.5,0.3-1,0.5-1.5l2.4-6.6
		H70l-3.5,9H65.2L65.2,81.8z M71.1,81.8L71.1,81.8v-9h6.5v1.1h-5.3v2.8h5v1.1h-5v3.1h5.5v1.1H71.1L71.1,81.8z M56.8,72.7
		c-1.3,0-2.3,0.4-3.1,1.3c-0.8,0.8-1.2,2-1.2,3.5c0,0.8,0.2,1.5,0.5,2.2c0.3,0.7,0.8,1.3,1.5,1.7c0.7,0.4,1.4,0.6,2.3,0.6v-1
		c-0.9,0-1.6-0.3-2.2-0.9c-0.6-0.6-0.9-1.5-0.9-2.6c0-1.4,0.3-2.3,0.9-2.9c0.6-0.6,1.3-0.9,2.2-0.9V72.7L56.8,72.7L56.8,72.7z
		 M24.5,79.1L24.5,79.1v-1h1.5l-0.9-2.5c-0.3-0.7-0.4-1.2-0.6-1.7v-1.1h0.6l3.7,9h-1.4l-1.1-2.7H24.5L24.5,79.1z M29.8,81.8
		L29.8,81.8v-9h1.2v8h4.4v1.1H29.8L29.8,81.8z M36.7,81.8L36.7,81.8v-9h1.2v8h4.4v1.1H36.7L36.7,81.8z M50.2,78.7L50.2,78.7l1.2,0.3
		c-0.2,1-0.7,1.7-1.3,2.2c-0.7,0.5-1.4,0.8-2.4,0.8c-1,0-1.8-0.2-2.4-0.6c-0.6-0.4-1.1-1-1.4-1.7c-0.3-0.7-0.5-1.6-0.5-2.4
		c0-0.9,0.2-1.8,0.5-2.5c0.4-0.7,0.9-1.2,1.5-1.6c0.7-0.4,1.4-0.5,2.2-0.5c0.9,0,1.7,0.2,2.3,0.7c0.6,0.5,1,1.1,1.3,1.9l-1.2,0.3
		c-0.2-0.7-0.5-1.1-0.9-1.4c-0.4-0.3-0.9-0.5-1.5-0.5c-0.7,0-1.3,0.2-1.7,0.5c-0.5,0.3-0.8,0.8-1,1.3c-0.2,0.6-0.3,1.1-0.3,1.7
		c0,0.8,0.1,1.4,0.3,2c0.2,0.6,0.6,1,1,1.3c0.5,0.3,1,0.4,1.5,0.4c0.7,0,1.2-0.2,1.7-0.6C49.7,80,50,79.4,50.2,78.7L50.2,78.7z
		 M20.6,72.8L20.6,72.8h0.2l-0.2,0.6V72.8L20.6,72.8z M24.5,72.8L24.5,72.8h-0.7l-3.3,8.6v0.5h1.1l1-2.7h1.9v-1H23l1-2.6
		c0.2-0.6,0.4-1.2,0.5-1.7c0,0.1,0,0.1,0,0.2V72.8L24.5,72.8z M11.6,81.8h1.2l1.9-6.9c0.1-0.3,0.2-0.6,0.3-1.1
		c0,0.1,0.1,0.5,0.3,1.1l1.9,6.9h1.1l2.3-8.4v-0.6h-1l-1.4,5.8c-0.2,0.7-0.3,1.4-0.4,2c-0.2-1-0.4-2.1-0.7-3.2l-1.3-4.6h-1.4
		l-1.7,6.1c0,0.1-0.2,0.7-0.4,1.7c-0.1-0.6-0.2-1.2-0.4-1.9l-1.4-5.9H9.2L11.6,81.8L11.6,81.8L11.6,81.8z M20.6,81.4v0.5h-0.2
		L20.6,81.4L20.6,81.4z"/>
</g>
</svg>
