<?xml version="1.0" encoding="utf-8"?>
<!-- Generator: Adobe Illustrator 18.0.0, SVG Export Plug-In . SVG Version: 6.00 Build 0)  -->
<!DOCTYPE svg PUBLIC "-//W3C//DTD SVG 1.1//EN" "http://www.w3.org/Graphics/SVG/1.1/DTD/svg11.dtd">
<svg version="1.1" id="Layer_1" xmlns="http://www.w3.org/2000/svg" xmlns:xlink="http://www.w3.org/1999/xlink" x="0px" y="0px"
	 viewBox="0 0 400 400" enable-background="new 0 0 400 400" xml:space="preserve">
<g>
	<path fill-rule="evenodd" clip-rule="evenodd" d="M153.1,232.4h114.7c0-22.8,0-45.6,0-68.5c-8.1,9.8-22.2,22.1-34,27.3
		c-2.8-9.3-5.6-18.6-8.4-27.8c11-5.9,25.8-16.4,5-20.6c-12.4,0.4-32,6.6-46.2,18.4c-4.9,5.7-2.2,9.6,4.5,12.2
		c-10,10.6-20,21.2-30.1,31.7c-2-2-4.1-4.1-6.1-6.1L153.1,232.4z"/>
	<polygon fill-rule="evenodd" clip-rule="evenodd" points="157.2,178.2 152.5,185.5 152.5,178.3 	"/>
	<path fill-rule="evenodd" clip-rule="evenodd" d="M176.1,162.4c4.5-4.6,6.6-6.3,12-9.9h-35.6v9.7
		C160.3,162.3,168.2,162.3,176.1,162.4z"/>
	<path fill-rule="evenodd" clip-rule="evenodd" d="M152.6,149.5l-0.1-9.1H223c-11.2,1.7-19.4,3.9-29.9,8.7L152.6,149.5z"/>
	<rect x="152.5" y="128.5" fill-rule="evenodd" clip-rule="evenodd" width="114.7" height="7.9"/>
	<polygon fill-rule="evenodd" clip-rule="evenodd" points="152.5,115 152.5,124.8 267.2,124.8 267.2,115.2 	"/>
	<path fill-rule="evenodd" clip-rule="evenodd" d="M250.5,140.6h16.7v7.8c-5.7-6.1-8.9-5.8-16.7-6.6
		C250.5,141.4,250.5,141,250.5,140.6z"/>
	<path fill-rule="evenodd" clip-rule="evenodd" d="M121.2,251.4h-7.2l-18.7,34l-0.2,2h6.1l4.2-7.8h24.2l4.2,7.8h6.4L121.2,251.4z
		 M107.2,275.4l9.5-19l10.9,19H107.2z"/>
	<path fill-rule="evenodd" clip-rule="evenodd" d="M175.7,251.2h-31.2v36.1h6v-11.7H176C187.1,275,188,252.8,175.7,251.2z
		 M176.3,269.5h-25.7v-12l25.6-0.1C180.5,259.6,180.3,267.5,176.3,269.5z"/>
	<polygon fill-rule="evenodd" clip-rule="evenodd" points="191.8,251.4 191.8,287.3 226.1,287.3 226.1,281.6 196.6,281.6 
		196.6,271.5 224.1,271.5 224.1,265.9 196.3,265.9 196.3,256.3 225.9,256.3 225.9,251.4 	"/>
	<path fill-rule="evenodd" clip-rule="evenodd" d="M269.7,264.7c2,0,4,0,6,0c0-1.5,0-2.9,0.1-4.4c0.1-4.8-2.7-8.8-6.6-8.8
		c-8.3,0-16.7,0-25-0.1c-5.3,0-9,3.9-9,8.2c0,5.6,0,14.3,0,19.9c0,5.8,3.8,8,8.9,8c7.4,0,14.8,0,22.3,0c6.5-0.1,9.6-4.9,9.6-9.5
		c0-1.5,0-3,0-4.5c-2.1,0-4.2,0-6.3,0c-0.1,4.1,0.9,8.1-4.7,8.1c-6.7,0-13.4,0-20,0c-2.7-0.1-3.7-1.9-3.6-4c0-5.6,0-11.3,0-16.9
		c0-2.9,1.4-3.9,4.3-4c7.1,0,13.9,0,21,0c2.3,0.1,3,0.8,3.1,2.8C269.6,261.2,269.8,262.9,269.7,264.7z"/>
	<path fill-rule="evenodd" clip-rule="evenodd" d="M284.1,275.2c2.6,0,3.8,0,6.3,0c0,3.2,0.2,6.5,3.4,6.5c7.4,0,13.3,0,20.7,0
		c2.7,0,3-0.5,3-3.5c0-0.6,0-2.2,0-3.4c0-1.4-0.3-1.4-1.1-1.4c-3.3,0-6.6,0-10-0.1c-0.1,0-0.2,0-0.3,0c-3.3-0.1-6.7-0.1-10-0.2
		c-0.1,0-0.2,0-0.3,0c-6.9,0-11.9-4.7-11.8-11.1c-0.1-4.1,3.2-10.5,9.5-10.5c7.5,0,15,0,22.5,0c0.8,0.1,1.8,0.4,2.6,1
		c3.4,2.5,4.6,5.4,4.7,7.9c0,1.2,0,1.9,0,3.1c-1.9,0-3.9,0-5.8,0c-0.5-7.5-3.2-5.9-9.6-6.3c-4.7,0-9.5,0-14.2-0.1
		c-4.9,0-4.6,10.3,0.1,10.3c5.4,0.1,12.2,0.1,17.6,0.2c8.8,0.1,11.9-0.2,11.9,5.7c0,1.9,0,3.8,0,5.7c-0.1,2.9-0.3,8.2-7,8.2
		c-7.7,0-14.4,0-22.1,0c-1.5,0-3,0-4.5,0c-3.8-1.2-5.6-4.5-5.7-8.5C284.1,277.6,284.1,276.4,284.1,275.2z"/>
	<path fill-rule="evenodd" clip-rule="evenodd" d="M152.5,173.8v-8.7h21.4c-5.4,3-8.1,4.8-12.9,8.7H152.5z"/>
</g>
</svg>
