<?xml version="1.0" encoding="utf-8"?>
<!-- Generator: Adobe Illustrator 18.0.0, SVG Export Plug-In . SVG Version: 6.00 Build 0)  -->
<!DOCTYPE svg PUBLIC "-//W3C//DTD SVG 1.1//EN" "http://www.w3.org/Graphics/SVG/1.1/DTD/svg11.dtd">
<svg version="1.1" id="Layer_1" xmlns="http://www.w3.org/2000/svg" xmlns:xlink="http://www.w3.org/1999/xlink" x="0px" y="0px"
	 viewBox="0 0 136 114" enable-background="new 0 0 136 114" xml:space="preserve">
<rect fill="#1976D2" width="136" height="114"/>
<g>
	<polygon fill-rule="evenodd" clip-rule="evenodd" fill="#FFFFFF" points="53.1,66.8 59.1,70.5 54.6,82 98,59.1 97.8,60 42.2,95.7 	
		"/>
	<path fill-rule="evenodd" clip-rule="evenodd" fill="#FFFFFF" d="M115.1,48.1l-31,1.5l17,45.8L48,61.5v-5.3l52.8,39l-22-45.3
		l-12,0.4l-1.2,4.1h13.8l3,6.4L56,60.9l3.6-10.4l-27.2,1L26,47.6l34.6,0l10.9-31.9l11.8,31.9L115.1,48.1z M67.6,47.6h10.1l-6.2-12.7
		L67.6,47.6z"/>
	<path fill="#FFFFFF" d="M114.7,57.5c0,1.8-0.5,3.3-1.5,4.5c-1.4,1.6-4.7,2.4-7.6,2.4h-6.3v21.2l-4.2-12.7V54.3l-5.5-3.9h15.9
		c3.1,0,6.5,0.9,7.8,2.7C114.3,54.4,114.7,55.8,114.7,57.5 M109.5,57.5c0-1.2-0.5-2-1.4-2.5c-0.6-0.3-1.3-0.5-2.2-0.5h-6.6v5.9h6.6
		c1.2,0,2.1-0.3,2.7-0.8C109.2,59.1,109.5,58.4,109.5,57.5"/>
	<path fill="#FFFFFF" d="M44.4,65.9v-8c-7.7,7.9-21.4,3.5-21.7-6.1c-0.2-9.6,14.2-13.8,21.7-5.7v-8l-2.8,1.9c-5.9-3.3-15.9-2.7-21,2
		c-6.5,5.9-6.4,14.2,0.1,20.1c5.1,4.7,14.5,5.8,20.9,2.2L44.4,65.9z"/>
	<path fill="#FFFFFF" d="M101.2,38.1l-2.6-3.9l-1.6-1.1h4.9l-0.9,1.1l1.3,1.9l1-1.7l-1.3-1.3h4.1l-1.4,1.4l-2.2,4
		c-0.2,0.3-0.4,0.6-0.6,0.9c-0.2,0.3-0.5,0.5-0.7,0.7c-0.2,0.2-0.5,0.3-0.7,0.3l-0.3,0.1l-0.3,0.1h-0.2c-0.1,0-0.3,0-0.4-0.1
		c-0.1,0-0.4-0.1-0.8-0.4c-0.1,0-0.1-0.1-0.2-0.3c0-0.2-0.1-0.3-0.1-0.5c0-0.3,0-0.6,0.1-0.9c0.1-0.3,0.2-0.6,0.4-0.9
		c0.2-0.3,0.4-0.5,0.6-0.7l0,0.1l0,0.1c0,0.1,0,0.2,0.1,0.4c0,0.1,0,0.2,0,0.3c0,0.1,0,0.1,0,0.2c0.1,0.4,0.3,0.6,0.5,0.8
		c0.1,0.1,0.2,0.2,0.3,0.2c0.1,0.1,0.2,0.1,0.3,0.1l0,0l0,0c0.1,0,0.3,0,0.4-0.1c0,0,0.1-0.1,0.1-0.1c0,0,0.1-0.1,0.1-0.1
		C101.2,38.3,101.2,38.3,101.2,38.1L101.2,38.1z"/>
	<path fill="#FFFFFF" d="M112.7,39h0.8v2.6l-1.4-1.3h-6.7l-1.4,1.3V39h1.2l2.2-4.8l-1-1.1h4.6l-0.7,1.1L112.7,39z M106.6,39h3.9
		l-2-4.2L106.6,39z"/>
	<path fill-rule="evenodd" clip-rule="evenodd" fill="#FFFFFF" d="M96.9,38.2c0.1-0.4,0.2-0.8,0.2-1.3v-0.2c0-0.4,0-0.8-0.1-1.2
		c-0.1-0.4-0.2-0.7-0.4-0.9c-0.4-0.5-0.8-0.9-1.3-1.2h0c-0.3-0.1-0.6-0.3-0.9-0.4c-0.2-0.1-0.4-0.1-0.7-0.1h0L92,32.6h-3.3v-4.2H94
		l2.1,1.9v-3.4h-12l1.9,2.5l0,8.4l-1.9,2.6h9.7l0.5-0.1l0.5-0.1l0.6-0.1c0.2,0,0.4-0.1,0.5-0.3c0.2-0.2,0.4-0.4,0.5-0.6
		c0.1-0.2,0.2-0.3,0.2-0.5C96.8,38.5,96.9,38.3,96.9,38.2 M88.8,38.8v-4.5h3.6c0.4,0,0.8,0.2,1,0.6c0.3,0.4,0.4,1.1,0.4,1.7
		c0,0.7-0.2,1.3-0.6,1.7c-0.4,0.3-0.8,0.5-1.2,0.5H88.8z"/>
</g>
</svg>
