<?xml version="1.0" encoding="utf-8"?>
<!-- Generator: Adobe Illustrator 18.0.0, SVG Export Plug-In . SVG Version: 6.00 Build 0)  -->
<!DOCTYPE svg PUBLIC "-//W3C//DTD SVG 1.1//EN" "http://www.w3.org/Graphics/SVG/1.1/DTD/svg11.dtd">
<svg version="1.1" id="Layer_1" xmlns="http://www.w3.org/2000/svg" xmlns:xlink="http://www.w3.org/1999/xlink" x="0px" y="0px"
	 viewBox="0 0 32 32" enable-background="new 0 0 32 32" xml:space="preserve">
<path fill="#FFFFFF" d="M16,0C7.2,0,0,7.2,0,16s7.2,16,16,16c8.8,0,16-7.2,16-16S24.8,0,16,0z M23.8,21c0,0-1.2,0-1.8,0
	c-0.6,0-0.6,0.2-1.2-0.4c-0.8-0.8-1.8-1.7-2.4-1.7c-0.6,0-1.2,0.7-1.2,1.3c0,0.3,0,1.2-0.6,1.2s-0.3,0-0.6,0c-1.2,0-2.6-0.2-4.7-2.3
	c-2.3-2.4-3.1-4.3-4.3-7.3c-0.1-0.2,0-0.6,0.6-0.6c0.6,0,1.2,0,1.8,0c0.6,0,0.7-0.1,1.2,0.6c1.2,1.8,2.3,4.2,2.9,4.2
	c0.6,0,0.5-2.4,0.5-2.4s0-0.6,0-1.2c0-0.8-0.9-0.6-1.1-0.6c-0.1,0,0.7-0.4,0.7-0.4s0.9-0.4,1.9-0.4c0.6,0,1.8,0,1.8,0
	c0.9,0,0.6,1.4,0.6,3.4c0,0.6,0.1,1.7,0.6,1.7c0.5,0,0.6-0.7,1.2-1.9c0.4-0.8,0.6-1.2,1.8-3c0.4-0.5,3.4,0,3.6,0.4
	c0.1,0.4-0.7,1.7-1.8,3.2c-1.8,2.4-1.2,1.8,0,3c1.4,1.4,1.8,1.8,1.8,2.2C25,21.2,23.8,21,23.8,21z"/>
</svg>
