<?xml version="1.0" encoding="utf-8"?>
<!-- Generator: Adobe Illustrator 18.0.0, SVG Export Plug-In . SVG Version: 6.00 Build 0)  -->
<!DOCTYPE svg PUBLIC "-//W3C//DTD SVG 1.1//EN" "http://www.w3.org/Graphics/SVG/1.1/DTD/svg11.dtd">
<svg version="1.1" id="Layer_1" xmlns="http://www.w3.org/2000/svg" xmlns:xlink="http://www.w3.org/1999/xlink" x="0px" y="0px"
	 viewBox="0 0 400 400" enable-background="new 0 0 400 400" xml:space="preserve">
<g>
	<path fill-rule="evenodd" clip-rule="evenodd" d="M167.5,168.9c0-3.8,0-7.5,0-11.3h23.3v34.7c-8.2,2.7-12.2,3.1-20.9,3.2
		c-5.3-0.5-8.6-1.1-13.8-2.9c-6.2-3-8.4-4.9-12.6-10.6c-1.5-3.3-2.4-6-3.2-9.5c-1.2-11.9,1.4-22.1,11.6-29.3
		c10.2-6,20.8-5.5,32.2-3.7v12.3c-0.9-0.2-1.7-0.4-2.6-0.6c-7.6-1.2-12.8-1.3-19.6,2.4c-1.8,1.6-2.5,2.3-4,4.3
		c-2.1,4.3-2.3,8.4-1.8,13.1c0.3,1,0.6,2,0.8,3c3.7,8.4,10.2,9.5,18.5,9.5c0-4.9,0-9.7,0-14.6C172.9,168.9,170.2,168.9,167.5,168.9z
		"/>
	<path fill-rule="evenodd" clip-rule="evenodd" d="M10.5,120.8c0,32.5-0.2,65.1,0.1,97.6c2,22.2,15.2,33.9,34.1,43
		c9.1,5,17.7,10.5,25.8,17.3c4.9-4,14.1-11.3,25.3-17.2c18.5-9.7,30.5-18.6,34.2-40.9v-99.9H10.5z M124.1,216
		c0,4.9-2.2,10.9-4.2,15.3c-6,10.6-11.4,14.4-25.8,22.5c0,0-0.1,0.1-0.1,0.1c-8.3,4.8-16.1,9.7-23.6,15.7
		c-7.4-5.5-14.4-10.3-22.6-14.9c-5.2-2.6-16.1-9.1-19.6-13.1c-2.7-2.4-11.4-12-12-26.3c0-29.3,0-58.7,0-88h107.9V216z"/>
	<g>
		<polygon points="88.4,237.4 87.5,236.9 88.3,235.5 89,234.4 90.1,232.9 91.1,231.8 91.9,231 92.4,230.3 92.4,229.6 92.2,229.1 
			91.8,228.6 92.7,227.9 93.2,228.6 93.5,229.5 93.4,230.7 92.7,231.7 91.8,232.6 90.9,233.6 89.9,235 89.2,236 		"/>
	</g>
	<g>
		<path d="M79.1,257.5l1.5-1c1.3-0.9,1.7-1.3,1.3-2.4l0,0c-0.2-0.5-0.5-1.1-0.1-1.8l0.9,0.5c-0.1,0.2,0,0.5,0.2,0.9l0,0.1
			c0.4,1.2,0.1,2-0.4,2.6c0.1,0,0.1,0,0.1,0c0.1,0,0.1,0,0.2,0l0,0c1.7-0.8,1.7-1.7,1.4-3.6l-0.1-0.6l0-0.1c0-1.2-0.6-1.8-1.5-2.6
			c-0.1-0.1-0.2-0.2-0.3-0.3c-0.5-0.5-0.8-0.8-1.1-1.7l0-0.1c-0.2-0.8,0-1.4,0.3-2l1,0.4c-0.2,0.6-0.3,0.9-0.3,1.3
			c0.2,0.6,0.4,0.8,0.9,1.2c0.1,0.1,0.2,0.2,0.3,0.3c1,0.9,1.8,1.8,1.9,3.3l0.1,0.5c0.3,2,0.4,3.6-2,4.8l-0.2,0.1
			c-0.1,0-0.1,0-0.2,0c-0.4,0.1-0.6,0.1-0.8,0.1L79.1,257.5z"/>
	</g>
	<g>
		<path d="M81.8,254.6c-0.9,0-1.9-0.6-2.8-1.7l0,0l0-0.1c0-0.1-0.1-0.2-0.1-0.3c-0.4-0.8-0.8-1.7-0.8-2.6l-0.3-0.4c0,0,0,0,0,0
			c-0.1,0-0.2-0.1-0.3-0.2l-0.7-0.1l0.1-1l0.9,0.1c0.2,0.1,0.4,0.2,0.6,0.3c0,0,0.1,0.1,0.1,0.1l0.1,0.1l0.5,0.9v0.2
			c0,0.6,0.4,1.6,0.8,2.3c0,0.1,0.1,0.2,0.1,0.3c0.3,0.4,1.3,1.6,2.3,1.2l0.4,1C82.4,254.5,82.1,254.6,81.8,254.6z"/>
	</g>
	<g>
		<path d="M71.7,262c-0.5,0-1-0.1-1.6-0.3l0,0l0,0c-1.1-0.8-1.4-1.6-1.6-2.7l0,0c-0.1-0.4-0.1-0.6-0.1-1l0-0.6
			c0-0.5,0.1-0.7,0.4-1.1l0-0.1l0.1,0c0.5-0.4,0.9-0.6,1.7-0.5l0.1,0l0.6,0.3l0.1,0.1c0.8,0.8,0.8,1.6,0.7,2.1
			c1.2-0.1,1.5-0.4,2.3-1.9c1.4-2.4,2.2-3.5,4.5-5.1l0.6,0.9c-2,1.4-2.8,2.3-4.2,4.7c-1,1.9-1.6,2.4-3.5,2.4c0,0.7,0.3,1.3,1.3,1.8
			l1.4,0.8l-1.6,0.2C72.4,261.9,72,262,71.7,262z M70.6,260.7c0.2,0.1,0.4,0.1,0.6,0.2c-0.6-0.8-0.7-1.6-0.6-2.4c0,0,0,0,0,0l0-0.5
			l0.1,0c0,0,0,0,0,0c0.2-0.3,0.4-0.6-0.2-1.2l-0.2-0.1c-0.3,0-0.5,0-0.8,0.3c-0.1,0.2-0.2,0.2-0.2,0.5l0,0.6c0,0.3,0,0.5,0,0.8
			C69.7,259.7,69.8,260.2,70.6,260.7z"/>
	</g>
	<g>
		<path d="M68.6,256.8l-0.3-0.8l0-0.1l0.1-0.8l0-0.1l0.3-0.7l0.9-0.8l0.9-0.7l0.5-0.6l0.7-0.9c0,0,0-0.1,0-0.1c0,0,0-0.1,0.1-0.1
			l1,0.4c0,0.1-0.1,0.1-0.1,0.2c0,0,0,0.1,0,0.1l0,0l-0.8,1l-0.6,0.7l-1,0.8l-0.7,0.6l-0.2,0.4l0,0.5l0.3,0.6L68.6,256.8z"/>
	</g>
	<g>
		<path d="M64.3,258.4l-2.6-1.6l-0.5-0.7l-0.5-0.8l-0.3-1.1l0.1-0.1l-0.2-0.9l0.2-0.8l0.5-0.9l0.5-0.6l0.8-0.7l0.9-0.2l0.9,0.3
			l0.7,0.4l0.1,1l-0.1,0.2l-0.1,0.5l-0.1,1.2l-0.3,0.1l0.4,0.3l0.8,0.2l0.6-0.2l0.5-0.5l0.6-0.4l0.2-0.1c0,0,0,0,0,0
			c0.1-0.1,0.3-0.3,0.6-0.3l0.9-0.2c0,0,0,0,0,0l0.1-0.1l0.2,0l1-0.2l1,0l0,0c-0.1,0-0.2,0-0.3,0.1l0.9,0.5c0,0,0,0.1,0,0.1
			c0,0.1-0.2,0.4-0.6,0.4l-0.9,0l-0.8,0.1l-0.1,0.1l-1.3,0.3c-0.1,0.1-0.2,0.2-0.4,0.3l-0.1,0l-0.5,0.3l-0.6,0.6l-0.2,0.1l-0.9,0.3
			l-1.3-0.4l-1-0.8l-0.1,0l-0.2,0.3l-0.2,0.4l-0.1,0.3l0.1,0.5l0.1,0.5L64.3,258.4z M61.7,254.9L61.7,254.9l0.2-0.5l0.3-0.6l0.4-0.5
			l0.9-0.5l0.1,0l0.2-0.1l0-0.6l0.2-0.5l0-0.2l-0.2-0.1l-0.5-0.2l-0.3,0.1l-0.5,0.5l-0.4,0.5l-0.4,0.6l-0.1,0.4l0.4,1.5l-0.1,0
			L61.7,254.9z"/>
	</g>
	<g>
		<polygon points="63.9,253.7 60.6,250.9 64.4,252.7 64.2,253.2 64.5,252.8 64.6,252.9 		"/>
	</g>
	<g>
		<polygon points="62.5,251.4 62.2,251.1 61.6,250.9 61.7,250.7 62.3,250.2 62.4,249.7 62.9,249.2 63.7,248.7 64.6,248.7 
			68.3,248.6 69,248.6 70.4,248.3 71.2,248 71.9,247.7 72.5,247.3 72.9,247 73.4,246.6 73.7,246.3 74.6,245.3 76,243.5 76.4,242.9 
			76.8,242.1 77.5,240.8 79.4,237 79.8,236.1 80,235.4 80.5,234.3 80.9,233.6 81.8,232.2 82.7,231.5 83.7,230.6 84.2,230.3 
			84.8,230.1 85.3,229.9 85.8,229.6 86.5,229.2 86.8,228.7 86.9,228.7 87.2,228.2 88.1,228.7 87.6,229.5 87.5,229.6 87.2,230 
			86.4,230.5 85.7,230.9 85.1,231.1 84.7,231.2 84.3,231.5 83.4,232.3 82.6,233 81.8,234.2 81.4,234.8 81,235.7 80.8,236.5 
			80.3,237.5 78.4,241.3 77.7,242.6 77.3,243.4 76.9,244.1 75.4,245.9 74.4,247.1 74.1,247.4 73.6,247.9 73.1,248.2 72.2,248.7 
			72.2,248.7 71.4,249.1 71.3,249.1 70.6,249.3 69.1,249.6 69,249.6 68.2,249.7 64.7,249.7 64,249.8 63.6,250 63.4,250.3 
			63.2,250.8 		"/>
	</g>
	<g>
		<path d="M73.3,235.5l0.5-1.3l0.7-0.6l0.4-0.4l0.1-0.3l0.1-0.2l0-0.4l0-0.3l0-0.3l-0.1,0l-0.3,0.4l-0.7,0.7l-2.5,0.4l-1.2-0.1
			l-2-0.3l-0.7-0.6l-0.4-0.7l-0.2-0.6l0-0.6l0-0.1l0-0.8l0.1-1.6l1.7,1.2l0.3,0.2l0.4,0.2l0.4,0.1l0.2,0l0,0l0.5,0l0.3-0.1l0.2-0.2
			l0.2-0.2l0.2-0.4l0.3-0.4l0-0.1l0.1-0.6v-0.5l-0.2-1l-0.1-1.1l-0.3-1.7l-0.1-1.3l-0.2-2.2l-0.1-1.6l0-0.1l0.2-0.8l0.1-0.1l0.5-1.2
			l1.1-1.5l1-1.1l1-1.1l0.5-0.6l-1-0.2L73,211l-1.1-0.2l-1-0.2l-1,0l-0.9-0.1l-0.6,0l-1.6,0.2l-0.3,0.1l0.3,0.6l0.4,0.8l0.2,0.7
			l0.5,1.8l0.2,2.2l-0.1,0.2l-0.3,1.9l-0.1,0.1c0,0.1-0.1,0.2-0.2,0.3l-0.6,1.3l-0.2,0.2l-1,1.4l-0.1,0.4l0.2,4.7l-1.5-1.3l-2,1.7
			l-4-0.9l-0.4-1.8l-0.6,0.5l-1.1,0.5l-1.3,0.2h-0.1l-1.6,0.1l0.9-1.5l0.3-0.9l0.3-1l1,0.3l-0.3,1l-0.3,0.8l0.9-0.1l0.8-0.4l0.4-0.3
			l1-2.3l0.7,2.3l0.4,1.7l2.9,0.7l0.1-0.1l-1.2-0.6l0-0.2l-0.4-0.2l0.6-1.7l1.1-1.6l0.9,1.1l1.3,1.3l0.4,0.3l-0.1-2.5l0.1-0.8
			l0.2-0.2l1.1-1.6l0.7-1.5l0.1,0l0.3-1.8l-0.2-1.9l-0.5-1.7l-0.2-0.6l-0.3-0.7l-0.3-0.7l-0.5-0.9l0.8-0.3l0.9-0.2l1.7-0.2l0.7,0
			l1,0.1l1,0l1.1,0.2l1.2,0.2l1.2,0.3l3,0.6l-1.5,1.4l-0.5,0.5l-1,1.1l-0.9,1.1l-1,1.3l-0.5,1.3l-0.1,0.5l0.1,1.4l0.2,2.1l0.1,1.3
			l0.3,1.7l0.1,1.1l0.2,1.1v0.7l-0.2,1l-0.3,0.5l-0.3,0.5l-0.3,0.3l-0.4,0.4l-0.2,0l-0.4,0.2l-0.5,0l-0.1,0l-0.6,0l-0.5-0.1
			l-0.6-0.2l-0.6-0.4l0,0.3l0,0l0,0.6l0.1,0.4l0.2,0.4l0.4,0.3l1.7,0.3l1,0.1l2.1-0.4l0.5-0.5l0.4-0.5l0.9-1.6l0.5,1.1L76,231
			l0.1,0.7l0,0.5l-0.1,0.6l-0.1,0.2l0.3-0.2l0,0l0.4-0.4l0.3-0.3l0.4-0.6l0.1-0.4l0.2-1.5l1,0.2l0.6,0.1l0.8,0.1l1.5,0.2l0.8,0
			l1.9,0v1.1h-1.9l-0.9,0l-1.5-0.2l-0.9-0.1l-0.6-0.1l-0.1,0.5l-0.1,0.6l-0.5,0.8l-0.4,0.4l-0.7,0.6l-0.1,0l-0.6,0.4l-0.7,0.4
			l-0.8,0.4c0,0-0.1,0-0.1,0L73.3,235.5z M63,225.9h0.9l-0.4-0.3l-1.4-1.4l-0.2,0.3l-0.2,0.7c0,0,0.1,0.1,0.1,0.1L63,225.9z"/>
	</g>
	<g>
		<polygon points="43.7,227.4 43.3,226.4 44.6,226 46.2,225.7 47.9,225.6 50.4,225.4 52.3,225.4 53.9,225.3 54,226.3 52.3,226.4 
			50.4,226.4 47.9,226.6 46.3,226.8 44.9,227 		"/>
	</g>
	<g>
		<polygon points="52.4,226.2 51.6,225.6 51.9,225.2 52.2,224.5 52.4,223.8 52.5,222.9 53.6,223.1 53.4,224.1 53.1,225 52.7,225.8 
					"/>
	</g>
	<g>
		<polygon points="50.7,226.1 49.7,225.7 49.9,225.4 50.3,224.6 50.5,224 50.7,222.9 50.8,222.9 51.8,222.9 51.8,223.1 51.5,224.3 
			51.2,225.1 50.8,225.9 		"/>
	</g>
	<g>
		<polygon points="48.5,226.4 47.7,225.8 47.9,225.5 48.4,224.8 48.6,224.4 48.9,223.9 49.1,223.4 49.2,222.9 50.2,223.2 50,223.7 
			49.8,224.3 49.6,224.9 49.3,225.3 		"/>
	</g>
	<g>
		<polygon points="45.9,226.7 45.2,226 45.6,225.6 45.9,225.3 46.2,225 46.4,224.6 46.8,224.1 47,223.6 47,223.3 48.1,223.4 
			48,223.9 47.7,224.6 47.3,225.2 47,225.6 46.7,226 46.3,226.4 		"/>
	</g>
	<g>
		<path d="M38.9,234.5l-0.8-0.2l-0.8-0.5l-2.2-2.2l2.2,0.5l0.7,0l0.6-0.2l0.4-0.3l0.3-0.4l0.2-0.3l0-0.4l0.1-0.2l0.3-0.5l0.2-0.1
			l0.4-0.3l0.7-0.1l0.2,0l0.4,0l0.2,0.1l0.5,0.2l0.3,0.2L43,229l0-1.1l0-0.9l-0.1-0.8l0-0.1l0-0.7l0.4-0.6l0.6-0.4l0.7-0.4l0.5,0.9
			l-0.7,0.4l-0.4,0.3l-0.1,0.2l0,0.2l0,0l0.2,0.9l0,1.1l0,1.1l-0.3,1.2l-0.3,0.8l-0.4,0.9l-0.5,0.9l-0.9,0.8L41,234l-0.7,0.3
			l-0.7,0.1L38.9,234.5z M38.5,233.3l0.5,0.1l0.5,0l0.5-0.1l0.5-0.2l0.5-0.4l0.7-0.6l0.4-0.7l0.3-0.7l0,0l-0.4-0.2l-0.4-0.2l-0.3,0
			l-0.4,0.1l-0.3,0.2l-0.1,0.1l0,0.5l-0.4,0.7l-0.5,0.6l-0.7,0.4l-0.8,0.2L38.5,233.3z"/>
	</g>
	<g>
		<polygon points="39.9,231.5 39.3,231.4 38.8,231 38.3,230.7 38.3,230.5 38.1,230.2 37.8,229.7 37.8,228.6 37.9,228 38.2,227.1 
			38.7,226.1 39,225.4 39.2,224.9 39.2,224.3 39.1,223.3 40.1,223.2 40.3,224.3 40.2,225.1 40,225.8 39.7,226.6 39.2,227.6 
			38.9,228.3 38.8,228.8 38.8,229.4 39,229.6 39.2,230 39.5,230.2 39.8,230.4 40.2,230.5 		"/>
	</g>
	<g>
		<path d="M29.1,232.1l-2-1.5l-0.7-0.6l-0.6-0.9l-0.3-0.6l-0.2-0.9l0.1-1l0.1-0.5l0.3-0.7l0.7-0.6l0.7-0.5L28,224l0.5-0.2l0.7,0.1
			l0.4,0.3l0.4,0.4l0.2,0.8v0.6l-0.2,0.9l-0.5,0.5l-0.1,0l0.1,0.1l0.2,0.1l0.4,0.1h0.1l0.4,0l0.8-0.3l0.9-0.3l1-0.3l0.1,0l1.4-0.3
			l1.3-0.2l1.9-0.1l1,0c0,0,0,0,0,0c0.2,0,0.4,0.1,0.5,0.2l0,0l-0.7,0.8c0.1,0,0.2,0.1,0.2,0.1c0,0-0.1,0-0.1,0l0,0l-0.9,0l-1.8,0.1
			l-1.2,0.2l-1.2,0.2c-0.1,0-0.2,0.1-0.2,0.1l-0.8,0.2l-0.9,0.2l-0.8,0.3l-0.9,0l-0.4-0.1h-0.1l-0.5-0.3l-0.2-0.1l-0.2-0.3l-0.1,0.2
			l-0.2,0.4l-0.1,0.8l0.1,0.6L29.1,232.1z M26.8,228.6l0.3,0.4l0.1-0.8l0.3-0.7l0.4-0.5l0.5-0.6l0.2,0.1l0.4-0.1l0.1-0.1l0.1-0.5
			v-0.4l-0.1-0.3l-0.2-0.1l-0.1-0.1l-0.2,0l-0.2,0.1l-0.5,0.2l-0.6,0.4l-0.5,0.4l-0.2,0.5l-0.1,0.3l-0.1,0.7l0.2,0.7L26.8,228.6z"/>
	</g>
	<g>
		<polygon points="32.9,227.8 31.9,227.5 32,227 32.1,226.5 32.2,226.1 32.2,225.5 33.2,225.5 33.2,226.2 33.2,226.8 33,227.3 		"/>
	</g>
	<g>
		<polygon points="28.7,224.5 27.6,224.4 27.7,223.9 27.9,223.3 28.2,222.9 28.7,222.6 29.4,222.5 32.1,222.4 32.8,222.3 
			33.2,222.2 33.8,221.9 34.2,222.8 33.6,223.1 33,223.4 32.2,223.4 29.4,223.5 29.1,223.6 29,223.7 28.8,223.9 28.7,224.1 		"/>
	</g>
	<g>
		<path d="M32.2,223.3l-0.9-0.6l-0.7-0.4l-0.7-0.4l-0.5-0.1l-0.8-0.2l-0.8-0.1l-0.8-0.2l-0.7-0.3l-0.6-0.4l-0.4-0.7l-0.2-0.9l0-0.2
			l-0.1,0l-0.5,0.3l-0.3,0.3l-0.3,0.4l-0.2,0.5l-0.7,1.8l-0.7-2.2l-0.2-1.2l0.2-1.2l0.4-0.8l0.1-0.1l0.6-0.6l0.9-0.5l0.7-0.3L26,215
			h0.8l0.6,0.1l0.6,0.3l0.4,0.3l0.2,0.6l0,1.1l-0.4,0.7l-0.4,0.5l-0.7,0.3h-0.6l0.1,0.5l0.2,0.3l0.3,0.2l0.5,0.2l0.7,0.1l0.8,0.1
			l0.8,0.2l0.7,0.2l0.8,0.5l0.7,0.4l0.9,0.6L32.2,223.3z M23.3,218.5l0.1,0.3l0.2-0.3l0.4-0.4l0.8-0.4l0.3,0l0-0.4l1.4,0.6h0.2
			l0.3-0.1l0.2-0.2l0.2-0.4l0-0.7l0-0.1l-0.1,0l-0.4-0.2l-0.3-0.1H26l-0.5,0.1l-0.6,0.2l-0.6,0.4l-0.5,0.5l-0.2,0.4L23.3,218.5z"/>
	</g>
	<g>
		<polygon points="37.2,221 35.9,220.8 35.1,220.6 34.1,220.1 33.1,219.5 31.9,218.6 30.7,217.4 29.7,216.6 28.7,216 28.1,215.9 
			27.7,216 27.4,216.1 26.9,215.2 27.4,214.9 28.1,214.9 29.1,215 30.3,215.7 31.4,216.6 32.6,217.8 33.7,218.6 34.6,219.2 
			35.5,219.6 36.1,219.8 37.2,219.9 38.4,219.8 39,219.6 39.3,220.7 38.5,220.8 		"/>
	</g>
	<g>
		<path d="M31.8,218.4l-0.7-1.4c-0.5-0.7-0.7-1.1-0.7-2.2l0-0.1c0.1-0.7,0.3-1.1,0.6-1.5c-0.1-0.1-0.3-0.2-0.6-0.3
			c-0.7,0-1,0.1-1.6,0.6l-1.6,1.2l0.8-1.8c0.6-1.4,1.5-2.3,2.6-2.6c0.9-0.3,1.9-0.1,3,0.5l0,0l0,0c0.5,0.4,1,0.9,1.4,1.6l0.1,0.1
			l0,0.1c0,0.9-0.3,1.6-0.9,2c-0.5,0.4-1.3,0.4-2.2,0.2l-0.2-0.1l-0.1-0.2c0-0.1-0.1-0.2-0.1-0.3c-0.1,0.2-0.2,0.4-0.2,0.7
			c0,0.7,0.1,0.8,0.5,1.5l0,0.1l0.7,1.5L31.8,218.4z M32.7,213.9c0.3,0.1,0.7,0.1,1-0.1c0.3-0.2,0.4-0.7,0.4-1.1
			c-0.3-0.4-0.6-0.8-1-1.1c-0.7-0.4-1.4-0.6-2.1-0.4c-0.4,0.1-0.7,0.4-1,0.7c0.2,0,0.4,0,0.6,0l0.1,0l0.1,0c0.6,0.2,1,0.4,1.4,1
			l0.2,0.3l0,0C32.5,213.5,32.6,213.6,32.7,213.9z"/>
	</g>
	<g>
		<path d="M38.1,220.7c-0.4-0.3-0.7-0.6-1.1-0.9l0,0l-0.5-0.4c-0.8-0.8-1-1.2-1.2-2.1c0-0.1-0.1-0.2-0.1-0.3l0-0.1l0-0.3
			c0-0.3,0.1-0.6,0.1-0.9l0-0.1c0.3-0.8,0.4-1.2,0.1-2c-0.3-0.5-0.5-0.5-0.8-0.5l-0.2-1c1.2-0.2,1.7,0.7,1.9,1l0,0.1l0,0.1
			c0.3,1.1,0.3,1.7-0.1,2.7c-0.1,0.3-0.1,0.5-0.1,0.8l0,0.1c0,0.1,0,0.2,0.1,0.2c0.2,0.8,0.3,1,0.9,1.6l0.4,0.3
			c0.4,0.3,0.8,0.6,1.1,0.9L38.1,220.7z"/>
	</g>
	<g>
		<path d="M32.7,217.5c-0.4,0-0.8-0.1-1.3-0.3l0.3-1c1,0.3,1.2,0.3,2.1-0.2l0.5,0.9C33.6,217.3,33.2,217.5,32.7,217.5z"/>
	</g>
	<g>
		<path d="M39.3,220.6l-0.4-1l1.1-0.4c3.3-0.6,4.2-0.8,7.1-2.2l1.9-1c1.6-0.9,2.6-1.3,4.3-1.8l0,0l0.1,0c1.4-0.1,2-0.2,3.5,0.1
			l0.1,0l0.1,0.1c0.9,0.6,0.9,0.6,3.1,0.1c0.3-0.1,0.6-0.1,1-0.2l0.2,1c-0.4,0.1-0.7,0.1-1,0.2c-2.4,0.5-2.7,0.6-3.8-0.2
			c-1.2-0.2-1.7-0.2-3-0.1c-1.6,0.5-2.6,0.8-4.1,1.7l-2,1.1c-3,1.4-4,1.6-7.3,2.3L39.3,220.6z"/>
	</g>
	<g>
		<path d="M55.2,222.5l-0.4-1l1-0.4l1-0.5H57l1.1-0.2l0.1,0l1.3-0.3h0.2l0.9-0.1h0.2l0.9-0.1h0.2l0.9-0.2l0.2-0.2l0.3-0.3
			c0-0.1,0-0.1,0.1-0.1l0.1-0.4c0,0,0,0,0,0c0,0,0-0.1,0-0.1l0-0.7l1.1,0.1l-0.1,0.9l0,0.1c0,0,0,0.1,0,0.1l-0.2,0.6l0,0l0,0.1
			l-0.3,0.3c0,0.1-0.1,0.2-0.2,0.3l-0.5,0.4h-0.2c0,0-0.1,0-0.1,0l-1,0.2h-0.3l-0.9,0.1h-0.2l-0.9,0.1h-0.2l-1.1,0.2l-0.1,0
			l-1.3,0.3l-0.9,0.4L55.2,222.5z"/>
	</g>
	<g>
		<path d="M56,215.2c-1.6-1.5-2.6-2.6-3.9-4.1c-1.9,1.8-4,1.3-5.8,0.5l-1.6-0.7l1.7-0.3c1.6-0.3,2.1-0.4,2.4-1.4
			c-1,0.2-2,0.1-3.3-0.5l-0.1,0l-0.1,0c-0.6-0.4-0.9-0.7-1.4-1.3l0,0c-1.6-2-1.3-3.8,0.8-5.7l1.1-1l-0.2,1.4
			c-0.1,1.1,0.3,2.3,0.9,2.7c0.4,0.2,0.9,0.2,1.4-0.2l0.1,0c1.6-0.8,2.2-1.8,3.1-3.3c0.2-0.3,0.3-0.6,0.5-0.8
			c0.7-1.1,1.5-2.3,2.3-3.4l0-0.1l0,0c2.4-2,5.3-2.2,7.9-2.1c1.5,0,2.7,0.2,3.9,0.4c1,0.2,2,0.3,3.1,0.4c1.4,0,2.2-0.9,2.9-2.5
			l0.9,0.5c-0.8,1.6-1.8,3.1-3.9,3.1c-1.2,0-2.3-0.2-3.3-0.4c-1.2-0.2-2.4-0.4-3.8-0.4c-3,0-5.3,0.3-7.2,1.8
			c-0.8,1.1-1.5,2.3-2.3,3.3c-0.2,0.3-0.3,0.6-0.5,0.8c-0.9,1.5-1.7,2.8-3.5,3.7c-0.9,0.6-1.8,0.6-2.5,0.1c-0.7-0.4-1.2-1.3-1.4-2.3
			c-0.8,1.1-0.7,2.1,0.2,3.3c0.4,0.5,0.7,0.7,1.2,1.1c1.4,0.6,2.2,0.6,3.4,0.2l1-0.4l-0.2,1c-0.4,1.6-0.8,2.3-1.7,2.6
			c1.4,0.2,2.4-0.2,3.3-1.2l0.4-0.4l0.4,0.5c1.4,1.7,2.5,2.8,4.2,4.4L56,215.2z"/>
	</g>
	<g>
		<path d="M65.8,198c-1.1,0-2.2-0.1-3.6-0.2l0.1-1.1c2.8,0.2,4.5,0.3,6.9-0.1c2.2-0.4,3-0.7,5.2-1.5l0.4,1c-2.2,0.9-3.1,1.2-5.4,1.6
			l0,0C68.1,197.9,67,198,65.8,198z"/>
	</g>
	<g>
		<path d="M79.4,206.6l-1-1.9c-0.9-1.7-2.7-2.9-4.6-4.1l-0.1-0.1c-0.9-0.6-1.1-0.7-2.1-1l-0.8-0.2l0.5-0.6c0,0,0.1-0.1,0.1-0.1
			c0.1-0.2,0.3-0.3,0.6-0.5l0,0c0.2-0.1,0.4-0.2,0.5-0.2c0.7-0.3,1.4-0.6,2.3-0.6l1.1,0l0,1.1l-1.1,0c-0.7,0-1.3,0.2-1.9,0.5
			c0,0-0.1,0-0.1,0c0.4,0.2,0.8,0.4,1.4,0.8l0.1,0.1c1.4,0.9,2.8,1.8,3.9,2.9c-0.2-1.5-0.6-2.5-1.3-3.2l0.8-0.7
			c1.1,1.1,1.7,3.1,1.7,5.8L79.4,206.6z"/>
	</g>
	<g>
		<path d="M76.7,211.6l-0.8-0.7c1.1-1.4,1.8-2.7,2.3-4.7l0.1-1.8l1.1,0.1l-0.2,1.9C78.7,208.5,78,210,76.7,211.6z"/>
	</g>
	<g>
		<polygon points="75.6,198.1 74.2,196 73.3,194.9 72.2,193.8 70.7,193.2 68.4,192.2 68.2,192.1 65.9,191 64.3,190.2 62.7,189.4 
			60.8,187.9 59.6,186.9 58.6,185.5 61,185.4 61.2,185.3 63.3,184.9 64.7,184.7 64.9,184.7 66.2,184.1 67.9,183.9 69.4,184 
			71.1,184.7 70.7,185.6 69.2,185 67.9,185 66.5,185.2 65.2,185.7 64.9,185.8 63.5,185.9 61.1,186.4 60.7,186.4 61.5,187.1 
			63.3,188.5 64.8,189.3 66.3,190.1 68.6,191.2 68.8,191.2 71.1,192.2 72.8,192.9 74,194.2 75.1,195.4 76.5,197.5 		"/>
	</g>
	<g>
		<path d="M37,193.7l-0.3-0.4c-0.9-1.3-1-1.6-0.1-3l0.9,0.5c-0.3,0.5-0.5,0.8-0.5,1c0,0.1,0.1,0.3,0.2,0.5l1.4-0.8l2-0.6l2.4-0.4
			h0.1l4.3-1.2l0.7,1.4l0.6,0.4l0.9,0.1h0.1l0.3-0.1l-0.7-0.8v-1.5l0.4-0.9l1.4-1l0.4,1.5l0,0l0.9,1.1l1.2,0.8l1.2,0.2h0.2l1.2,0
			l1.6-0.3l0.1,0l-0.6-0.2l-0.2-0.1l-0.9-0.5l-0.2-0.2l-1.2-1l-0.3-1.3l0.5-1.1l1.1-0.3c0,0,0,0,0,0l0.1-0.1l1.5,0l0.2,0l1,0
			c0,0,0.1,0,0.1,0c0.2,0,0.4,0,0.6,0.2l-0.7,0.8c0,0,0.1,0,0.1,0l0,0c0,0-0.1,0-0.2,0l-0.9,0l-0.1,0c-0.1,0-0.2,0-0.3,0l-1.1,0
			c-0.1,0.1-0.2,0.1-0.3,0.1l-0.5,0.1l-0.1,0.3l0.1,0.6l1,0.8l0.1,0.1l0.9,0.5l1.2,0.4l0.1,0l2.8,0.2l-3.7,1.6l-1.8,0.3l-1.6,0
			l-1.5-0.3l-1.5-1l-1-1.3l-0.1-0.2l0-0.2l-0.1,0.3v0.8l0.4,0.5l1.8,0.9l-1.8,0.7l-1.1,0.2l-0.3,0l-1.2-0.2l-1-0.6l-0.5-0.9l-3.6,1
			h-0.2l-2.2,0.4l-1.8,0.6L37,193.7z"/>
	</g>
	<g>
		<path d="M35.7,201.1c-0.3,0-0.7,0-1.1,0c-0.2,0-0.3,0-0.5,0l-1.6-0.1l1.3-0.9c0.2-0.2,0.4-0.2,0.6-0.2c0.1,0,0.1,0,0.1,0l0.1-0.1
			c0.6-0.6,0.8-0.7,0.9-1.5l-0.1-1.2l0-0.1c0.2-0.7,0.5-1.2,1-1.4c0.5-0.2,1-0.1,1.5,0.1c-0.3-0.9-0.6-1.3-1.2-2.3l0.9-0.6
			c0.8,1.1,1.1,1.6,1.5,3.1l0,0.1l-0.1,1.2C38.7,200.5,37.6,201.1,35.7,201.1z M35.8,200.1C35.8,200.1,35.8,200.1,35.8,200.1
			c1.5,0,1.9-0.5,2.2-3.1l0-0.2c-0.5-0.3-0.9-0.4-1.2-0.3c-0.2,0.1-0.3,0.3-0.4,0.6l0.1,1.2l0,0.1C36.5,199.2,36.2,199.7,35.8,200.1
			z"/>
	</g>
	<g>
		<path d="M35.9,198.8c-0.8-0.2-1-0.3-1.7-0.7l-0.2-0.1l-0.1-0.1c-0.8-1.2-0.8-1.9-1-2.9c0-0.1,0-0.3,0-0.5c0-0.2-0.1-0.3-0.1-0.5
			c-0.2-0.9-0.3-1.2-1.1-1.6l0.5-0.9c1.3,0.7,1.5,1.4,1.7,2.4c0,0.1,0.1,0.3,0.1,0.5l0,0.1c0,0.2,0,0.3,0.1,0.5
			c0.1,1,0.2,1.5,0.7,2.4c0.6,0.4,0.6,0.4,1.3,0.6L35.9,198.8z"/>
	</g>
	<g>
		<path d="M27.1,201.8l-1.1-0.3c-0.1,0-0.2-0.1-0.4-0.1c-0.4-0.1-0.8-0.3-1.4-0.5l-0.1,0c-0.8-0.6-1.3-1.3-1.4-2.2
			c-0.1-1,0.3-2.2,1.1-3.3l0.1-0.1l0.1-0.1c0.5-0.2,1.2-0.4,1.7-0.1c0.6,0.3,0.8,1,0.9,1.7l0,0.1l0,0.1c-0.1,0.3-0.1,0.5-0.2,0.7
			c0.7-0.1,1.3-0.2,1.8-1.5l0-0.1l0.5-0.8l0.1-0.1c1.2-0.6,2.9-1.1,4.3-1.5l0.3,1c-1.3,0.3-2.9,0.9-4,1.4l-0.3,0.4
			c-0.8,2-2.1,2.1-2.9,2.2c-0.1,0-0.3,0-0.4,0c0,0.1,0,0.6,0.6,1.9L27.1,201.8z M24.9,200c0.2,0.1,0.3,0.2,0.4,0.2
			c-0.3-0.9-0.3-1.5-0.1-1.8c0.1-0.1,0.1-0.2,0.2-0.2c0.2-0.4,0.3-0.8,0.4-1.2c-0.1-0.6-0.2-0.8-0.3-0.9c0,0-0.2-0.1-0.7,0.1
			c-0.6,0.8-0.9,1.7-0.8,2.4C24,199.1,24.3,199.5,24.9,200z"/>
	</g>
	<g>
		<path d="M24,195.9c-0.5-1.6,0.3-2,1.2-2.4c0.2-0.1,0.4-0.2,0.6-0.3c0.5-0.3,0.9-0.6,1.4-0.8c0.6-0.3,1.2-0.6,2-1.2l0.9-0.8
			l0.7,0.8l-0.9,0.9c-0.8,0.7-1.5,1-2.1,1.4c-0.4,0.2-0.8,0.4-1.3,0.7l-0.1,0c-0.2,0.1-0.5,0.2-0.7,0.3c-0.8,0.4-0.8,0.4-0.6,1.1
			L24,195.9z"/>
	</g>
	<g>
		<path d="M23.3,193.1L23.3,193.1l-0.2,0c-1.1-0.3-1.4-0.5-1.8-1.7l1-0.3c0.2,0.8,0.2,0.8,1,1c0.3,0,0.5,0,0.8-0.1l0,0
			c0.6-0.2,0.6-0.2,1.1-0.7l0.2-0.2l0.4,0c0.3,0,0.6,0.1,0.9,0.1c1,0,1.4,0.1,2.3,0.3l-0.2,1c-0.9-0.2-1.2-0.3-2.1-0.3
			c-0.3,0-0.6,0-0.9-0.1c-0.4,0.4-0.6,0.5-1.2,0.7l-0.1,0l-0.1,0C23.9,193.1,23.7,193.1,23.3,193.1z"/>
	</g>
	<g>
		<rect x="25.1" y="190.3" transform="matrix(0.9935 0.114 -0.114 0.9935 21.9499 -1.6739)" width="1.1" height="1.4"/>
	</g>
	<g>
		<path d="M21.3,194.9l-1-0.6c-0.5-0.3-0.7-0.5-1-0.8c-0.1-0.1-0.1-0.2-0.2-0.3l-0.1-0.1l0-0.1c0,0,0-0.1-0.1-0.1
			c-0.2-0.5-0.7-1.5,0.3-3.3l0-0.1l0.1-0.1c0.6-0.6,1.1-1.1,2.1-1.4l0.1,0l0,0c0,0,0,0,0,0l0.1,0h0.7l0.8,0.2l0.4,0.6l0,0.1
			c0.2,1,0,1.6-0.7,2.4l-0.1,0.1c0,0,0,0-0.1,0.1c-0.2,0.2-0.5,0.4-0.8,0.4c0,0,0,0,0,0c-0.1,0-0.2,0-0.3-0.1l-0.2-0.1
			c-0.1,0-0.2,0.1-0.3,0.2c-0.3,0.6-0.2,0.9-0.1,1.7L21.3,194.9z M20.1,190.1c-0.6,1.2-0.4,1.8-0.3,2.2c0-0.3,0.2-0.7,0.4-1.1
			l0.1-0.1l0.1-0.1c0.6-0.4,0.9-0.5,1.1-0.5h0.1l0.4,0.1c0,0,0.1-0.1,0.1-0.1c0,0,0,0,0.1-0.1c0.4-0.5,0.5-0.8,0.4-1.4l0-0.1
			l-0.3-0.1h-0.4c-0.1,0-0.1,0.1-0.2,0.1C20.9,189.3,20.6,189.6,20.1,190.1z"/>
	</g>
	<g>
		<path d="M27.7,188.8l-0.8-0.1l-0.1,0l-0.6-0.2l-0.8-0.3l-0.9-0.2l-1.1-0.2h-0.4l-0.3,0.1l-0.2,0.2l-0.2,0.2l0,0.2l-1-0.2l0.1-0.4
			l0.4-0.5l0.4-0.4l0.7-0.2l0.7,0l1.2,0.2l0.9,0.3l0.9,0.3l0.6,0.2l0.6,0l0.9-0.1l1-0.4l1.1-0.6l1.2-0.5l0.1,0l1.7-0.4l1.7-0.6
			l1.6-0.8l1.6-1.2h0.1l0.9-0.8l2.4-2.2l1.8-1.5c0.9-0.7,1.7-1.4,2.7-2.1c0.5-0.4,1.1-0.9,1.6-1.3c0.7-0.5,1.5-1.1,2.2-1.7l0.1-0.1
			l1.9-1.1c0,0,0.1,0,0.1-0.1c0.4-0.3,0.6-0.4,0.8-0.4l1.3-0.8l1.5-1l0.6,0.9l-1.5,1.1l-1.5,1h-0.1c-0.1,0.1-0.4,0.3-0.5,0.3
			c-0.1,0-0.1,0.1-0.1,0.1l-1.9,1.1c-0.7,0.6-1.4,1.2-2.2,1.7c-0.5,0.4-1.1,0.8-1.6,1.3l0,0c-1,0.7-1.8,1.3-2.6,2l-1.8,1.5l-2.4,2.2
			l-1.2,1H39l-1.4,1l-1.7,0.8l-1.8,0.7l-1.8,0.4l-1.1,0.4l-1.1,0.6l-1.2,0.5L27.7,188.8z"/>
	</g>
	<g>
		<path d="M30.5,187.5L30.5,187.5c-0.4-0.4-1.6-1.5-1.9-1.9l-0.1-0.1l-0.1-0.4c-0.1-0.5-0.1-0.8-0.3-1.4l0-0.1v-0.1
			c0-0.2-0.5-0.7-0.6-0.7c-0.1,0-0.2,0-0.3,0c-0.2,0-0.2,0-0.3,0.1l-0.4,0.4l-0.4-0.4c-0.1-0.1-0.3-0.3-0.6-0.4
			c-0.6-0.1-0.7-0.1-1.3-0.1l0,0c-0.6,0-1.1,0.3-1.5,0.6c-0.3,0.4-0.3,0.4-0.4,0.9l0,0.1c-0.1,0.6-0.1,1-0.1,1.6l-1.1,0
			c0-0.7,0-1.2,0.1-1.8l0-0.1l0-0.1c0.2-0.6,0.2-0.7,0.6-1.3l0-0.1l0.1-0.1c0.6-0.4,1.3-0.9,2.2-0.9c0.7,0,1,0,1.7,0.2l0.1,0
			c0.2,0.1,0.4,0.2,0.6,0.4c0.2-0.1,0.4-0.1,0.6-0.1c0.1,0,0.1,0,0.2,0l0,0c0.8,0,1.6,1,1.7,1.7c0.1,0.6,0.2,0.9,0.3,1.5l0,0
			c0.3,0.3,1.1,1.1,1.8,1.7c0.3,0.2,0.2,0.5,0.1,0.6l-1-0.4l0.5,0.2L30.5,187.5z"/>
	</g>
	<g>
		<path d="M26.9,188.2l-1-0.4c0.2-0.4,0.5-0.7,0.7-0.9c0.3-0.2,0.5-0.5,0.7-1l1,0.4c-0.3,0.8-0.7,1.1-0.9,1.4
			C27.2,187.8,27,188,26.9,188.2z"/>
	</g>
	<g>
		<path d="M25.6,188.2c-0.2-0.2-0.4-0.4-0.6-0.6c-0.7-0.7-1.3-1.2-1-3l0.1-0.5l0.5,0c1.2,0.1,1.5-0.1,1.6-0.3
			c0.1-0.2,0.1-0.6-0.1-1.1l1-0.4l0,0c0,0,0,0,0,0l0,0.1l0,0c0.3,0.9,0.3,1.5-0.1,2c-0.5,0.6-1.3,0.7-2.1,0.7
			c-0.1,0.8,0.2,1,0.7,1.5c0.2,0.2,0.4,0.4,0.7,0.7L25.6,188.2z"/>
	</g>
	<g>
		<polygon points="22.2,185.9 21.2,185.5 21.5,184.7 22.2,184.1 22.9,183.8 23.6,183.6 24.2,183.7 24.7,183.9 25.2,184.4 
			24.5,185.2 24.1,184.8 23.9,184.7 23.6,184.7 23.2,184.8 22.8,185 22.4,185.3 		"/>
	</g>
	<g>
		<path d="M49.1,174.5L49.1,174.5l-2.5-0.1l-2.4-0.5l-0.1,0c-1.7-1.1-3.5-2.7-2.6-5.8l0.5-1.8l0.5,1.8c0.5,1.7,0.8,1.9,0.9,2l0.1,0
			c1.1,0.5,1.8,0.4,3.1,0.1l0.1,0h0.2c1.5-0.6,2.3-1.3,3.2-2.3c0.4-0.4,0.9-0.9,1.5-1.4c1.2-1,1.9-1.6,3.4-2.5l0,0
			c0.1-0.1,0.3-0.1,0.4-0.2c0.4-0.2,0.9-0.5,1.4-0.6c0.9-0.3,1.9-0.5,2.8-0.7c0.3-0.1,0.6-0.1,0.9-0.2l1.2-0.3l0.2,1l-1.2,0.3
			c-0.3,0.1-0.6,0.1-0.9,0.2c-0.9,0.2-1.9,0.4-2.7,0.7c-0.3,0.1-0.8,0.3-1.2,0.6c-0.2,0.1-0.3,0.1-0.4,0.2c-1.4,0.8-2,1.3-3.2,2.4
			c-0.6,0.5-1,0.9-1.4,1.3c-1,1-1.9,1.8-3.6,2.5l-0.1,0h-0.2c-1.4,0.3-2.3,0.5-3.7-0.1c-0.2-0.1-0.4-0.2-0.5-0.4
			c0.3,0.8,1,1.5,2.1,2.3l2.2,0.5l2.3,0.1l1.5,0l0,1.1L49.1,174.5z"/>
	</g>
	<g>
		<polygon points="57.5,171.9 57.2,171.8 56.5,171.5 55.8,170.7 55.3,169.9 54.6,167.6 56,168.2 56.1,168.2 57.2,168.3 58.1,167.8 
			58.8,166.9 59.6,165.7 60.5,164 61,162.3 62,160.6 62.9,159.3 63.8,159.9 62.9,161.2 62,162.7 61.4,164.5 60.5,166.3 59.7,167.6 
			58.8,168.7 58.5,168.8 57.5,169.3 56.2,169.3 56.3,169.5 56.7,170.1 57.2,170.6 57.6,170.8 59.2,170.8 60.8,169.6 62.9,167.2 
			63.9,165.3 64.8,165.8 63.8,167.8 61.5,170.4 59.7,171.7 59.4,171.8 		"/>
	</g>
	<g>
		<path d="M54.4,177.5h-0.2l-1.3-0.3l-0.2-0.1l-1-0.8l-0.6-0.9l-0.7-1.6l2.1,0.6l0.7,0.1l0.5-0.1l0.5-0.3l0.8-0.8l0.9-1.1l0.9-1.2
			l0.8,0.6l-0.9,1.2l-1,1.2l-0.9,0.9l-0.6,0.5l-0.2,0.1l-0.7,0.2l-0.8-0.1l0.1,0.1l0.7,0.6l1,0.3l1.7-0.3l1.3-0.7c0,0,0.1,0,0.1-0.1
			l1.1-0.9l1.2-1.1l0.4-0.4l0.2-1.4l0.1-1.7l1.1,0.1l-0.1,1.8l-0.2,1.7l-0.7,0.7l-1.3,1.1l-1.3,1l-0.1,0l-0.1,0l-1.6,0.8H56
			L54.4,177.5z"/>
	</g>
	<g>
		<path d="M71,182.8h-0.7l-0.8-0.2l-0.1-0.1l-0.5-0.3l-0.1-0.1l-0.9-0.8l-0.2,0.2h-0.1l-0.6,0.5l-0.7,0.4h-0.1l-0.7,0.2h-0.1l-0.7,0
			l-0.5-0.1l-0.6-0.3l-0.1-0.1l-0.3-0.3l-0.4-0.4l-0.7-1.3l1.2,0l0.5,0l0.3-0.1l0.3-0.2l0.2-0.3l0.1-0.4l0.1-0.5l0.1-0.6l0-0.9
			L65,176l-0.2-1.3l-0.1,0.3l-0.2,0.6l-0.2,0.3l-0.5,0.8l-0.6,0.9l-0.9,1l-0.7,0.6l-0.8,0.5l-1.2,0.4l-0.1,0l-0.6,0l-0.6-0.2
			l-0.6-0.4l-0.6-0.6l-1.2-1.8l1.7,0.5l0.3,0l0.3,0l0.2-0.1l0.3-0.2l0.2-0.2l0.3-0.5l0.7-2.4l0.1-0.9l1,0.1l-0.1,1l0,0.1l-0.7,2.6
			l-0.5,0.7l-0.4,0.4l-0.5,0.3l-0.5,0.1l-0.1,0l0,0l0.4,0.2l0.3,0.1l0.5,0l0.7-0.2l0.6-0.4l0.6-0.5l0.8-0.9l0.6-0.8l0.4-0.7l0.1-0.2
			l0.2-0.5l0.2-0.7l0.3-0.8l0.4-0.6l0.9-1l0.3,1.9l0.2,1.1L66,176l0.1,1.1l0,1.1l-0.1,0.7l-0.2,0.7l0,0.1l-0.2,0.4l-0.4,0.5
			l-0.6,0.4h-0.1l-0.3,0.1l0.2,0.2l0.2,0.1l0.3,0.1l0.5,0l0.6-0.1l0.5-0.2l0.7-0.5l0.5-0.6l0.3-0.6l0.2-0.7l0.2-0.8l0-0.7l0-1.5
			l-0.1-1.1l-0.2-0.8l-1.4-5.2l2.6,5.1l0.5,1.2l0.4,1.1l0.4,1l0.3,0.9l0.2,0.8l0,1l-0.1,0.9l-0.4,0.6l-0.5,0.4l0.4,0.1h0.4l0.4-0.1
			l0.6-0.3l0.5-0.4l0.5-0.6l0.2-0.5l0.1-0.5l-0.1-1.1l-0.1-0.9l-0.2-1.1l-0.3-1l-0.3-1.1l-0.3-1.1l-0.1-1.2l-0.2-2.7l1.8,2.5
			l0.5,0.8l0.5,0.9l0.5,1l0.5,1l0.4,0.9l0.3,1l0.1,0.9l0,1l-0.5,0.8l-0.4,0.3l0.4,0.1l0.8,0l0.8-0.4l0.5-0.6l0.4-0.7l0-1.3l-0.1-1.4
			l-0.3-1.3l-0.6-1.4l-0.5-1.3l-0.3-1.2l-0.1-2l3.7,4.6l0.4,0.7l0.4,0.7l0.2,0.9v0.9l-0.4,0.9l-0.2,0.2l0.2,0l0.8-0.2l0.5-0.3
			l0.4-0.4l0.3-0.4l0.2-0.9l0.1-1.3l-0.2-1.3l-0.1-0.3l-1.4-2l-1.1-1.5l-0.2-0.3l0.8-0.6l0.2,0.3l1.1,1.5l1.5,2.1l0.2,0.5l0.2,1.5
			l-0.1,1.5l-0.3,1.2l-0.4,0.7l-0.6,0.6l-0.8,0.4l-1.1,0.2l-0.9-0.1l-0.6-0.1l0,0.4l-0.6,1l-0.7,0.8l-0.2,0.1l-1,0.5l-1.2,0.1
			l-1.1-0.3l-0.6-0.4l-0.1,0.1l-0.6,0.8l-0.7,0.5l-0.8,0.4L71,182.8z M69.5,176.7l0,0.4l0,0.9l-0.2,0.9l-0.2,0.8l-0.4,0.8l-0.4,0.5
			l1.1-0.2l0.3-0.1l0.2-0.2l0.2-0.4l0.1-0.6v-0.8l-0.1-0.7l-0.2-0.8L69.5,176.7z M73,173.3l0.2,0.6l0.3,1.1l0.3,1l0.2,1.1l0.2,1
			l0.1,1.2l-0.1,0.4l0.1-0.1l0.6-0.4l0.2-0.4l0-0.6l-0.1-0.7l-0.3-0.9l-0.4-0.8l-0.5-0.9l-0.5-1L73,173.3z M78.3,173.1l0.6,1.5
			l0.3,1.4l0.1,1.5l0,0.1l0.6-0.5l0.2-0.4V176l-0.2-0.7l-0.3-0.6l-0.4-0.6l-1.1-1.4L78.3,173.1z"/>
	</g>
	<g>
		<polygon points="81.6,170.9 81.2,169.2 81,167.9 82.1,167.8 82.2,169 82.6,170.7 		"/>
	</g>
	<g>
		<path d="M86.3,173.6l-1.4,0l-0.8-0.1H84l-0.8-0.2l0.3-1l0.7,0.2l0.1,0l0.8,0.1h1.1l0.9-0.4l0.1-0.1l-0.4-0.1l-0.6-0.3l-0.6-0.5
			l-0.4-0.7l-0.2-0.6l-0.2-0.9l0-1.8l0-2.4l0.1-2l-0.1-1.8l-0.3-1.7l-0.4-1.2l-0.1-0.3l0.1,0.7l0,0.1l-0.1,1.3l-0.1,0.1l-0.4,0.9
			c0,0.1-0.1,0.1-0.1,0.2l0,0.1l-1.7,1.5l-0.3-1.6l-0.3-1l-0.5-1l-0.7-0.9l-0.7-0.9l-0.8-1.1l-0.5-0.6l-0.7-1l-0.6-0.9l-0.6-1
			l-0.4-0.9l-0.2-0.9l-0.1-0.9l1-0.1l0.1,0.9l0.2,0.8l0.3,0.8l0.5,0.9l0.5,0.8l0.7,1l0.5,0.6l0.8,1.1l0.7,0.9l0.7,1l0.6,1.2l0.3,1
			l0.1-0.1l0,0l0.4-1l0-1.1l-0.1-1.1l-0.2-1l-0.4-1.4l-2.1-4.7l3.6,4.5l0.7,1.2l0.7,1.8l0.4,1.3l0.4,1.8l0.1,1.9l-0.1,2.1l0,2.4
			l0,1.6l0.2,0.7l0.2,0.5l0.2,0.4l0.4,0.3l0.3,0.1l0.6,0.1l1.8-0.1l-0.9,1.3l-0.8,0.8L86.3,173.6z"/>
	</g>
	<g>
		<polygon points="69.1,173.6 68.4,173.5 67.9,173.4 67.5,173.2 67.1,172.9 66.7,172.6 66.5,172.3 67.3,171.6 67.5,171.9 
			67.8,172.1 68,172.3 68.3,172.4 68.6,172.5 69.1,172.5 69.7,172.5 70.6,172.2 71.1,171.8 72,170.4 73.2,170.8 73.6,171 
			74.2,171.1 74.7,171.1 75.2,171.1 75.6,170.9 76.2,170.5 76.3,170.5 76.9,170 77,169.7 77.1,169.5 77,169.3 76.3,167.5 78,168.4 
			78.7,168.6 79.4,168.5 80.1,168.3 80.7,168 81.1,167.6 81.1,167.4 81.3,166.2 81.2,164.9 81,164 80.6,162.8 80.2,161.6 
			79.6,160.4 79,159.3 78.5,158.2 78.1,156.8 78,155.8 79.1,155.7 79.2,156.6 79.5,157.8 80,158.8 80.6,160 81.1,161.3 81.6,162.4 
			82,163.8 82.2,164.8 82.3,166.2 82.2,167.6 82,168.1 81.4,168.8 80.6,169.3 79.6,169.5 78.7,169.7 78.6,169.7 78.1,169.6 78,170 
			78,170.2 77.7,170.7 76.8,171.4 76.7,171.4 76.1,171.8 75.5,172.1 74.7,172.2 74,172.1 73.3,172 72.8,171.8 72.4,171.7 
			71.9,172.5 71.1,173.1 70,173.5 		"/>
	</g>
	<g>
		<path d="M71.6,171.7l0.3-1.7l0.2-1.7l0.1-1.9l0-2.1l0.1-4.3l1.2,3.1l0.5,1.2l0.8,2.1l0.2,1l0,0.7v1.1l-0.7,1.1l-0.5,0.4l-0.8,0.5
			L71.6,171.7z M73.2,165.2l0,1.4l-0.1,2l-0.2,1.7l0.6-0.4l0.3-0.3l0.4-0.6v-0.7l0-0.6l-0.2-0.9L73.2,165.2z"/>
	</g>
	<g>
		<polygon points="77.5,169.2 77.1,168.2 77.5,168 77.9,167.6 78.1,167.2 78.2,166.8 78.2,166 78,165.3 77.7,164.5 76.3,162 
			75.6,160.7 74.8,159 74.1,157.4 73.5,155.9 73.2,154.6 73,153.8 74,153.5 74.3,154.4 74.6,155.6 75.1,157 75.8,158.6 76.5,160.3 
			77.2,161.5 78.6,164 79,165 79.2,165.9 79.2,166.9 79.1,167.6 78.7,168.3 78.2,168.9 		"/>
	</g>
	<g>
		<polygon points="72.3,162.8 72.1,162 71.8,160.7 71.3,159 71.3,158.9 71,157.3 71,156.2 72.1,156.2 72.1,157.2 72.4,158.9 
			72.8,160.5 73.1,161.8 73.3,162.6 		"/>
	</g>
	<g>
		<polygon points="67,172.5 66.7,171.5 67.4,171.3 67.9,171 68.4,170.5 68.6,170 68.7,169.1 68.7,168 68.6,167 68,164.5 67.9,164.4 
			67.8,162.9 67.8,162.8 67.7,161 67.7,159.3 67.9,157.3 69,157.4 68.8,159.4 68.8,160.9 68.8,162.5 68.9,162.6 69,164.1 69,164.1 
			69.3,165.4 69.6,166.8 69.8,167.9 69.8,169.2 69.6,170.3 69.3,171.1 69.2,171.2 68.5,171.8 67.8,172.3 67.7,172.3 		"/>
	</g>
	<g>
		<polygon points="64.4,173.5 63.3,173.4 62.5,173.2 62.4,173.1 61.7,172.6 61.2,171.9 61.1,171.9 61.1,171.7 61,171.7 61,171.7 
			61,170.9 61.7,170.8 62.1,171.4 62.5,171.9 63,172.2 63.5,172.4 64.4,172.5 64.8,172.4 65.3,172 66,171.3 66.5,170.6 66.9,169.4 
			67.3,168.1 67.5,166.8 67.7,165.5 67.9,164 69,164.1 68.8,165.6 68.6,167 68.3,168.4 67.9,169.8 67.4,171.1 66.9,172 66,172.8 
			65.2,173.5 		"/>
	</g>
	<g>
		<path d="M61.5,171.9l-0.1-1l0.6-0.1l0.6-0.2l0.4-0.2l0.3-0.4l0.2-0.5l0.2-0.6l0.1-0.6l0.1-0.8l0-0.8l-0.1-1l0-0.1c0,0,0,0,0,0
			l0-0.1l0-0.1l0-0.7l0-2.4l0.1-1.3l0.1-0.7l0.2-1.2l0.3-1.1v-0.1l0.5-1.1l0.5-0.6l0.4-0.4l0.5-0.4l0.6,0.8l-0.4,0.3l-0.3,0.4
			L66,157l-0.4,0.8l-0.3,1.2l-0.2,1.1l-0.1,0.7L65,162l0,2.4l0,0.9l-0.1,0.2c0,0.1,0,0.1,0,0.1l0.1,0.9l0,1l-0.1,0.9l-0.1,0.7
			l-0.2,0.8l-0.3,0.7l-0.5,0.7l-0.6,0.4l-0.1,0l-0.7,0.2h-0.1L61.5,171.9z"/>
	</g>
	<g>
		<polygon points="68.8,155.1 68,154.4 68.4,153.9 68.6,153.5 68.7,153.1 68.7,152.8 68.6,152.3 68.5,152.1 69.5,151.7 69.6,152 
			69.7,152.8 69.7,153.3 69.6,153.9 69.3,154.5 		"/>
	</g>
	<g>
		<polygon points="71.9,153.4 71,153 71.2,152.4 71.2,151.8 71.2,151.4 71.2,151.1 71.1,150.8 70.9,150.5 70.7,150.2 71.6,149.6 
			71.9,150 72.1,150.4 72.2,150.9 72.3,151.4 72.3,151.9 72.2,152.6 72.2,152.7 		"/>
	</g>
	<g>
		<path d="M60.2,163.3l-1-0.1h-0.1l-1.5-0.5l-0.8-0.5l-1.2-0.9l-0.8-0.8l-0.6-0.9l-0.2-0.8l-0.1-0.8l0.1-0.9l0.2-0.6l0.6-0.7
			l0.6-0.6l0.6-0.5l2.9-1.8l-1.9,2.7l-0.2,0.5l-0.1,0.4l0.1,0.4l0.2,0.3l0.4,0.3l0.4,0.2l0.5,0.1l0.4,0l0.6-0.1l0.6-0.2l0.6-0.4
			l0.3-0.5l0.5-0.6l0.3-0.6l0.5-0.8l0.3-0.5l0.7-0.7l0.9-0.6l0.7-0.3l0,0l1-0.4l0.8-0.2c0.1,0,0.1-0.1,0.2-0.1l0.1,0l1.1-0.2l0.6,0
			l0.3-0.1l0.4-0.3l0.4-0.5l0.6-0.8l0.2-0.4l0.2-0.5l0.1-0.5l0.1-0.6l0-2l1.2,1.1c0,0,0.1,0.1,0.1,0.1l0.4,0.5l0.3,0.4l0.3,0.5
			l0.1,0.3l0.2,0.6l0.1,0.5l0.1,0.7l0,0.2l-1.1,0.1l0-0.2l-0.1-0.6l-0.1-0.4l-0.2-0.5l-0.1-0.2l-0.2-0.4l-0.2-0.2l0,0.2l-0.1,0.7
			l-0.2,0.6l-0.3,0.6l-0.2,0.3l-0.5,0.6l-0.5,0.6l-0.6,0.5l-0.7,0.2l-0.8,0l-0.9,0.2c0,0,0,0-0.1,0l-0.1,0l-0.9,0.2l-0.9,0.4l-0.1,0
			l-0.7,0.3l-0.7,0.5l-0.5,0.5l-0.3,0.5l-0.5,0.8l-0.3,0.7l-0.6,0.7l-0.4,0.6l-0.9,0.6l-0.8,0.3l-0.7,0.1l-0.6,0.1l-0.8-0.2
			l-0.6-0.3l-0.6-0.5l-0.5-0.6l-0.2-0.8l0-0.3l-0.2,0.2l-0.4,0.5l-0.1,0.4l-0.1,0.6l0.1,0.6l0.2,0.6l0.5,0.7l0.7,0.6l1.1,0.8
			l0.7,0.4l0.1,0l1.1,0.4l1,0.1L60.2,163.3z"/>
	</g>
	<g>
		<path d="M49.4,169L49.4,169l-0.8-1v-0.1l-0.8-1l-0.1-0.1l-0.6-1.1l0-0.1l-0.5-1.2l-0.1-0.7l-0.6-0.2l-0.9-0.4l-1-0.7l-0.1-0.1
			l-0.8-0.7c0,0-0.1-0.1-0.1-0.1l-0.1-0.1l-0.6-0.7l-0.1-0.1l-0.9-1.1l0.8-0.6l0.7,1l0.1,0.1l0.7,0.8c0,0,0,0,0,0l0,0l1,0.9l0.8,0.5
			l0.8,0.4l1.1,0.4l0.2,1.1l0.5,1.3l0.6,1l0.9,1.1l0,0.1c0,0,0,0,0,0l0.7,0.9L49.4,169z"/>
	</g>
	<g>
		<path d="M46.3,170.9c-1.2-1.5-2.9-3.4-5-4.7l-0.1,0c-0.9-0.2-1-0.3-1.6,0.1c-0.4,0.7-0.5,1.1-0.8,1.9l-0.4,2.7l-0.7-2
			c-0.8-2.2-1.1-4.2-0.3-6.3l0-0.1l0,0c0.3-0.4,0.6-0.8,0.9-1.1l0,0l0.1-0.1c-0.6-0.2-1,0.1-1.6,0.9l-0.7,1.9l-0.6-0.8
			c-1.3-1.8-1.2-3.3,0.3-5l0.1-0.1l0.2-0.1l-0.1-0.8l0.1-0.7l0.3-0.5l0.3-0.5l0.9,0.6l-0.3,0.5l-0.1,0.2l-0.1,0.4l0.1,0.6l0.3,1
			l-0.8,0.1l-0.1,0c-0.9,1-1.1,1.8-0.7,2.7l0,0l0-0.1c1.1-1.7,2.2-1.9,3.9-0.9l0.7,0.5l-1.5,0.9c-0.2,0.2-0.5,0.6-0.7,0.9
			c-0.5,1.3-0.5,2.5-0.2,3.8c0.1-0.3,0.3-0.7,0.5-1.1l0.1-0.1l0.1-0.1c1.1-0.7,1.6-0.6,2.6-0.4l0.2,0.1l0.1,0c2.3,1.4,4.1,3.4,5.3,5
			L46.3,170.9z"/>
	</g>
	<g>
		<polygon points="36.3,158.8 35.6,158.2 35.5,158.1 34.6,157.1 33.9,156.3 33.2,155.1 32.6,154.3 31.7,152.9 31.2,152.3 
			30.7,151.7 30.3,151.4 30,151.1 29.3,150.6 29.9,149.7 30.1,149.9 30.6,150.2 31,150.6 31.5,151 32,151.6 32.5,152.3 33.5,153.7 
			34,154.6 34.8,155.7 35.4,156.5 36.4,157.5 37,158 		"/>
	</g>
	<g>
		<polygon points="32.3,153.7 32.2,153.3 32.3,152.7 32.4,152.1 32.5,151.6 32.7,151.1 33.7,151.5 33.5,151.9 33.4,152.3 
			33.4,152.8 33.3,153.3 33.3,153.6 		"/>
	</g>
	<g>
		<polygon points="33.7,155.7 33.6,155.2 33.7,154.5 33.8,153.9 33.9,153.3 34.1,152.8 35.1,153.2 34.9,153.7 34.8,154.1 
			34.7,154.6 34.7,155.2 34.7,155.7 		"/>
	</g>
	<g>
		<polygon points="34.8,157.1 34.8,156.9 34.8,156.3 34.9,155.7 35,155.2 35.2,154.6 35.5,154.2 36.4,154.8 36.2,155.1 36,155.5 
			35.9,155.9 35.8,156.4 35.8,156.9 35.8,157.1 		"/>
	</g>
	<g>
		<path d="M24.8,153.7l-0.8-0.1l-0.7-0.1l-0.5-0.2l-0.6-0.5l-0.5-0.6l-0.3-0.7l-0.2-0.7l-0.3-3.1l1.5,2.4l0.3,0.3l0.4,0.1l0.6,0
			l0.2-0.1l0-0.1c0-0.1,0-0.2,0-0.3l0,0l0-0.7l0.3-0.8l0.5-0.6l0.6-0.5l0.7-0.4l1.6-0.8l0.5-0.3l0.2-0.2l0-0.2l-0.1-0.3l1-0.2
			l0.1,0.5l-0.1,0.8l-0.6,0.5l-0.6,0.4l-1.6,0.8l-0.6,0.4l-0.5,0.4l-0.3,0.4l-0.2,0.4l0,0.5c0,0,0,0.1,0,0.1l0.2,0.8l-1.1,0.6h-0.2
			l-0.7,0l-0.1,0l-0.4-0.1l0.1,0.2l0.3,0.4l0.3,0.3l0.3,0.1l0.6,0.1l0.6,0l0.6-0.2l0.8-0.3l0.8-0.3l1.4-1l0.8-1l0.3-0.5l0.8-0.6
			l0.9-0.1l0.9,0.1l-0.1,1l-0.8-0.1l-0.5,0.1l-0.5,0.3l-0.3,0.4l-1,1.1l-1.6,1.2l-0.9,0.4l-0.9,0.3L24.8,153.7z"/>
	</g>
	<g>
		<polygon points="27.6,152.4 26.5,152.3 26.7,150.7 26.7,150.3 26.6,150.3 26.3,150.3 25.9,150.5 25.3,150.9 24.8,151.2 
			24.2,150.3 24.8,150 26,149.3 26.2,149.3 27.1,149.2 27.7,149.9 27.8,150.7 		"/>
	</g>
	<g>
		<path d="M26.9,147.3l-0.4-0.6l-0.5-0.7l-0.6-0.6l-0.5-0.4l-0.5-0.4l-0.4-0.2l-0.5-0.1l-0.8-0.1l-0.5-0.1l-0.2-0.1l-0.5-0.3
			l-0.4-0.4l-0.5-0.9l-0.1-0.6l-0.1-0.6l1-0.1l0.1,0.5l0.1,0.4l0.4,0.6l0.2,0.2l0.3,0.2l0.4,0.1l0.7,0.1c0,0,0,0,0,0
			c0.1,0,0.2,0,0.2,0l0.5,0.1l0.6,0.3l0.7,0.5l0.5,0.5l0.6,0.7l0.6,0.7l0.4,0.6L26.9,147.3z"/>
	</g>
	<g>
		<polygon points="24.3,144.3 23.5,143.6 23.9,143.2 24,143.1 24.3,142.7 24.8,142.3 25.5,143.2 25.1,143.5 24.7,143.9 24.6,144 		
			"/>
	</g>
	<g>
		<path d="M18.5,145.4l-0.6-2.9l-0.1-1.2l0.3-0.9l0.3-0.5l0.4-0.3l0.5-0.4l0.1,0c0,0,0,0,0.1,0l0.4-0.3l0.2-0.1l0.8-0.2l0.1,0l0.7,0
			l0.9,0.1l0.5,0.4l0.3,0.7l0,0.7l-0.2,0.7l-0.4,0.5l-0.5,0.4l-0.8,0.3l-0.5-0.4l-0.3-0.1l-0.2,0l-0.4,0.1l-0.4,0.2l-0.3,0.3
			l-0.2,0.4L18.5,145.4z M18.9,141.4l0,0.2l0.3-0.3l0.7-0.4l0.7-0.1l0.5-0.1l0.7,0.3l0.1,0.1l0,0l0.3-0.3l0.2-0.2l0.1-0.3l0-0.3
			l-0.1-0.3l-0.1-0.1l-0.6-0.1l-0.8,0l-0.5,0.1l-0.5,0.3h-0.1l-0.3,0.2l-0.2,0.2l-0.2,0.3L18.9,141.4z"/>
	</g>
	<g>
		<polygon points="28.9,143.4 27.4,142.6 26.7,142.1 25.8,141.3 24.9,140.4 24.3,139.8 24,139.5 23.6,139.4 23.2,139.5 22.7,139.7 
			22.2,138.8 22.7,138.5 22.9,138.4 23.5,138.3 23.7,138.3 24.5,138.5 25.1,139 25.7,139.7 26.5,140.6 27.4,141.3 28,141.8 
			29.4,142.5 		"/>
	</g>
	<g>
		<path d="M27.1,142.2l-0.1-0.7l-0.3-1l-0.4-0.9l-0.3-0.6l-0.4-0.4l-0.4-0.5l-0.3-0.4l-0.2-0.8l0.1-0.7l0.2-0.7l0.4-0.5l-0.3-0.1
			l-0.6-0.1l-0.7,0.2l-1.7,1l0.6-1.9l0.5-0.9l0.7-0.7l0.8-0.3c0.1,0,0.1,0,0.2,0l0.8-0.1l0.1,0h0l0.8,0.2c0,0,0.1,0,0.2,0.1l0.9,0.4
			l0.1,0.2l0.6,0.4c0.1,0.1,0.2,0.2,0.2,0.3l0.4,0.5l0.1,0.8l-0.2,0.2l-0.4,0.6l-0.6,0.4l-0.1,0l-0.5,0.1c-0.1,0-0.2,0.1-0.3,0
			l-0.1,0l-0.4-0.1c-0.1,0-0.1,0-0.2,0l-0.1,0l-0.4-0.3l-0.1,0.4l0,0.4l0.1,0.4l0.2,0.3l0.3,0.4l0.5,0.5l0.5,0.8l0.5,1l0.3,1.2
			l0.1,0.8L27.1,142.2z M26.7,135.3l0.5,0.1l0.5-0.1l0.3-0.2l0.2-0.3l0-0.1l-0.3-0.4l-0.7-0.5l0-0.1l-0.7-0.3c0,0,0,0,0,0l-0.7-0.2
			c0,0-0.1,0-0.1,0l-0.7,0.1l-0.5,0.2l-0.4,0.4l0.3-0.1l0.2,0l0.8,0.1l0.6,0.2l0.5,0.6l0.1,0.7L26.7,135.3z"/>
	</g>
	<g>
		<polygon points="27.4,139.5 26.6,139.5 26.6,138.4 27.2,138.4 27.9,138.2 28.3,139.1 		"/>
	</g>
	<g>
		<polygon points="54.5,159.9 53.2,159.4 52,158.6 50.8,157.7 50.7,157.6 49.7,156.4 49.1,155.5 48.4,154.6 47,153.4 44.5,151.7 
			42,150.2 40.1,149 37.7,147.6 36.3,146.7 35.3,145.9 34.6,145.1 34.5,145 33.8,144.1 33.2,143.1 32.7,142.5 31.4,141.7 
			30.5,140.9 30.5,140.7 30.3,140.3 29.8,139 29.7,137.8 29.7,136.6 29.7,136.6 29.5,135.6 29.4,134.9 29.2,134.7 28.9,134.6 
			28.5,134.7 28.4,133.6 29,133.6 29.6,133.7 29.9,133.9 30.3,134.4 30.4,134.6 30.6,135.5 30.8,136.8 30.7,136.9 30.7,137.7 
			30.9,138.8 31.2,139.8 31.5,140.3 31.5,140.4 32,140.9 33.4,141.7 34.1,142.6 34.7,143.5 35.4,144.4 35.4,144.5 36,145.1 
			37,145.9 38.2,146.7 40.6,148.2 42.6,149.4 45.1,150.8 47.7,152.6 49.2,153.9 49.9,154.9 50.5,155.8 51.6,157 52.6,157.8 
			53.8,158.4 54.9,159 		"/>
	</g>
	<g>
		<path d="M31.1,139.6l-1-0.1l0.1-1.2l0.2-0.8l0-0.1l0.3-1.2l0.3-0.5l-4.6-0.8h6.2l-0.1-0.3l-0.3-0.4l-0.7-0.5l-1.8-0.5l1.6-1
			l1.1-0.2l1.1,0.1l0.7,0.4l0.6,0.4l0.5,0.6l0.5,0.9l0.2,0.9l0,1.1l-0.2,0.6l-0.9,0.5l-0.2,0l-0.7-0.1l-0.2-0.1l-0.7-0.3l-0.1-0.2
			l-0.2-0.2l-0.1-0.1l-0.3-0.7l0-0.1l-0.3,0.1l-0.5,0.3l-0.2,0.3l-0.2,0.8l0,0.1l-0.2,1L31.1,139.6z M34.3,136.5l0.5,0l0.3-0.1l0,0
			l0-0.8l-0.2-0.7l-0.4-0.7l-0.3-0.4l-0.5-0.3l-0.5-0.2l-0.8-0.1l0,0l0.5,0.4l0.5,0.6l0.3,0.7l0,0.7l-0.2,0.2l0,0.2l0.1,0.2l0.3,0.3
			L34.3,136.5z"/>
	</g>
	<g>
		<polygon points="32.7,139.5 32.2,139.5 31.3,139.2 30.7,138.6 30.3,138 31.3,137.5 31.5,137.9 31.9,138.2 32.5,138.5 32.8,138.5 
					"/>
	</g>
	<g>
		<polygon points="32.7,142.3 32.7,141.7 32.8,141.1 32.9,140.5 33.2,139.9 33.6,139.5 34.1,139.1 34.6,138.8 34.9,138.5 
			35.2,138.2 35.4,137.9 35.5,137.6 35.5,137.4 35.4,137.1 35.2,136.7 36.1,136.2 36.4,136.7 36.5,137.2 36.5,137.8 36.3,138.3 
			36.1,138.8 35.6,139.2 35.2,139.6 34.8,140 34.3,140.3 34.1,140.5 33.9,140.9 33.8,141.3 33.7,141.8 33.7,142.3 		"/>
	</g>
	<g>
		<polygon points="71.3,146.9 71.1,145.3 70.9,143.6 72,143.5 72.2,145.2 72.3,146.8 		"/>
	</g>
	<g>
		<path d="M68.8,152.5c-0.1,0-0.2,0-0.4-0.1c0,0,0,0,0,0l-3-0.2c-0.2,0.1-0.3,0.1-0.6,0l0,0l-3.5-0.6l-2-0.4l0.2-1.6l-0.6,0.3h-0.2
			l-1,0.3l-1.2,0l-1.2-0.2l-0.9-0.3l-0.9-0.7l-0.6-0.8l-0.5-1l-0.1-1.6l0.2-1.1l0.6-0.6l0.2-0.1l0.6-0.4l0.2-0.1l1.3-0.2l-0.6,1.4
			l-0.1,1l0.2,0.7l0.3,0.4l0.5,0.3l0.6,0.2l0.6,0.1h0.1l1-0.1l1.4-0.8l0.9-0.6l0.8-0.6l1.1-0.5l0.1,0l0.9-0.3l1.6,0.1l1.3,0.4
			l0.1,0.1l-0.4-0.6l-1.1-0.9l-0.6-0.3l-0.5,0.1l-0.4,0.3l-0.5,0.7l-0.8,0.6l-0.3,0.1l-1.5,0l-1-0.2l-1.2-0.3l-0.8-0.9L57,143
			l-0.4-0.8l-0.1-1.1l0.5-0.7l0.8-0.5l1-0.2l0.2,1l-0.8,0.2l-0.4,0.3l-0.2,0.3l0,0.5l0.3,0.6l0.4,0.7l0.5,0.5l0.9,0.2l0.9,0.2h0.1
			l1.1,0l0.5-0.4l0.5-0.6l0.7-0.6l1.1-0.1l1,0.5l1.3,1.1l1.2,1.8l1,3.4l-2.2-2.4l-0.1,0l-0.9-0.5l-0.1,0l-1-0.3l-1.2-0.1l-0.8,0.3
			l-0.9,0.4l-0.5,0.4l0.2,0.3l0.6-0.3l1.2-0.2l1.5,0l1.9,0.4l1,1v1.2l-0.8,0.7l-0.3,0.1l-1.2,0.1l-0.4,0L64,150h-0.2l-1-0.2h-0.2
			l-0.7-0.3l-0.6,0.5l-0.7,0.4l0.9,0.2l3.6,0.6c0,0,0,0,0,0c0,0,0,0,0,0l0.1,0l3.1,0.2c0.3,0,0.4,0.1,0.6,0.2
			c-0.1,0-0.1-0.1-0.2-0.1l0.4,0.9C69.1,152.4,68.9,152.5,68.8,152.5z M59.8,149.5H60l0.7-0.4l0.3-0.3l0-0.2l-0.9,0.8L59.8,149.5z
			 M56.7,149.2h0.9l1-0.3h0.1l0.8-0.4l1-0.8l0.6-0.3l0-0.4l-1,0.7l-1.7,0.9h-0.3l-1,0.1l-0.2,0l-0.8-0.1l-0.8-0.3l-0.7-0.5l-0.5-0.7
			l-0.3-1.1l0.1-1l-0.1,0l-0.1,0.1l-0.3,0.3l-0.1,0.7l0.1,1.2l0.3,0.7l0.5,0.6l0.7,0.5l0.7,0.2L56.7,149.2z M65.1,149.1h0.3l1-0.1
			l0.3-0.3v-0.3l-0.5-0.5l-1.4-0.3l-1.3,0l-0.9,0.2l-0.4,0.2l0.3,0.6l0.3,0.1h0.1l1,0.2l0.1,0L65.1,149.1z"/>
	</g>
	<g>
		<polygon points="61.8,147.2 60.2,146.4 59.5,145.9 59.5,145.7 59.1,145.1 59,144.6 60.1,144.5 60.1,144.8 60.2,144.9 60.2,144.9 
			60.3,144.5 61.3,144.8 61.3,145 61.3,145.4 		"/>
	</g>
	<g>
		<path d="M56.8,141.8l-0.4-0.3c0,0-0.1-0.1-0.1-0.1l-0.2-0.3l-0.1-0.8l0.2-0.5l0.2-0.2l0.2-0.2c0.1,0,0.1-0.1,0.2-0.1l1.1-0.6
			l0.6-0.6l0.6-0.5l0.5-0.3l0.7-0.3l0.9-0.3l0.5,0.4l0,0l0.4,0.3l0.2,0.1l0.2,0l0.6-0.1l0.6-0.2l0.3-0.3l0.1,0c0,0,0,0,0.1,0
			l0.4-0.4l0.7-0.5h0.1l0.6-0.2h0.1l0.6-0.1l0.8,0.2l0.1,0l0.8,0.3l0.6,0.2l0-0.1l0.6,0.4l-0.3,0.4l0.5,0.2l-0.1,0.4l-0.1,0
			l-0.4,0.9l-0.1,0l-0.3,0.4l-0.1,0.1l-0.6,0.6l-0.1,0l-0.7,0.3h-1.1l-0.2,0l-0.7-0.2l-0.1-0.1l-0.6-0.3l-0.1-0.1l-0.4-0.4l-0.4-0.5
			l0-0.1l0-0.1l-0.5,0.2h-0.1l-0.7,0.1l-0.2,0l-0.4-0.1l-0.1-0.1l-0.7-0.3v-0.1l-0.2-0.1c0,0-0.1,0-0.1-0.1l-0.3,0.1l-0.6,0.2
			l-0.4,0.3l-0.5,0.4l-0.6,0.6l-1.3,0.7c0,0,0,0,0,0l-0.1,0.1l0,0.1l0,0.3l0.1,0.1l0.3,0.2L56.8,141.8z M66.4,139h0.7l0.5-0.2
			l0.5-0.4l0.3-0.4c0,0,0,0,0.1-0.1l0.2-0.4l-0.1,0l-0.6-0.3l-0.8-0.3l-0.5-0.1l-0.5,0l-0.5,0.2l-0.5,0.3l-0.4,0.4l0,0c0,0,0,0,0,0
			l0.1,0.2l0.2,0.3l0.3,0.3l0.4,0.3L66.4,139z"/>
	</g>
	<g>
		<path d="M69.3,137.8l0-1.1l3.1,0l0.1,0c0,0,0.1,0,0.1,0v1.1c-0.1,0-0.1,0-0.2,0l0,0L69.3,137.8z"/>
	</g>
	<g>
		<polygon points="61.6,137.3 60.5,137.2 60.6,136.4 61,135.6 61.6,135 62.2,134.4 63,134.1 63.3,134.1 63.7,133.7 64.1,133.3 
			64.8,132.8 65.7,132.3 67,131.8 68.1,131.5 69.2,131.4 70.2,131.4 71.6,131.4 72.7,131.6 73.6,131.8 73.7,131.8 74.3,132 
			76.3,132.3 76.9,132.4 77.3,132.1 77.5,132 77.5,131.8 76.7,130 78.6,131 78.7,131 79.5,131.5 80.2,132.2 80.7,132.8 81,133.5 
			81.1,134.3 80.6,134.8 80,135.3 79.1,135.9 78.4,136.2 77.4,136.3 76.7,136.1 77,135.1 77.5,135.3 78.1,135.2 78.7,134.9 
			79.4,134.5 80,133.9 80,133.8 79.8,133.3 79.3,132.8 78.8,132.3 78.5,132.1 78.5,132.4 77.9,133 77.1,133.4 76.2,133.4 74.1,133 
			73.3,132.8 73.2,132.8 72.4,132.6 71.5,132.4 70.2,132.4 69.3,132.4 68.2,132.6 67.3,132.8 66.1,133.2 65.3,133.7 64.8,134.1 
			64.4,134.5 63.7,135.1 63.3,135.1 62.8,135.3 62.3,135.7 61.9,136.2 61.7,136.7 		"/>
	</g>
	<g>
		<polygon points="80.7,142.4 80.5,142.3 79.9,142.2 79.8,142.2 78.9,141.8 78.3,141.4 78.9,140.5 79.5,140.9 80,141.2 80.8,141.3 
			81.2,141.2 81.9,141.1 82.4,140.9 82.6,140.7 82.9,140.3 83.4,139.5 83.7,138.6 83.8,137.3 83.8,136.3 83.7,135.4 83.5,134.9 
			83.3,134.6 82.9,134.3 82.3,134.2 81.8,134.2 81.2,134.4 80.7,134.6 80.3,133.6 80.9,133.4 81.6,133.2 82.3,133.1 83.3,133.3 
			84,133.8 84.5,134.5 84.7,135.1 84.9,136.2 84.8,137.4 84.7,138.8 84.3,140 83.4,141.4 83,141.8 82.1,142.1 81.3,142.3 		"/>
	</g>
	<g>
		<polygon points="75.5,144.8 74.7,144.6 73.8,144.2 74.3,143.2 75.1,143.6 75.6,143.7 76.2,143.7 76.7,143.6 77.1,143.2 
			76.9,143.2 75.9,142.5 76.4,141.6 77.4,142.2 79,142.8 78.1,143.6 77.3,144.5 76.4,144.8 		"/>
	</g>
	<g>
		<polygon points="79.2,143.6 78,143.5 78,142.4 79.1,142.5 79.8,142.3 80.4,142 80.9,141.4 81.7,142.1 81,142.9 80.9,142.9 
			80.3,143.3 80.1,143.4 		"/>
	</g>
	<g>
		<polygon points="86.7,152.9 85.8,152.9 84.6,152.6 84.1,151.2 83.6,150 83,148.8 82.6,148 81.5,146.3 80.9,145.3 80.2,144.1 
			81.1,143.5 81.8,144.8 82.4,145.8 83.5,147.5 84,148.3 84.6,149.5 85.1,150.9 85.4,151.7 86,151.8 86.6,151.8 87.2,151.7 
			87.5,151.6 88.2,151.1 88.5,150.7 88.7,150.4 88.1,150.5 87.1,150.4 86.2,149.9 85.4,148.6 84.2,146.2 83.2,144 82.2,141.6 
			83.2,141.2 84.2,143.6 85.1,145.8 86.3,148.1 86.9,149.1 87.5,149.4 88.1,149.5 88.9,149.3 90.1,148.5 89.8,150.5 89.4,151.3 
			88.9,151.9 88,152.5 87.4,152.7 		"/>
	</g>
	<g>
		<path d="M80.9,156l-0.1-2.4l-0.3-1.3l-0.5-1.1l-0.8-1.2l-0.5-0.8l-0.8-1.1l-0.9-1.3l-0.7-1.1l0.9-0.5l0.6,1.1l0.8,1.3l0.8,1.1
			l0.5,0.8l0.8,1.3l0.6,1.2l0.3,1.6l0,0l0.5-0.8c0,0,0,0,0,0l0.2-0.9l0.1-1l-0.1-1.4l-0.3-1.9l0-0.1l1-0.4l0.1,0.2l0.3,2l0.1,1.5
			l-0.1,1.2l-0.2,1c0,0.1,0,0.1-0.1,0.2l0,0.1l-0.5,1l-1,1L80.9,156z"/>
	</g>
	<g>
		<path d="M87.2,162.8l-0.9-0.2l-0.9-0.3l-0.5-0.4l0.7-0.8l0.3,0.3l0.7,0.2l0.7,0.1l0.6,0l0.7-0.2l0.5-0.3l0.4-0.4l0.1-0.2l-0.2,0
			l-0.2,0l-0.9-0.2l-0.5-0.2c-0.2,0-0.3-0.1-0.4-0.3l-0.5-0.5l0-0.1l-0.5-1l-0.4-1.2l-0.5-1.6l-0.4-1.6l-0.6-1.8l1-0.3l0.6,1.9
			l0.4,1.7l0.4,1.4l0.4,1.1l0.5,0.9l0.4,0.3l0.4,0.2l0.7,0.1l1.8-0.3l-0.4,1.4l-0.3,0.7l-0.6,0.7l-0.8,0.5l-0.9,0.2L87.2,162.8z"/>
	</g>
	<g>
		<polygon points="60.8,141.2 60.2,140.3 60.7,139.9 61.5,139.7 61.7,139.7 62.5,139.7 62.7,139.7 63.5,139.9 63.2,141 62.4,140.7 
			61.8,140.7 61.7,140.8 61.2,140.9 		"/>
	</g>
	<g>
		<polygon points="61.6,142.2 60.8,141.5 61.3,140.8 61.5,140.8 62.1,140.6 62.4,140.6 63.5,140.6 64.2,140.8 63.8,141.8 
			63.3,141.6 62.3,141.6 61.9,141.8 		"/>
	</g>
	<g>
		<polygon points="62.2,143.3 61.5,142.5 62.2,141.9 62.4,141.8 63.1,141.5 64.1,141.6 64.1,142.6 63.3,142.6 62.8,142.8 		"/>
	</g>
	<g>
		<polygon points="67.2,249.3 66,248.9 65.1,248.6 64.5,247.7 64.2,246.7 64.2,245.4 65.2,245.5 66,245.4 66.4,245 66.5,244.4 
			66.5,243.8 66.1,243.1 67,242.4 68.1,242.4 68.9,243.1 69.8,244.3 70.5,245.4 71.3,246 72.1,246.3 72.3,246.3 73.9,246.3 
			73.8,247.4 72.3,247.3 72,247.3 70.8,246.9 69.7,246.2 68.9,244.9 68.2,243.9 67.7,243.5 67.4,243.4 67.5,243.5 67.6,244.5 
			67.3,245.5 66.6,246.4 65.2,246.6 65.4,247.2 65.7,247.7 66.4,247.9 67,248.1 67.4,247.7 68.3,246.8 69.1,247.5 68.1,248.5 		"/>
	</g>
	<g>
		<rect x="67.1" y="248.4" transform="matrix(0.9157 0.402 -0.402 0.9157 105.7647 -6.2011)" width="1.2" height="1.1"/>
	</g>
	<g>
		<polygon points="62.1,250.1 61.2,246.7 61.3,245.6 61.6,244.6 62.2,243.8 62.3,243.7 63.2,243.1 64.1,242.8 65.5,242.8 
			66.7,242.7 66.8,243.7 65.5,243.9 64.2,243.9 63.6,244 62.9,244.6 62.5,245.1 62.3,245.9 62.3,246.1 62.7,245.6 63.7,245.3 
			64.4,245.2 64.6,245.3 65.1,245.6 65,245.8 64.9,246.5 64.7,246.5 64.3,246.3 63.8,246.3 63.3,246.5 62.7,247.2 		"/>
	</g>
	<g>
		<polygon points="67.1,253.6 67.1,252.9 66.9,251.9 67.9,251.7 68.1,252.7 68.1,253.6 		"/>
	</g>
	<g>
		<path d="M74.2,256.6c-0.4-0.6-0.7-1.1-1.1-1.8l0.9-0.6c0.5,0.7,0.8,1.2,1.2,1.8L74.2,256.6z"/>
	</g>
	<g>
		<path d="M83.1,248.8l-1-0.4c0-0.1,0.1-0.2,0.1-0.4c0.1-0.3,0.2-0.6,0.3-0.9l0-0.1l0.1-0.1c1.2-1.4,2.6-2.7,3.9-3.9
			c1.2-1.2,2.5-2.4,3.7-3.6c0.6-1,0.6-1.2,0.9-2.3l0.2-0.7l0.6,0.4c0.7,0.4,2.2,1,3.6,0c0.4-0.3,0.6-0.5,0.7-0.7
			c-0.3,0.1-0.7,0.2-1.1,0.2c-0.4,0-0.8-0.2-1-0.5l0,0l0,0c-0.5-1-0.5-1.4-0.4-2.4l0.1-0.7l0.6,0.2c2.2,0.8,3.9,0.6,5.9-0.6
			c0.6-0.5,0.9-1.3,1.1-2.3c0,0-0.1,0.1-0.1,0.1c-0.8,0.5-1.7,0.5-3,0.2l-0.1,0l-0.1,0c-1-0.6-1.6-1-2.3-1.7
			c-0.2-0.2-0.3-0.3-0.4-0.4c-0.6-0.6-0.9-0.9-1.8-1.4l-1.6-0.8l2-0.2c1-0.1,1.5-0.1,2.3-0.7l0.2-0.1c1-0.8,1.1-1.8,0.5-3l-0.1-0.1
			c-0.7,1.6-2.3,1.3-3.6,1.2c-0.2,0-0.4-0.1-0.6-0.1l0,0l-1.7-0.3c-0.5-0.1-0.9-0.1-1.3-0.2c-0.4,0-0.9-0.1-1.4-0.2l-0.4-0.1l0-0.4
			c0-0.2,0-0.4-0.1-0.6c-0.3-2.3-0.4-3.3,1-5.7c0.8-1.5,2.3-2.7,3.8-3.8c1.5-1.2,2.9-2.3,3.6-3.8c0.8-1.7,1.2-3,1.6-4.4l0.2-0.9
			l0.7,0.6c0.4,0.3,0.7,0.6,1,0.9c0.9,0.8,1.7,1.4,2.6,2.8l0,0.1c0.6,1.3,0.5,2.5,0,3.4c-0.1,0.2-0.3,0.4-0.5,0.5c0.2,0,0.3,0,0.5,0
			l0.2,0c0.5,0,1.2-0.1,1.6-0.3c0.6-0.5,0.8-0.9,1.1-1.6l0.6-1.6l0.4,1.7c0,0.1,0.1,0.2,0.1,0.4c0.2,0.9,0.3,1.3,0.1,2.5l0,0.1
			l0,0.1c-0.7,1.6-1.8,2.1-2.9,2.6c-0.1,0.1-0.2,0.1-0.4,0.2c0.6-0.1,1.1,0,1.7,0c0.5,0,1,0.1,1.6,0.1h0c3.6-0.5,5.1-1.9,5.1-4.9
			l0-0.4l2.5-0.9c0.2-0.1,0.8-0.4,1.1-0.6c0.1-0.1,0.2-0.1,0.3-0.2c2.6-2.2,2.9-2.9,4.1-5.9c0.4-1.8,0.6-3.4,0.8-5.2
			c-0.2-4-0.6-6.9-2.3-10.8l1-0.4c1.8,4,2.2,7,2.4,11.2l0,0l0,0c-0.2,1.8-0.4,3.5-0.8,5.4l0,0.1c-1.2,3-1.7,3.9-4.4,6.3l-0.1,0.1
			c-0.1,0.1-0.2,0.1-0.3,0.2c-0.6,0.4-1.1,0.7-1.4,0.8l-1.7,0.6c-0.2,3.3-2,5-6.1,5.6l-0.1,0h-0.1c-0.7,0-1.2,0-1.7-0.1
			c-1.4-0.1-2.1-0.2-3.8,1l-2,1.4l1.3-2.1c0.5-0.9,0.8-1.1,1.5-1.8l0,0l0.1,0c0.4-0.3,0.8-0.5,1.2-0.6c1-0.5,1.8-0.8,2.4-2
			c0.1-0.4,0.1-0.7,0.1-0.9c-0.2,0.2-0.4,0.4-0.7,0.7l-0.1,0.1c-0.7,0.4-1.8,0.5-2.2,0.5l-0.1,0l-0.2,0c-1.2-0.1-1.5-0.1-2.8-0.6
			l-3-1.2l3.2,0.2c0.8,0,1.4-0.1,1.7-0.6c0.4-0.5,0.3-1.4-0.1-2.3c-0.8-1.2-1.4-1.7-2.3-2.5c-0.1-0.1-0.3-0.2-0.4-0.3
			c-0.3,1.2-0.8,2.4-1.4,3.8l0,0c-0.8,1.6-2.4,2.9-3.9,4.1c-1.4,1.1-2.8,2.2-3.5,3.5c-1.2,2.1-1.1,2.8-0.9,5c0,0.1,0,0.2,0,0.2
			c0.3,0,0.6,0.1,0.9,0.1c0.4,0,0.9,0.1,1.4,0.2l1.6,0.3c0.2,0,0.4,0.1,0.6,0.1c1.7,0.3,2.4,0.3,2.7-1.3l0.2-1.2l1.6,1.9l0,0.1
			c0.9,1.7,0.6,3.2-0.8,4.4l-0.2,0.2c-0.6,0.4-1,0.6-1.5,0.7c0.3,0.2,0.5,0.5,0.8,0.8c0.1,0.1,0.3,0.3,0.4,0.4c0.6,0.6,1.1,1,2,1.5
			c0.9,0.2,1.7,0.2,2.2-0.1c0.4-0.2,0.7-0.7,0.8-1.3l0.8-3.8l0.2,3.9c0.1,2.4-0.4,4.1-1.6,5.1l-0.1,0.1c-1.1,0.7-2.1,1.1-3.1,1.2
			l-0.3,1c-0.3,1.2-0.4,1.5-1.3,2.3l0,0c-1.2,0.8-2.7,1-4.1,0.4c-0.2,0.7-0.3,1.1-0.9,2l0,0l0,0c-1.2,1.3-2.5,2.6-3.8,3.8
			c-1.3,1.2-2.6,2.4-3.8,3.8c-0.1,0.3-0.2,0.6-0.3,0.8C83.2,248.6,83.1,248.7,83.1,248.8z M94.9,235.1c0,0.1,0.1,0.1,0.3,0.1
			c0.4,0,1-0.3,1.5-0.8l0.1-0.1c-0.7,0-1.5-0.1-2.2-0.3C94.6,234.3,94.6,234.6,94.9,235.1z"/>
	</g>
	<g>
		<path d="M109.6,205.8c-0.3,0-0.6,0-0.8-0.1c-5.3-1.7-7.6-3.8-12.8-10c-3.6-2.3-12-8.7-13.4-18.7l1-0.1c1.4,9.9,10.3,16.3,13,18
			l0.1,0l0.1,0.1c5.2,6.2,7.3,8.1,12.4,9.7c0.1,0,0.7,0,0.9,0c0.1,0,0.2,0,0.3,0h0.1c1.9-0.4,2.6-0.9,4-2.4
			c1.5-3.5,1.7-7.5,0.6-11.2c-0.9,0.2-2.1,0-2.8-1.9l-0.1-0.1l0-0.1c0.2-2.1,0.6-3.3,2.1-4.8l0,0l0.1,0c1.7-1,2.8-1.2,4.4-1.6
			c0.2-0.1,0.4-0.1,0.7-0.2c0.8-0.3,1.1-0.7,1.8-1.5c0.1-0.1,0.3-0.3,0.4-0.4l2.1-2.3l-1.2,2.9c-0.9,2.2-1.7,3.7-4,5.1l-1.6,1
			l-0.1,0l-0.5,0.6l0,0l-0.4,1.5l0,1.3c1.3,4.1,1.1,8.5-0.6,12.4l0,0.1l-0.1,0.1c-1.6,1.6-2.4,2.3-4.7,2.8l-0.1,0h-0.2
			c-0.1,0-0.2,0-0.3,0C109.9,205.8,109.8,205.8,109.6,205.8z M113.3,189c0.5,1.1,1.1,1.2,1.6,1.1l0-1.2l0.5-1.9l0.9-1l0.2-0.1
			l1.5-0.9c1-0.6,1.7-1.3,2.3-2c-0.1,0.1-0.2,0.1-0.4,0.2l-0.1,0c-0.2,0.1-0.5,0.1-0.7,0.2c-1.6,0.4-2.6,0.6-4.1,1.5
			C113.8,186.3,113.5,187.2,113.3,189z"/>
	</g>
	<g>
		<path d="M112.3,189.3l-0.5-0.9l-0.7-1.2l-0.1-0.4c-0.2-1.3-0.2-1.6,0-3.2c0.1-0.9,1.7-2.6,1.7-2.7c0.6-0.6,2.1-1.2,4.7-2l0.1,0
			h0.1c0.2,0,0.9-0.3,1.2-0.5c0.1-0.1,0.3-0.1,0.4-0.2l0.1,0c0.8-0.9,0.9-1.1,1.1-2c0.1-0.2,0.1-0.5,0.2-0.8l0.9-3.2l0.1,3.4
			c0.1,3-0.5,4.9-1.6,7.3l0,0.1c-0.1,0.2-0.2,0.3-0.4,0.4c0,0,0,0-0.1,0l-0.4-1c0,0,0,0,0.1,0c0.6-1.3,1.1-2.5,1.3-3.8
			c-0.1,0.2-0.3,0.3-0.5,0.5l-0.1,0.1l-0.3,0.1c-0.1,0-0.2,0.1-0.3,0.1c-0.6,0.3-1.2,0.5-1.6,0.6c-3.1,0.9-4,1.5-4.2,1.7
			c-0.5,0.5-1.3,1.7-1.4,2l0,0.1c-0.3,1.5-0.2,1.6,0,2.9l0,0.3l0.6,1l0.5,0.9L112.3,189.3z"/>
	</g>
	<g>
		<path d="M112.8,188.5l-1.2-0.7c-2.6-1.5-4.9-3.2-4.9-7.1v-0.1l0-0.1c0-0.2,0.1-0.3,0.1-0.5c0.1-0.5,0.2-0.9,0.4-1.4l0-0.1
			c1.3-2.7,3.4-4.3,5.7-4.3c0.2,0,0.4,0,0.6,0c0.5,0,1-0.1,1.5-0.1l0,0c2.1,0.1,2.8,0,4.8-0.5c0.8-0.8,0.8-1,1-1.8
			c0.1-0.2,0.1-0.4,0.2-0.7l0.9-3.3l0.1,3.4c0.1,2.8-0.4,3.7-2.8,5.4l0,0.1c-0.4,1.2-0.7,2.2-1.6,3.2l-0.8-0.7
			c0.6-0.6,0.8-1.2,1.1-1.9c-0.7,0.3-1.3,0.6-2,0.9c-0.9,0.4-1.7,0.7-2.5,1.2c-2.2,2.6-2.1,4.8-1.1,7.8L112.8,188.5z M107.7,180.7
			c0,2.6,1.1,4,3.2,5.4c-0.7-2.7-0.4-4.9,1.7-7.5l0.1-0.1l0.1,0c0.9-0.5,1.8-0.9,2.7-1.3c1-0.4,2-0.8,3-1.4c0.7-0.5,1.2-0.9,1.6-1.2
			l0,0c-2.1,0.5-2.8,0.7-5.1,0.6c-0.4,0-0.9,0-1.4,0.1c-0.2,0-0.4,0-0.6,0.1l0,0c-2.7,0-4.2,2.6-4.8,3.7c-0.1,0.4-0.2,0.8-0.3,1.2
			C107.8,180.4,107.8,180.6,107.7,180.7z"/>
	</g>
	<g>
		<path d="M111.8,187.9c-1.4-0.1-2-0.1-3.2-0.5l-0.1,0l-1.4-0.5l-0.1,0c-3-2.4-3.9-5.3-2.6-8.3l0-0.1l0.8-1.4l0.1-0.1
			c0.2-0.2,0.4-0.3,0.5-0.5c2-1.9,3.2-3.1,2.1-5.3l-0.7-1.3l1.3,0.6c2.5,1,3.5,2.1,2.5,5.1l-1-0.3c0.6-1.8,0.5-2.5-0.8-3.2
			c0.5,2.3-1.2,3.9-2.8,5.3c-0.2,0.1-0.3,0.3-0.5,0.4l-0.7,1.2c-1.1,2.5-0.4,4.9,2.2,7l1.2,0.5c1.2,0.3,1.7,0.4,3,0.4L111.8,187.9z"
			/>
	</g>
	<g>
		<path d="M108.4,174.4c-4.9-4.2-10.7-11.6-10.7-18.3c-0.4-5.8,2.2-14.3,9-15.1l1.6-0.2L107,142c-0.9,0.8-0.9,0.8-1.2,1.7l-0.1,0.3
			c0,0.1,0,0.2,0,0.3c0,0.3-0.1,0.6-0.1,0.8c0,0.1,0,0.2,0,0.3c0,0.3,0.1,0.6,0.1,0.9c0.1,0.2,0.2,0.5,0.3,0.8
			c0.2,0.7,0.5,1.6,0.6,2.4l0.9,0.2c0.2,0,0.4,0.1,0.5,0.1c0.6,0.2,0.7,0.2,1-0.1c0-0.7-0.1-1.3-0.2-2c-0.2-1-0.3-2-0.1-3.1l0-0.1
			c0.4-0.9,0.7-1.3,1.2-1.9c0.1-0.1,0.1-0.2,0.2-0.2l0.8,0.7c-0.1,0.1-0.1,0.2-0.2,0.2c-0.5,0.6-0.7,0.8-1,1.6
			c-0.2,1-0.1,1.8,0.1,2.7c0.1,0.7,0.3,1.5,0.2,2.4l0,0.2l-0.1,0.1c-0.6,0.8-1.1,0.9-1.6,0.8c0.1,0.1,0.2,0.3,0.3,0.5
			c0.5,0.4,0.6,0.5,1.3,0.7l0.6,0.3l-1,1.4c-1,1-1.5,1.2-3,1.4l-0.1,0c-0.3,0-0.6-0.1-1-0.1c-0.1,0-0.2,0-0.3-0.1l-0.1,0l-0.1,0
			c-2.4-1.2-3.4-2.7-3.5-5.1l-0.1-1.9l1.1,1.6c0.6,0.9,0.7,1,1.7,1.1c0.1,0,0.3,0,0.4,0c0.1,0,0.3,0,0.5-0.1
			c0.7-0.5,0.3-1.8-0.1-3.2c-0.1-0.4-0.2-0.7-0.3-1l0-0.1v-0.1c0-0.2,0-0.5-0.1-0.8c0-0.1,0-0.2,0-0.3l0-0.1c0-0.3,0.1-0.7,0.1-1
			c0-0.1,0-0.2,0.1-0.3l0-0.1l0.1-0.3c0.2-0.5,0.3-0.8,0.4-1c-2.5,0.9-4,3-4.8,4.8c-1.2,2.6-1.8,5.9-1.6,8.8l0,0
			c0,6.4,5.6,13.5,10.3,17.5L108.4,174.4z M105.4,154c0.1,0,0.2,0,0.2,0c0.2,0,0.6,0.1,0.7,0.1c1.2-0.1,1.4-0.2,2.2-1l0.2-0.3
			c-0.3-0.2-0.6-0.3-1-0.7l-0.1,0l0-0.1c-0.5-0.6-0.7-1.1-1-1.8l-0.2-0.7c0,0.8-0.2,1.4-1,1.9l-0.1,0.1h-0.1c-0.2,0-0.3,0-0.5,0.1
			c-0.2,0-0.4,0.1-0.6,0.1l0,0c-0.6,0-1-0.1-1.3-0.3C103.2,152.5,104,153.3,105.4,154z"/>
	</g>
	<g>
		<path d="M116.6,161.6l-1.6-0.4c-0.8-0.2-1.6-0.3-2.4-0.5l-0.1,0l-0.1,0c-3.8-2-3.7-4.3-3.4-8l0.1-0.6l0.3-0.1
			c0.2-0.1,0.4-0.1,0.6-0.1c1-0.2,1.3-0.3,2.3-1c1.4-1.6,1.3-1.9,1.1-3.4c-0.1-0.4-0.1-0.8-0.2-1.3c-0.1-0.4,0-1.2,0.4-2.3l1,0.4
			c-0.2,0.6-0.4,1.3-0.4,1.5l0,0.1l0,0.1c0.1,0.5,0.1,0.9,0.2,1.3c0.3,1.7,0.3,2.4-1.4,4.3l0,0l-0.1,0c-1.3,0.9-1.7,1-2.7,1.2
			c-0.1,0-0.1,0-0.2,0.1c-0.3,3.4-0.3,5,2.8,6.7c0.3,0.1,0.6,0.1,0.9,0.2l-0.2-0.3l-0.4-1.1l-0.1-1.1l0,0c0,0,0.1-1.7,0.8-2.3
			l0.4-0.5c1.2-1.4,1.9-2.2,2.3-3.9c0.4-2.5,0.4-4.1,0.2-6.9l1-0.1c0.3,3,0.3,4.6-0.2,7.2l0,0c-0.5,1.9-1.2,2.9-2.5,4.4l0,0
			l-0.5,0.6l0,0c-0.2,0.1-0.4,0.9-0.4,1.5v0l0.1,0.8l0.3,0.9l0.4,0.6L116.6,161.6z"/>
	</g>
	<g>
		<path d="M105.4,177.8c-2.4-2.3-4.4-4.6-5.9-6.6c-3.1-4-5.2-8.8-5.9-13.5l0,0c-0.2-3.2-0.2-5,0.4-8.1l0,0c0.4-1.3,0.7-2.3,1-3.4
			l0,0l0.2-0.5c0.3-0.6,0.6-1.2,0.9-1.8l0.2-0.3c0.6-1.1,1.1-1.6,1.9-2.6l0-0.1c0.9-0.8,1.6-1.4,2.7-2.1l0,0
			c2.4-1.3,4.1-1.6,6.8-1.9l0,0l0,0c2.5,0.1,3.9,0.3,6.4,1.2l0.2,0.1l0.1,0.1c1.5,0.9,2.4,1.7,3.4,2.8l0,0c0.7,1,0.8,1.2,1.1,2.1
			c0,0.1,0.1,0.2,0.1,0.4l0,0.1l0,0.1c0.1,0.8,0.1,1.4,0.1,2.1c0.3,0.6,0.6,0.9,0.9,0.9c0.3,0,0.7-0.4,0.9-1.1l0.4-1.4l0.6,1.3
			c0.5,1.1,0.5,1.2,0.6,2.4l0,0.1l0,0.1c0,0.1,0,0.2,0,0.3c0,0.2-0.1,0.5-0.2,0.8c-0.4,1.2-1.6,2.2-2.5,2.5
			c-0.4,0.1-0.8,0.2-1.2,0.2l-0.1,0c-0.2,0-0.4,0-0.6,0l-0.3,0l-0.8-0.2l0.2-1l0.8,0.1c0.1,0,0.1,0,0.2,0c0.2,0,0.4,0,0.5,0h0.1
			c0.3,0,0.6-0.1,0.8-0.1c0.7-0.3,1.6-1,1.9-1.9c0.1-0.2,0.1-0.4,0.1-0.6c0-0.1,0-0.3,0.1-0.4l0,0c0-0.4,0-0.6-0.1-0.8
			c-0.4,0.5-0.8,0.7-1.3,0.8c-0.4,0-1.3-0.1-2-1.7l0-0.1l0-0.1c0-0.7-0.1-1.3-0.1-2c0-0.1-0.1-0.2-0.1-0.4c-0.2-0.8-0.3-0.9-0.9-1.7
			c-1-1.1-1.8-1.8-3.3-2.7l-0.1-0.1c-2.3-0.8-3.5-1-5.9-1.1c-2.6,0.3-4.1,0.6-6.3,1.8c-1.1,0.7-1.7,1.2-2.6,2
			c-0.7,0.9-1.1,1.4-1.7,2.4l-0.2,0.3c-0.3,0.6-0.6,1.1-0.8,1.7l-0.2,0.5c-0.3,1-0.7,2-1,3.3c-0.6,3-0.6,4.7-0.4,7.8
			c0.7,4.6,2.7,9.2,5.7,13c1.5,2,3.4,4.2,5.8,6.5L105.4,177.8z"/>
	</g>
	<path fill-rule="evenodd" clip-rule="evenodd" d="M156.3,259l31.5,0c0-8.3,0-16.6,0-24.9c-3.7,0-5.6-0.1-9.2,1.4
		c-1.8,0.9-1.8,1-3.1,2.5c-1.1,1.4-1.2,1.8-1.8,3.5c-0.4,1.6-0.6,2.9-0.7,4.5c-0.1,4.2,0.3,6.8,1,10.9c-4.2,0-8.4,0-12.7,0
		c-0.9-3.5-1.3-6.4-1.5-10.1c0.1-2.7,0.3-5,0.6-7.7c0.8-2.4,1.4-4.1,2.5-6.4c1.6-2,2.4-3,4.4-4.6c0.1-0.1,0.2-0.1,0.3-0.2
		c2.2-1.3,3.5-1.9,5.8-2.9c2.7-0.6,4.6-0.7,7.4-0.9c6.6,0,13.1,0,19.7,0v34.8h4.6v9.8h-48.8L156.3,259z"/>
	<path fill-rule="evenodd" clip-rule="evenodd" d="M212.7,234.1v34.8c7.8,0,15.6,0,23.4,0c0.8-0.1,1.6-0.1,2.4-0.2
		c2.3-0.5,3.3-0.8,5.3-2.1c1.6-1.3,1.8-1.8,2.7-3.6c0.3-1.5,0.4-2.2,0.4-3.7c-0.2-1.8-0.3-2.3-1-4c-1.7-2.6-3-3.7-6-4.4
		c0.6-0.2,1.3-0.4,1.9-0.6c1.5-0.9,1.9-1.1,3.1-2.3c1-1.8,1-2.2,1.5-4.3c-0.1-1.7-0.2-2.3-0.6-3.9c-0.7-1.7-1-2.1-2.1-3.5
		c-2.2-1.5-3.3-1.9-5.8-2.3H212.7L212.7,234.1z M224.2,242.2l7.1,0c2.5,0.7,2.8,0.8,3,3.5c-0.9,1.9-1.5,1.8-3.5,2
		c-1.4,0-2.9,0-4.3,0v6.6h5.3c1.4,0.5,1.8,0.5,2.8,1.7c0.4,1.3,0.5,1.3,0.4,2.7c-0.7,1.6-0.5,1.3-2,2.1c-0.4,0-0.7,0.1-1.1,0.1
		c-2.5,0-5.1,0-7.6,0V242.2z"/>
	<path fill-rule="evenodd" clip-rule="evenodd" d="M286.5,259.5c0,3,0,6,0,9.1c-4.5,0.9-8.9,1.1-13.5,1.2c-1.3-0.2-2.5-0.3-3.8-0.5
		c-0.8-0.2-1.5-0.4-2.3-0.6c-1-0.3-1.9-0.7-2.9-1c-2-1-3.1-1.7-4.9-3c-1.9-1.9-2.4-2.7-3.8-4.9c-0.9-2.3-1.2-3.2-1.7-5.6
		c-0.1-2.6-0.1-4.5,0.2-7.1c0.5-1.6,0.9-3,1.5-4.5c0.8-1.3,1.4-2.2,2.4-3.3c1.2-1.1,2-1.8,3.3-2.8c3.1-1.5,5.1-2.1,8.4-2.9
		c3.3-0.1,5.8-0.2,9.1,0.6c3,0.9,4.5,1.5,6.8,3.6c2.2,2.5,2.5,3.3,3.8,6.2c1.2,3.8,1.2,6.8,1.1,10.7c-7.1,0-14.3,0-21.4,0
		c-0.2-0.3-0.4-0.6-0.6-0.9c-0.1-0.4-0.2-0.8-0.4-1.2c-0.1-0.4-0.1-0.9-0.2-1.3c0.1-1.1,0.2-2.3,0.3-3.4c3.8,0,7.6,0,11.4,0
		c0-1.4-0.2-1.7-0.6-3c-0.6-0.8-0.8-1.1-1.6-1.8c-1.5-0.6-1.7-0.7-3.3-0.8c-1.3,0-2.1,0.1-3.4,0.3c-2.1,0.8-2.4,1.2-3.7,3
		c-0.6,1.6-0.9,2.5-1.2,4.2c-0.2,5.6,0.8,7.9,5.7,10.5c2.6,0.8,4.5,0.8,7.2,0.9c2.3-0.1,3.7-0.3,5.9-0.7
		C285,260,285.8,259.8,286.5,259.5z"/>
	<path fill-rule="evenodd" clip-rule="evenodd" d="M298.3,234.1v37h11.4v-28.3c0.8,0,1.5,0,2.3,0c1.6,0.1,2.8,0.3,4.3,0.6
		c1.8,0.8,2.1,1.1,3.2,2.7c0.9,2.1,1.1,3.4,1.2,5.6c-0.4,2.2-0.6,2.8-1.9,4.5c-2.5,1.9-4,1.6-6.9,1.3c0,2.9,0,5.8,0,8.7
		c1.6,0.2,3,0.3,4.6,0.5c2-0.1,3.3-0.2,5.3-0.6c1.7-0.8,3-1.3,4.6-2.3c1.2-1.1,2-2,3-3.2c0.1-0.2,0.3-0.4,0.4-0.6
		c0.1-0.2,0.3-0.4,0.4-0.6c0.4-0.8,0.7-1.5,1.1-2.3c0.7-2.4,0.8-3.7,1-6.2c-0.1-2.1-0.2-3.9-0.6-6c-0.2-0.7-0.4-1.4-0.6-2
		c-0.8-1.4-1.4-2.3-2.3-3.6c-0.1-0.1-0.2-0.2-0.3-0.3c-0.1-0.1-0.2-0.2-0.3-0.3c-1.3-1.2-2.9-2.1-4.4-3c-2-0.6-3.5-0.9-5.5-1.3
		c-1-0.1-2-0.1-3-0.2H298.3z"/>
	<rect x="339" y="234.1" fill-rule="evenodd" clip-rule="evenodd" width="11.4" height="36.9"/>
	<path fill-rule="evenodd" clip-rule="evenodd" d="M201.7,151.8c0,3.7,0,7.5,0,11.2c0.2-0.1,0.5-0.2,0.7-0.2
		c0.2-0.1,0.5-0.2,0.7-0.2c0.9-0.2,1.8-0.4,2.7-0.6c1.8-0.2,3.3-0.4,5.1-0.5c4.2,0.2,6.5,0.3,10,2.8c2.1,2.6,2.3,3,2.8,6.3
		c0.1,4.5,0.1,9,0.1,13.5c-3,0-5.9,0-8.9,0c-2.4-0.5-3.1-0.7-4.2-2.9c-0.1-1.7,0-2.1,1-3.6c0.8-0.4,1.5-0.7,2.4-1c2.2,0,4.4,0,6.7,0
		c0-0.8,0-1.6,0-2.4c-0.1-0.7-0.1-1.4-0.2-2.1c-0.1-0.7-0.2-1.5-0.4-2.2c-0.3-0.7-0.6-1.5-0.9-2.2c-2.4,0-4.7,0-7.1,0
		c-3.2,0.3-4.9,0.5-7.9,1.6c-4.2,2.3-5.8,3.9-7.4,8.3c-0.8,5-0.6,8.8,2.4,12.9c4.6,2.9,8.5,3.7,13.8,4.2c8.2,0,16.4,0,24.6,0
		c0-7.4,0-14.7,0-22.1c0-1.8-0.1-3.5-0.2-5.3c-0.8-4.2-1.2-5.9-3.6-9.5c-5.2-4.6-11-6-17.8-6.7C211.1,151,206.6,151.4,201.7,151.8z"
		/>
	<rect x="246.2" y="139.5" fill-rule="evenodd" clip-rule="evenodd" width="14" height="55"/>
	<path fill-rule="evenodd" clip-rule="evenodd" d="M268.6,139.7c5,0,10,0,15.1,0c-0.3,1.8-0.8,3.4-1.6,5.1c-0.5,0.9-0.9,1.6-1.6,2.4
		c-0.6,0.6-1.1,1.1-1.8,1.6c-0.6,0.3-1.1,0.4-1.7,0.6c-0.2,0-0.5,0-0.7,0.1c-2-0.1-3.3-1.1-4.6-2.5c-1-1.3-1.5-2.3-2.1-3.8
		c-0.2-0.5-0.9-2.6-0.9-3C268.6,140,268.6,139.8,268.6,139.7z"/>
	<path fill-rule="evenodd" clip-rule="evenodd" d="M326.1,139.5c5,0,10,0,15.1,0c-0.3,1.8-0.8,3.4-1.6,5.1c-0.2,0.4-0.5,0.8-0.7,1.2
		c-0.3,0.4-0.6,0.8-0.9,1.2c-0.3,0.3-0.6,0.6-0.9,0.9c-1,0.8-1.4,1-2.6,1.3c-0.6,0.1-1,0.1-1.7,0c-0.8-0.3-1.2-0.5-2-0.9
		c-0.7-0.6-1.1-0.9-1.6-1.6c-1.6-2.1-2.3-4.2-3-6.7c0,0,0,0,0-0.1C326.1,139.8,326.1,139.6,326.1,139.5z"/>
	<polygon fill-rule="evenodd" clip-rule="evenodd" points="283,152 283,194.5 269.2,194.5 269.2,152 	"/>
	<polygon fill-rule="evenodd" clip-rule="evenodd" points="340.5,151.8 340.5,194.3 326.7,194.3 326.7,151.8 	"/>
	<path fill-rule="evenodd" clip-rule="evenodd" d="M320.2,162.9c0-3.7,0-7.4,0-11c-4.6-0.8-8.5-1-13.1-0.5c-2.1,0.5-3.6,1-5.5,1.7
		c-3.7,2.1-5.4,3.5-7.9,6.9c-1.7,3.1-2.5,5.3-3.3,8.7c-0.3,2.3-0.4,4.3-0.4,6.7c0.3,2.3,0.6,3.9,1.2,6.1c0.9,2.1,1.5,3.3,2.7,5.3
		c3.1,3.6,4.9,4.9,9.1,6.9c0,0,0.1,0,0.1,0c5.5,1.4,12.4,2.3,18,0.8c0-3.7,0-7.5,0-11.2c-0.5,0.4-0.8,0.5-1.4,0.8
		c-2.4,0.8-4.7,0.7-7.2,0.5c-2.9-0.7-4.3-1.4-6.4-3.5c-1.5-2.8-1.6-3.9-1.8-7c0.1-2.5,0.3-6.5,1.6-8.5c1.2-1.4,1.9-2,3.4-3.1
		C313.3,161.1,316.1,161,320.2,162.9z"/>
	<path fill-rule="evenodd" clip-rule="evenodd" d="M370.5,167.5c1.1,2.6,1.2,6.1,1.2,8.9c-1.4,0-2.9,0-4.3,0c-3,0-5.6,0.5-5.8,3.9
		c0.4,2.7,1.4,2.9,3.8,3.7c3.1,0,6.2,0,9.2,0c0-4.2,0-8.4,0-12.7c-0.1-2-0.2-2.6-0.8-4.5c-1.4-2.1-2-2.8-4.2-4.1
		c-2.2-0.9-3.5-1-5.7-1.3c-4.3,0.1-7.1,0.6-11.3,1.5c0-3.7,0-7.3,0-11c3.3-0.5,6.5-0.7,9.8-0.8c2.6-0.1,5,0,7.6,0.1
		c2.7,0.5,4.5,0.9,7.1,1.7c3.8,1.6,5.3,2.5,8.1,5.5c2.8,4.2,3.1,7.1,3.3,11.8c0,8.2,0,16.3,0,24.5c-7.2,0-14.5,0-21.7,0
		c-1.7-0.1-3.4-0.1-5.2-0.2c-4.9-0.7-10-1.6-12.8-6.1c-1-2.2-1-2.7-1.3-5.1c0-4.6,0-6.7,2.8-10.3
		C356.1,166.7,362.7,167.5,370.5,167.5z"/>
</g>
</svg>
