<?xml version="1.0" encoding="utf-8"?>
<!-- Generator: Adobe Illustrator 18.0.0, SVG Export Plug-In . SVG Version: 6.00 Build 0)  -->
<!DOCTYPE svg PUBLIC "-//W3C//DTD SVG 1.1//EN" "http://www.w3.org/Graphics/SVG/1.1/DTD/svg11.dtd">
<svg version="1.1" id="Layer_1" xmlns="http://www.w3.org/2000/svg" xmlns:xlink="http://www.w3.org/1999/xlink" x="0px" y="0px"
	 viewBox="0 0 128 128" enable-background="new 0 0 128 128" xml:space="preserve">
<g>
	<path fill-rule="evenodd" clip-rule="evenodd" d="M125.1,58.4c0,0.1-0.1,0.1-0.2,0.1h-0.2v1.3c0,0.1-0.1,0.2-0.2,0.2
		c-0.1,0-0.2-0.1-0.2-0.2v-1.3h-0.2c-0.1,0-0.2,0-0.2-0.1c0-0.1,0.1-0.1,0.2-0.1h0.8C125,58.2,125.1,58.3,125.1,58.4L125.1,58.4z
		 M127,59.9l-0.2-1.4c0-0.1,0-0.1-0.1-0.2c0,0-0.1-0.1-0.2-0.1c-0.1,0-0.2,0.1-0.2,0.2l-0.3,1.1l0,0l-0.3-1.1c0-0.1-0.1-0.2-0.2-0.2
		c-0.1,0-0.1,0-0.2,0.1c0,0-0.1,0.1-0.1,0.2l-0.2,1.2l0,0.2c0,0,0,0.1,0,0.1c0,0.1,0,0.2,0.1,0.2c0.1,0,0.1,0,0.1-0.1
		c0,0,0-0.1,0-0.1l0.2-1.2h0l0.3,1.2c0,0.1,0.1,0.2,0.2,0.2s0.2-0.1,0.2-0.2l0.3-1.2h0l0.2,1.2c0,0.1,0,0.1,0,0.1
		c0,0,0.1,0.1,0.1,0.1c0,0,0.1,0,0.1,0C127,59.9,127,59.9,127,59.9z"/>
	<path fill-rule="evenodd" clip-rule="evenodd" d="M14.6,51.3c1.8,0.4,4,1.9,3.2,4c-0.9,2.1-1.7,0.1-2.7,1.4c-1,1.3,0.1,3.5,2.2,3.5
		c2.1,0,3.8-1.2,4-3.3c0.2-2.1-1.4-4.6-3.9-5.4C16.7,51.3,15.4,51.2,14.6,51.3L14.6,51.3z M16.6,53.6c-5.6,1-9.9,8.5-8.7,13.9
		c0.9,4.2,4.4,5.3,8,3.2c-9.6,8.7-18.6-1-13.4-11C5,54.6,11.3,51.1,16.6,53.6L16.6,53.6z M18.5,67.7c-1.8,3-3-1.2-1.2-3.2
		c-1.5,0.8-1.8,4.9-0.1,4.9c1.3,0,3.2-5,3.9-6.3c0.2-0.3,0.4-0.6,0.7-0.9c0.2-0.2,1-0.6,1,0.2c0,0.8-1.3,4.6-1.4,5.7
		c-0.1,0.9,0.4,1.2,1.3,1.2c1.2,0,2.6-1.2,3.2-2.1c-0.5,0.4-0.7,0.5-1.1,0.6c-0.4,0-0.6-0.2-0.6-0.6c-0.1-1.8,1.9-5.2,0.9-6.1
		c-1-0.9-2-0.6-2.4-0.3C21,61.9,19.6,66,18.5,67.7L18.5,67.7z M69.8,63.6c0.2-0.5,0.5-0.9,0.9-1.3c0.2-0.2,1-0.6,1,0.2
		c0,0.8-1.3,4.6-1.4,5.7c-0.1,0.9,0.4,1.2,1.3,1.2c1.2,0,2.6-1.2,3.2-2.1c-0.5,0.4-0.7,0.5-1.1,0.6c-0.4,0-0.6-0.2-0.6-0.6
		c-0.1-1.8,1.9-5.2,0.9-6.1c-1-0.9-2-0.6-2.4-0.3c-0.7,0.4-1.3,1.4-2,2.6c-2.3-0.3-3.5,0.2-4.2,2.3c-0.6,1.5-0.4,3.6,0.8,3.6
		c0.9,0,2.3-2.9,3.2-4.8c0.6,0.1,0.9,0.2,1,0.6c0.1,0.3-0.2,1.1-0.5,1.5c0.4-0.2,1.6-2.1,1.2-2.6C70.7,63.9,70.1,63.7,69.8,63.6
		L69.8,63.6z M68.9,64.6c-0.6,1.2-1.2,2.4-1.5,3.1c-0.6,1.4-2.3-1.2-1.2-2.7C66.6,64.5,68,64.5,68.9,64.6L68.9,64.6z M27.4,63.9
		c-0.7,1.8-0.7,3.4-0.1,4.4c1,1.6,4,1.5,6-0.9c0.4-0.6,1.2-1.8,1.7-3.1c0.6-1.7,0.6-3.3-1-3c-1.2,0.2-2.4,1.6-2.8,2.7
		c-0.1,0.2,0.3-0.5,0.5-0.7c1.3-2.1,2.9-0.9,2.5,1.1c-0.2,1.1-0.9,2.4-1.4,3c-0.9,1.1-2.6,2.3-3.4,1.1c-1.2-1.7,1.3-7,3.6-7.4
		C30,59.7,28.3,61.8,27.4,63.9L27.4,63.9z M43.8,63.9c-0.7,1.8-0.7,3.4-0.1,4.4c1,1.6,4,1.5,6-0.9c0.4-0.6,1.2-1.8,1.7-3.1
		c0.6-1.7,0.6-3.3-1-3c-1.2,0.2-2.4,1.6-2.8,2.7c-0.1,0.2,0.3-0.5,0.5-0.7c1.3-2.1,2.9-0.9,2.5,1.1c-0.2,1.1-0.9,2.4-1.4,3
		c-0.9,1.1-2.6,2.3-3.4,1.1c-1.2-1.7,1.3-7,3.6-7.4C46.3,59.7,44.6,61.8,43.8,63.9L43.8,63.9z M42.6,60c-0.4-0.3-2.6,0.5-3,0.6
		c-0.7,0.2-1.7,0.7-2.3,0.8c-0.7,0.1-1.4,0.1-1.4-0.8c0-0.8,0.8-1.4,1.4-1.7c-0.3,0.3-0.3,0.4-0.4,0.5c-0.1,0.3,0.1,0.5,0.4,0.4
		c1.4-0.3,4.8-3,6.1-1.6c0.7,0.7-0.3,2.4-1,2.9C42.8,60.6,43,60.3,42.6,60L42.6,60z M37.4,61.4l-0.2,0.1c-0.3,1-1.2,4.6-1.4,5.9
		c-0.2,1,0.2,2,1.4,2.1c3.2,0.3,5.6-3.6,4.8-6.3c-0.4-1.3-3.1-1.1-3.7-0.2L38,64.7c0.6-0.7,3.1-0.8,2.6,0.9
		c-0.5,1.5-4.3,2.5-4.2,0.3C36.3,64.9,37.2,62.2,37.4,61.4L37.4,61.4z M60.6,59.7c-0.2,0.9-0.8,2.8-1.6,4.7c1.7-0.8,3.9-3.3,5-3.8
		c1.9-0.9,1.4,1.6,0.7,2.3c0.6-2.4-2.8,0-4.4,1.6c0,0.2,0.8,1.3,1.1,1.8c0.6,0.7,1.3,1.3,2,1c0.3-0.1,0.7-0.1,1-0.4
		c-2.4,4.5-3.4,2.2-5.6-1.3c-0.4,1.6-0.6,3.2-1,4.3c-0.7,0.1-1.6,0.1-2,0c0.2-1.2,0.6-2.5,0.9-3.4c-0.6,0.7-2.1,1.8-3.4,2.4
		c-0.6,0.3-1,0.5-1.4,0.5c-0.4,0-0.8,0-0.7-0.6c0.1-0.6,0.7-2,1.2-2.4c-0.4,3.7,4.1-0.4,4.3-0.8c-0.6-1.1-2.5-5-3.1-3.4
		c-0.3-1.1,1.1-2.6,2.1-2c0.5,0.3,1.3,1.7,1.8,2.9c0.3-1.2,0.7-2.6,1.1-3.2C59.1,59.6,60.2,59.6,60.6,59.7L60.6,59.7z M79.9,64.9
		c-0.6,1.3-1.4,2.8-1.7,3.4c-0.3,0.5-0.7,1.2-1.4,1.1c-2.5-0.4-2.2-4.7,0.4-5.4c0.6-0.1,1.6-0.2,2.7-0.3c0.1-0.8,0-1.8-0.5-2.3
		c-0.1-0.1-1.5-0.7-0.8-0.8c0.3-0.1,1.1-0.1,1.6-0.1c1.2,0.1,1.3,0.5,0.9,1.6c-0.1,0.3-0.3,1-0.5,1.4c0.6,0,1.3,0,1.8-0.1
		c0.3-1,0.7-2.1,0.9-2.7c1.4-0.2,1.5-0.2,2.1,0c-0.2,0.5-0.6,1.7-1,2.7c0.1,0,0.2,0,0.3,0c2.3,0,0.7,2.9-0.2,3.7
		c0.3-0.6,1.6-2.5-0.1-2.5c-0.1,0-0.2,0-0.4,0c-0.5,1.3-0.9,2.6-1.1,3.3c-0.6,2.4,2.3,0.5,3.1-0.2c-0.8,1.1-2.6,1.9-4,1.4
		c-1-0.4-1.1-1-0.9-2c0.1-0.5,0.5-1.5,0.8-2.5C81.2,64.8,80.5,64.9,79.9,64.9L79.9,64.9z M79.4,64.9C79,66,78.3,67.1,78,67.8
		c-0.6,1.3-3.2-2-0.8-2.7C77.6,65,78.5,65,79.4,64.9L79.4,64.9z M91.7,66.3c0.7-0.4,2.3-1.3,2.8-2.1c3.1-5-5.3-5.9-7.2,1.2
		c-0.5,1.9,0.3,4,2.5,4c1.7,0,3.2-1.1,4.1-2.4c-0.9,0.9-3.4,2.5-4.4,1.1c-1.4-1.9,4.4-11.4,4.2-5.2C93.7,64,92.4,65.6,91.7,66.3
		L91.7,66.3z M94.7,69.5c0.5-2,2.1-6.9,2.8-8.6c0.8-0.3,2.3-0.3,2.3,0c-0.3,0.8-0.6,1.6-1.1,2.7c1.2-0.9,2.8-3,4.8-3
		c1.4,0,0.8,1.8,0.1,3c0.1-1-0.1-1.6-1-1.7c-0.9-0.1-2.3,1.3-2.9,2.1c0.3,0.8,1.5,3.4,2.3,3.7c0.5,0.1,0.9,0.4,1.9-0.4
		c-0.3,0.7-1.6,2.2-2.4,2.1c-1.5-0.1-2.8-3-3.2-4.2c-0.4,1.2-0.9,2.7-1.4,4.2C96.2,69.5,95.7,69.5,94.7,69.5L94.7,69.5z M113.8,67
		c-0.6,0.6-1.9,2.3-1.6,0.6c0.2-0.9,1.5-4.2,2.1-6.7c-0.2-0.4-1.5-0.2-2.1,0c-0.3,1.3-1.2,3.7-1.7,5.2c-1.1,1.1-2.9,2.5-3.2,2.3
		c-0.6-0.6,2.3-4.9,1.7-6.8c-0.6-1.9-2.8-0.6-3.8,1.3c0.2-0.2,1.9-2.4,2.3-1.7c0.5,1.1-3.9,8.1-2.2,8.2c1.1,0.1,4.4-2.1,5.1-3.1
		c-0.2,0.5-0.6,1.8-0.5,2.3c0.1,0.6,0.3,0.7,0.7,0.7C111.7,69.6,113.5,67.9,113.8,67L113.8,67z M121.9,67.1
		c-0.9,1.2-3.8,2.6-5.3,2.4c-1.3-0.2-1.5-1-1.2-2c0.3-1,2.6-1.8,2.4-2.4c-0.2-0.4-3.2,0.8-2.7-1.4c0.6-2.6,6.4-4.3,8.3-3.6
		c1,0.4,1,1.7,0.2,2.3c-0.9,0.7-1.9,1.2-3.8,1.4c1.8-0.6,4.2-3.7,2.4-3.7c-1.3,0-4.6,3-4.5,4c0.1,1.1,1.3,0.4,2,0.7
		c1.4,0.7-2.7,3-3,3.6C116,70.5,121.5,67.7,121.9,67.1z"/>
	<rect x="17.6" y="70.2" fill-rule="evenodd" clip-rule="evenodd" width="102.8" height="1"/>
</g>
</svg>
