<?xml version="1.0" encoding="utf-8"?>
<!-- Generator: Adobe Illustrator 18.0.0, SVG Export Plug-In . SVG Version: 6.00 Build 0)  -->
<!DOCTYPE svg PUBLIC "-//W3C//DTD SVG 1.1//EN" "http://www.w3.org/Graphics/SVG/1.1/DTD/svg11.dtd">
<svg version="1.1" id="Layer_1" xmlns="http://www.w3.org/2000/svg" xmlns:xlink="http://www.w3.org/1999/xlink" x="0px" y="0px"
	 viewBox="0 0 32 32" enable-background="new 0 0 32 32" xml:space="preserve">
<path fill="#FFFFFF" d="M16,0C7.2,0,0,7.2,0,16s7.2,16,16,16s16-7.2,16-16S24.8,0,16,0z M20,17h-3v7h-3v-7h-3v-3h3v-2
	c0-2.5,1-4,3.5-4c0.9,0,2,0,2.5,0v3h-1.5c-1,0-1.5,0.5-1.5,1.5V14h3.5L20,17z"/>
<circle fill="#FFFFFF" cx="55" cy="16" r="16"/>
<path fill="#1976D2" d="M59.6,14.9c0.1,0.4,0.1,0.8,0.1,1.3c0,3.4-2.3,5.9-5.8,5.9c-3.3,0-6-2.7-6-6s2.7-6,6-6c1.6,0,3,0.6,4,1.6
	l-1.7,1.7v0c-0.6-0.6-1.4-0.9-2.3-0.9c-2,0-3.6,1.7-3.6,3.7c0,2,1.6,3.7,3.6,3.7c1.8,0,3-1,3.3-2.4H54v-2.3H59.6z M64.1,15.3v-1.9
	h-1.5v1.9h-1.9v1.5h1.9v1.9h1.5v-1.9H66v-1.5H64.1z"/>
</svg>
