<?xml version="1.0" encoding="utf-8"?>
<!-- Generator: Adobe Illustrator 18.0.0, SVG Export Plug-In . SVG Version: 6.00 Build 0)  -->
<!DOCTYPE svg PUBLIC "-//W3C//DTD SVG 1.1//EN" "http://www.w3.org/Graphics/SVG/1.1/DTD/svg11.dtd">
<svg version="1.1" id="Layer_1" xmlns="http://www.w3.org/2000/svg" xmlns:xlink="http://www.w3.org/1999/xlink" x="0px" y="0px"
	 viewBox="0 0 400 400" enable-background="new 0 0 400 400" xml:space="preserve">
<g>
	<g>
		<path fill-rule="evenodd" clip-rule="evenodd" d="M120.3,215.6c-0.5,7.9-35.3,12.5-77.8,10.3c-13.7-0.7-26.5-2.1-37.5-3.8
			c9.1,1.1,19,1.9,29.5,2.3c42.4,1.8,77.7-4.7,77.7-10.1c0.1-9-34.6-15.8-90.9-12.8C68.3,194.1,121.4,199,120.3,215.6z"/>
		<path fill-rule="evenodd" clip-rule="evenodd" d="M87.5,184.1l-8.9,37.5H67.7c-1.2,0-2.2-0.2-3-0.5c-0.8-0.3-1.3-0.9-1.6-1.7
			L57,204.7L53.5,218l-0.1,1c0,0.4,0.2,0.7,0.5,0.9c0.3,0.2,0.8,0.3,1.3,0.3l-0.3,1.4H41.5c-0.7,0-1.2-0.2-1.5-0.6
			c-0.3-0.4-0.5-0.9-0.5-1.5c0-0.2,0-0.6,0.1-1l8.1-35c0.1-0.4-0.1-0.9-0.5-1.3c-0.4-0.4-0.8-0.6-1.3-0.6l0.4-1.4h15.2
			c0.5,0,1,0.2,1.6,0.7c0.6,0.5,1,0.9,1.2,1.5l6.5,15.1l2.9-12.9c0.1-0.2,0.1-0.6,0.1-1.1c0-0.5-0.2-0.9-0.6-1.3
			c-0.4-0.4-0.8-0.5-1.3-0.5l0.4-1.4h13.4c0.6,0,1.1,0.2,1.5,0.7c0.3,0.4,0.5,0.9,0.5,1.5L87.5,184.1z"/>
	</g>
	<text transform="matrix(1 0 0 1 144.4338 222.6404)"><tspan x="0" y="0" font-family="'ArialMT'" font-size="59.8642" letter-spacing="8">N</tspan><tspan x="51.8" y="0" font-family="'ArialMT'" font-size="59.8642" letter-spacing="8">EMA</tspan><tspan x="207.3" y="0" font-family="'ArialMT'" font-size="59.8642">N</tspan></text>
</g>
</svg>
