<?xml version="1.0" encoding="utf-8"?>
<!-- Generator: Adobe Illustrator 18.0.0, SVG Export Plug-In . SVG Version: 6.00 Build 0)  -->
<!DOCTYPE svg PUBLIC "-//W3C//DTD SVG 1.1//EN" "http://www.w3.org/Graphics/SVG/1.1/DTD/svg11.dtd">
<svg version="1.1" id="Layer_1" xmlns="http://www.w3.org/2000/svg" xmlns:xlink="http://www.w3.org/1999/xlink" x="0px" y="0px"
	 viewBox="0 0 32 32" enable-background="new 0 0 32 32" xml:space="preserve">
<path fill="#FFFFFF" d="M16,0C7.2,0,0,7.2,0,16s7.2,16,16,16c8.8,0,16-7.2,16-16S24.8,0,16,0z M15,22c-3.3,0-6-2.7-6-6s2.7-6,6-6
	c1.6,0,2.8,0.6,3.9,1.6L17,13.3v0c0-0.6-1.3-0.9-2.2-0.9c-2,0-3.5,1.7-3.5,3.7c0,2,1.6,3.5,3.6,3.5c1.8,0,3.1-0.5,3.3-2.5H15v-2h5.6
	c0.1,0,0.1,0.8,0.1,1.2C20.8,19.6,18.5,22,15,22z M27,17h-2v2h-1v-2h-2v-2h2v-2h1v2h2V17z"/>
</svg>
