<?xml version="1.0" encoding="utf-8"?>
<!-- Generator: Adobe Illustrator 16.0.3, SVG Export Plug-In . SVG Version: 6.00 Build 0)  -->
<!DOCTYPE svg PUBLIC "-//W3C//DTD SVG 1.1//EN" "http://www.w3.org/Graphics/SVG/1.1/DTD/svg11.dtd">
<svg version="1.1" id="Layer_1" xmlns="http://www.w3.org/2000/svg" xmlns:xlink="http://www.w3.org/1999/xlink" x="0px" y="0px"
	 width="273.344px" height="256px" viewBox="0 0 273.344 256" enable-background="new 0 0 273.344 256" xml:space="preserve">
<g display="none">
	<path display="inline" d="M40.01,192h160.039c4.423,0,7.951-3.533,7.951-7.955V40.01c0-4.423-3.528-8.01-7.951-8.01H40.01
		C35.583,32,32,35.587,32,40.01v144.035C32,188.467,35.583,192,40.01,192z M200,184h-26.036l-27.429-31.625l21.481-24.355
		L200,163.071V184z M40,40h160v110.99l-25.982-28.249c-1.532-1.728-3.692-2.712-5.989-2.712s-4.479,0.984-5.996,2.712l-20.83,23.607
		L78.018,74.729c-1.521-1.727-3.704-2.712-6.002-2.712c-2.297,0-4.485,0.985-6.005,2.712L40,104.721V40z M40,116.829l32.013-36.81
		l64.55,73.159l4.643,5.244l22.1,25.578H40V116.829z"/>
	<path display="inline" d="M152.037,104.025c13.253,0,24.006-10.745,24.006-24.006c0-13.26-10.752-24.006-24.006-24.006
		c-13.269,0-24.005,10.746-24.005,24.006C128.032,93.281,138.769,104.025,152.037,104.025z M152.037,64.016
		c8.815,0,16.004,7.177,16.004,16.003c0,8.827-7.189,16.004-16.004,16.004c-8.831,0-16.004-7.177-16.004-16.004
		C136.033,71.193,143.207,64.016,152.037,64.016z"/>
	<path display="inline" d="M0,0v256h240V0H0z M224,240H16V16h208V240z"/>
</g>
<g display="none">
	<path display="inline" d="M33,256h139V31H33V256z M35,33h135v221H35V33z"/>
	<path display="inline" d="M102.233,143H78.372c-5.551,0-10.051,4.445-10.051,9.996c0,5.555,4.5,10.004,10.051,10.004h23.861
		c5.551,0,10.047-4.45,10.047-10.004C112.28,147.445,107.784,143,102.233,143z"/>
	<polygon display="inline" points="0,0 0,256 17,256 17,204.478 17,17 189,17 189,204.478 189,256 206,256 206,0 	"/>
</g>
<g display="none">
	<path display="inline" d="M149.95,148.717L256,42.669L213.333,0l-106.05,106.048L149.95,148.717z M241.858,42.669l-91.908,91.906
		l-28.525-28.527l91.908-91.906L241.858,42.669z"/>
	<path display="inline" d="M106.05,107.283L0,213.331L42.667,256l106.05-106.048L106.05,107.283z M14.142,213.331l91.908-91.906
		l28.525,28.527l-91.908,91.905L14.142,213.331z"/>
	<path display="inline" d="M97.617,204.286l41.051,41.049l106.669-106.667l-41.051-41.051L97.617,204.286z M138.668,231.193
		l-26.908-26.907l92.526-92.527l26.908,26.909L138.668,231.193z"/>
	<path display="inline" d="M160.325,49.777L119.27,8.726L12.604,115.393l41.052,41.051L160.325,49.777z M119.27,22.868l26.913,26.91
		l-92.526,92.524l-26.909-26.909L119.27,22.868z"/>
</g>
<g display="none">
	<polygon display="inline" points="167,0 145,0 145,14.374 167,21.419 	"/>
	<path display="inline" d="M0,117v139h33V142h51v114h150V117H0z M202,210h-89v-68h89V210z"/>
	<path display="inline" d="M233.683,105l-56.93-72.286l-66.372-26.5L41.662,32.744L0,105h83.331H233.683z M50.227,42.45
		l60.077-23.032l58.754,23.281L208.05,92H83.331H21.526L50.227,42.45z"/>
</g>
<g>
	<polygon points="51,229 59,229 59,177 160,177 160,229 168,229 168,177 176,177 176,164 43,164 43,177 51,177 	"/>
	<path d="M273.344,114l-62.71-78.955L191,28.249V0h-23v19.973L129.667,6.18L45.515,35.045L0,114h8v142h256V114H273.344z
		 M54.046,45.425l75.802-26.093l73.614,26.375L247.822,102H21.43L54.046,45.425z M251,243H20V115h231V243z"/>
	<path d="M196,202h28v27h8v-83.158c0-2.277-1.721-4.124-4-4.124s-4,1.847-4,4.124V190h-36v39h8V202z"/>
</g>
</svg>
